<svg width="74" height="80" viewBox="0 0 74 80" fill="none" xmlns="http://www.w3.org/2000/svg">
<path d="M0.5 8C0.5 3.85786 3.85786 0.5 8 0.5H66C70.1421 0.5 73.5 3.85786 73.5 8V57.9051C73.5 60.819 71.8122 63.4692 69.1716 64.7015L39.7179 78.4466C37.6827 79.3963 35.3289 79.384 33.3038 78.4131L4.75753 64.7265C2.15552 63.479 0.5 60.8493 0.5 57.9636V8Z" fill="#EFF8FF" stroke="#B2DDFF"/>
<g clip-path="url(#clip0_122_10910)">
<path d="M57.9488 32.5557C61.9638 34.0171 64.8744 30.0556 64.9065 30.0121C64.9375 29.9662 64.9493 29.9113 64.938 29.8581C64.9249 29.8044 64.8928 29.7579 64.8449 29.7323C64.8038 29.71 61.1865 27.7273 58.2287 29.7556C58.5144 29.2772 58.788 28.7814 59.0501 28.2677C64.1055 25.9059 61.8877 20.3075 61.8633 20.2518C61.8428 20.2015 61.7959 20.1619 61.7497 20.1431C61.6991 20.1247 61.6426 20.1286 61.5939 20.1558C61.5405 20.1852 56.3703 23.0767 58.6955 28.1173C58.2241 29.0388 57.7142 29.9015 57.1653 30.7073L57.0678 30.843C57.9869 26.2911 53.1611 24.2029 53.108 24.1817C53.0599 24.1622 53.001 24.1612 52.9518 24.1841C52.9026 24.2071 52.8662 24.251 52.8508 24.3046C52.8343 24.3612 51.2585 29.9439 56.2759 31.9213C55.2899 33.1685 54.1919 34.2558 52.9789 35.1886C54.369 30.2903 49.1928 28.0513 49.1379 28.0293C49.0887 28.0073 49.031 28.0087 48.9818 28.0317C48.9319 28.0564 48.8962 28.0986 48.8807 28.1522C48.8643 28.2085 47.3069 33.7334 52.2275 35.7372C51.1275 36.4969 49.9381 37.1386 48.6568 37.6654C48.3961 37.7398 48.129 37.8355 47.856 37.9536C49.951 33.2247 45.045 30.3119 44.9922 30.2829C44.945 30.2555 44.8881 30.2491 44.8366 30.2671C44.7858 30.2833 44.7434 30.321 44.7208 30.372C44.6975 30.4253 42.4746 35.6405 46.9841 38.272C46.4071 38.4543 45.8139 38.6171 45.2029 38.7587C45.0996 38.7826 45.0353 38.8859 45.0592 38.9891C45.0745 39.0548 45.1217 39.1048 45.1806 39.1263C45.2144 39.1386 45.2519 39.1416 45.2894 39.1328C45.9865 38.9712 46.6606 38.7821 47.3144 38.5684C48.1092 40.0747 49.1778 40.8882 50.2783 41.2887C52.7475 42.1874 55.3753 41.0175 55.414 41.0009C55.4632 40.978 55.5015 40.9347 55.5162 40.8829C55.5335 40.8299 55.5271 40.7745 55.4992 40.7276C55.4735 40.6855 53.4477 37.3914 50.0694 37.4503C51.0405 36.9708 51.9548 36.4187 52.8142 35.7939C53.5668 36.6432 54.3646 37.1648 55.1586 37.4538C58.2086 38.564 61.1948 36.2804 61.2327 36.2493C61.2755 36.2159 61.3017 36.1662 61.305 36.1122C61.309 36.0565 61.2891 36.0043 61.2526 35.9645C61.2157 35.9288 58.2153 32.9303 54.7396 34.1849C55.45 33.5048 56.1145 32.7615 56.7354 31.9554C57.1487 32.2126 57.5541 32.4121 57.9488 32.5557Z" fill="url(#paint0_linear_122_10910)"/>
</g>
<g clip-path="url(#clip1_122_10910)">
<path d="M17.0512 32.5557C13.0362 34.0171 10.1256 30.0556 10.0935 30.0121C10.0625 29.9662 10.0507 29.9113 10.062 29.8581C10.0751 29.8044 10.1072 29.7579 10.1551 29.7323C10.1962 29.71 13.8135 27.7273 16.7713 29.7556C16.4856 29.2772 16.212 28.7814 15.9499 28.2677C10.8945 25.9059 13.1123 20.3075 13.1367 20.2518C13.1572 20.2015 13.2041 20.1619 13.2503 20.1431C13.3009 20.1247 13.3574 20.1286 13.4061 20.1558C13.4595 20.1852 18.6297 23.0767 16.3045 28.1173C16.7759 29.0388 17.2858 29.9015 17.8347 30.7073L17.9322 30.843C17.0131 26.2911 21.8389 24.2029 21.892 24.1817C21.9401 24.1622 21.999 24.1612 22.0482 24.1841C22.0974 24.2071 22.1338 24.251 22.1492 24.3046C22.1657 24.3612 23.7415 29.9439 18.7241 31.9213C19.7101 33.1685 20.8081 34.2558 22.0211 35.1886C20.631 30.2903 25.8072 28.0513 25.8621 28.0293C25.9113 28.0073 25.969 28.0087 26.0182 28.0317C26.0681 28.0564 26.1038 28.0986 26.1193 28.1522C26.1357 28.2085 27.6931 33.7334 22.7725 35.7372C23.8725 36.4969 25.0619 37.1386 26.3432 37.6654C26.6039 37.7398 26.871 37.8355 27.144 37.9536C25.049 33.2247 29.955 30.3119 30.0078 30.2829C30.055 30.2555 30.1119 30.2491 30.1634 30.2671C30.2142 30.2833 30.2566 30.321 30.2792 30.372C30.3025 30.4253 32.5254 35.6405 28.0159 38.272C28.5929 38.4543 29.1861 38.6171 29.7971 38.7587C29.9004 38.7826 29.9647 38.8859 29.9408 38.9891C29.9255 39.0548 29.8783 39.1048 29.8194 39.1263C29.7856 39.1386 29.7481 39.1416 29.7106 39.1328C29.0135 38.9712 28.3394 38.7821 27.6856 38.5684C26.8908 40.0747 25.8222 40.8882 24.7217 41.2887C22.2525 42.1874 19.6247 41.0175 19.586 41.0009C19.5368 40.978 19.4985 40.9347 19.4838 40.8829C19.4665 40.8299 19.4729 40.7745 19.5008 40.7276C19.5265 40.6855 21.5523 37.3914 24.9306 37.4503C23.9595 36.9708 23.0452 36.4187 22.1858 35.7939C21.4332 36.6432 20.6354 37.1648 19.8414 37.4538C16.7914 38.564 13.8052 36.2804 13.7673 36.2493C13.7245 36.2159 13.6983 36.1662 13.695 36.1122C13.691 36.0565 13.7109 36.0043 13.7474 35.9645C13.7843 35.9288 16.7847 32.9303 20.2604 34.1849C19.55 33.5048 18.8855 32.7615 18.2646 31.9554C17.8513 32.2126 17.4459 32.4121 17.0512 32.5557Z" fill="url(#paint1_linear_122_10910)"/>
</g>
<defs>
<linearGradient id="paint0_linear_122_10910" x1="58.8556" y1="19.0897" x2="41.834" y2="44.9725" gradientUnits="userSpaceOnUse">
<stop stop-color="#B2DDFF"/>
<stop offset="1" stop-color="#B2DDFF" stop-opacity="0"/>
</linearGradient>
<linearGradient id="paint1_linear_122_10910" x1="16.1444" y1="19.0897" x2="33.166" y2="44.9725" gradientUnits="userSpaceOnUse">
<stop stop-color="#B2DDFF"/>
<stop offset="1" stop-color="#B2DDFF" stop-opacity="0"/>
</linearGradient>
<clipPath id="clip0_122_10910">
<rect width="24" height="24" fill="white" transform="translate(41 18)"/>
</clipPath>
<clipPath id="clip1_122_10910">
<rect width="24" height="24" fill="white" transform="matrix(-1 0 0 1 34 18)"/>
</clipPath>
</defs>
</svg>
