<svg width="74" height="80" viewBox="0 0 74 80" fill="none" xmlns="http://www.w3.org/2000/svg">
<path d="M0.5 8C0.5 3.85786 3.85786 0.5 8 0.5H66C70.1421 0.5 73.5 3.85786 73.5 8V57.9051C73.5 60.819 71.8122 63.4692 69.1716 64.7015L39.7179 78.4466C37.6827 79.3963 35.3289 79.384 33.3038 78.4131L4.75753 64.7265C2.15552 63.479 0.5 60.8493 0.5 57.9636V8Z" fill="#EFF8FF" stroke="#B2DDFF"/>
<g clip-path="url(#clip0_122_10894)">
<path d="M60.1207 27.4077C65.4741 29.3562 69.3548 24.0742 69.3976 24.0162C69.439 23.955 69.4548 23.8818 69.4397 23.8109C69.4222 23.7392 69.3794 23.6773 69.3155 23.6432C69.2607 23.6134 64.4376 20.9698 60.4939 23.6742C60.8748 23.0364 61.2396 22.3752 61.5891 21.6903C68.3296 18.5413 65.3726 11.0767 65.34 11.0025C65.3127 10.9354 65.2502 10.8827 65.1885 10.8575C65.1212 10.833 65.0457 10.8382 64.9808 10.8745C64.9096 10.9137 58.016 14.769 61.1163 21.4899C60.4877 22.7184 59.8079 23.8687 59.0761 24.9432L58.946 25.124C60.1715 19.0549 53.7371 16.2706 53.6662 16.2424C53.6022 16.2164 53.5237 16.215 53.4581 16.2456C53.3925 16.2762 53.3439 16.3348 53.3233 16.4063C53.3014 16.4816 51.2002 23.9253 57.8902 26.5618C56.5755 28.2248 55.1115 29.6744 53.4942 30.9182C55.3476 24.3871 48.4461 21.4018 48.3729 21.3724C48.3073 21.3431 48.2303 21.345 48.1647 21.3756C48.0982 21.4086 48.0505 21.4648 48.03 21.5363C48.0081 21.6114 45.9315 28.978 52.4923 31.6497C51.0256 32.6626 49.4398 33.5182 47.7314 34.2206C47.3837 34.3198 47.0277 34.4474 46.6636 34.6049C49.457 28.2997 42.9156 24.416 42.8453 24.3773C42.7823 24.3408 42.7064 24.3322 42.6378 24.3562C42.57 24.3779 42.5136 24.4281 42.4834 24.4961C42.4524 24.5671 39.4884 31.5208 45.5012 35.0294C44.7318 35.2725 43.9408 35.4896 43.1261 35.6784C42.9884 35.7103 42.9027 35.8479 42.9345 35.9856C42.955 36.0731 43.0178 36.1398 43.0965 36.1685C43.1415 36.1848 43.1915 36.1889 43.2415 36.1771C44.171 35.9617 45.0698 35.7096 45.9415 35.4247C47.0012 37.4331 48.4261 38.5176 49.8933 39.0517C53.1857 40.25 56.6894 38.69 56.741 38.668C56.8066 38.6374 56.8576 38.5797 56.8773 38.5106C56.9003 38.44 56.8918 38.3661 56.8546 38.3035C56.8203 38.2474 54.1192 33.8553 49.6148 33.9338C50.9097 33.2945 52.1287 32.5583 53.2745 31.7253C54.2781 32.8577 55.3418 33.5532 56.4004 33.9385C60.4672 35.4187 64.4487 32.374 64.4992 32.3325C64.5563 32.2879 64.5913 32.2216 64.5957 32.1497C64.6009 32.0754 64.5745 32.0058 64.5257 31.9527C64.4766 31.9051 60.476 27.9071 55.8418 29.5799C56.7889 28.6732 57.675 27.6821 58.5028 26.6072C59.054 26.9502 59.5945 27.2162 60.1207 27.4077Z" fill="url(#paint0_linear_122_10894)"/>
</g>
<g clip-path="url(#clip1_122_10894)">
<path d="M13.9242 27.4077C8.57085 29.3562 4.69015 24.0742 4.64727 24.0162C4.60593 23.955 4.59016 23.8818 4.60523 23.8109C4.6227 23.7392 4.66554 23.6773 4.72938 23.6432C4.78418 23.6134 9.60731 20.9698 13.551 23.6742C13.1701 23.0364 12.8053 22.3752 12.4558 21.6903C5.71527 18.5413 8.67231 11.0767 8.70494 11.0025C8.73225 10.9354 8.79477 10.8827 8.85642 10.8575C8.92376 10.833 8.9992 10.8382 9.06415 10.8745C9.13533 10.9137 16.0289 14.769 12.9286 21.4899C13.5572 22.7184 14.2371 23.8687 14.9688 24.9432L15.0989 25.124C13.8734 19.0549 20.3078 16.2706 20.3787 16.2424C20.4427 16.2164 20.5212 16.215 20.5868 16.2456C20.6524 16.2762 20.701 16.3348 20.7216 16.4063C20.7436 16.4816 22.8447 23.9253 16.1547 26.5618C17.4695 28.2248 18.9334 29.6744 20.5507 30.9182C18.6973 24.3871 25.5989 21.4018 25.6721 21.3724C25.7376 21.3431 25.8146 21.345 25.8802 21.3756C25.9467 21.4086 25.9944 21.4648 26.015 21.5363C26.0368 21.6114 28.1134 28.978 21.5526 31.6497C23.0194 32.6626 24.6051 33.5182 26.3135 34.2206C26.6612 34.3198 27.0173 34.4474 27.3813 34.6049C24.588 28.2997 31.1293 24.416 31.1997 24.3773C31.2626 24.3408 31.3385 24.3322 31.4071 24.3562C31.4749 24.3779 31.5314 24.4281 31.5616 24.4961C31.5926 24.5671 34.5565 31.5208 28.5438 35.0294C29.3131 35.2725 30.1041 35.4896 30.9188 35.6784C31.0565 35.7103 31.1422 35.8479 31.1104 35.9856C31.0899 36.0731 31.0271 36.1398 30.9484 36.1685C30.9035 36.1848 30.8535 36.1889 30.8034 36.1771C29.8739 35.9617 28.9752 35.7096 28.1034 35.4247C27.0437 37.4331 25.6189 38.5176 24.1516 39.0517C20.8593 40.25 17.3555 38.69 17.3039 38.668C17.2383 38.6374 17.1873 38.5797 17.1676 38.5106C17.1447 38.44 17.1532 38.3661 17.1903 38.3035C17.2247 38.2474 19.9257 33.8553 24.4301 33.9338C23.1352 33.2945 21.9162 32.5583 20.7704 31.7253C19.7669 32.8577 18.7032 33.5532 17.6445 33.9385C13.5778 35.4187 9.59626 32.374 9.54574 32.3325C9.48866 32.2879 9.45366 32.2216 9.44926 32.1497C9.44399 32.0754 9.47043 32.0058 9.51917 31.9527C9.56831 31.9051 13.5689 27.9071 18.2032 29.5799C17.256 28.6732 16.3699 27.6821 15.5421 26.6072C14.991 26.9502 14.4504 27.2162 13.9242 27.4077Z" fill="url(#paint1_linear_122_10894)"/>
</g>
<defs>
<linearGradient id="paint0_linear_122_10894" x1="61.3298" y1="9.45303" x2="38.6343" y2="43.9634" gradientUnits="userSpaceOnUse">
<stop stop-color="#B2DDFF"/>
<stop offset="1" stop-color="#B2DDFF" stop-opacity="0"/>
</linearGradient>
<linearGradient id="paint1_linear_122_10894" x1="12.7152" y1="9.45303" x2="35.4106" y2="43.9634" gradientUnits="userSpaceOnUse">
<stop stop-color="#B2DDFF"/>
<stop offset="1" stop-color="#B2DDFF" stop-opacity="0"/>
</linearGradient>
<clipPath id="clip0_122_10894">
<rect width="32" height="32" fill="white" transform="translate(37.5225 8)"/>
</clipPath>
<clipPath id="clip1_122_10894">
<rect width="32" height="32" fill="white" transform="matrix(-1 0 0 1 36.5225 8)"/>
</clipPath>
</defs>
</svg>
