<svg width="201" height="169" viewBox="0 0 201 169" fill="none" xmlns="http://www.w3.org/2000/svg">
<path d="M111.25 167.276C155.56 167.276 191.484 131.353 191.484 86.8838C191.484 42.4148 155.402 6.49149 111.25 6.49149C66.9389 6.49149 31.0156 42.4148 31.0156 86.8838C31.0156 131.353 66.9389 167.276 111.25 167.276Z" fill="#F1F3F9" stroke="#D6DFE8" stroke-width="3.16505" stroke-miterlimit="10"/>
<path d="M186.261 34.1841C189.845 34.1841 192.75 31.2792 192.75 27.6958C192.75 24.1123 189.845 21.2074 186.261 21.2074C182.678 21.2074 179.773 24.1123 179.773 27.6958C179.773 31.2792 182.678 34.1841 186.261 34.1841Z" fill="#F1F3F9"/>
<path d="M195.759 8.86214C198.207 8.86214 200.19 6.87828 200.19 4.43107C200.19 1.98386 198.207 0 195.759 0C193.312 0 191.328 1.98386 191.328 4.43107C191.328 6.87828 193.312 8.86214 195.759 8.86214Z" fill="#F1F3F9"/>
<path d="M35.2904 34.0255C37.7376 34.0255 39.7215 32.0417 39.7215 29.5945C39.7215 27.1473 37.7376 25.1634 35.2904 25.1634C32.8432 25.1634 30.8593 27.1473 30.8593 29.5945C30.8593 32.0417 32.8432 34.0255 35.2904 34.0255Z" fill="#F1F3F9"/>
<path d="M8.22901 119.484C12.7738 119.484 16.4581 115.8 16.4581 111.255C16.4581 106.71 12.7738 103.026 8.22901 103.026C3.68419 103.026 -0.00012207 106.71 -0.00012207 111.255C-0.00012207 115.8 3.68419 119.484 8.22901 119.484Z" fill="#F1F3F9"/>
<path d="M165.85 46.6824L167.116 148.597C167.116 152.079 164.267 154.769 160.785 154.769H61.4029C57.9213 154.769 55.0728 151.92 55.0728 148.597V17.5639C55.0728 14.0824 57.9213 11.3921 61.4029 11.3921H133.408L165.85 46.6824Z" fill="white" stroke="#D6DFE8" stroke-width="3.16505" stroke-miterlimit="10"/>
<path d="M103.496 134.362H84.0308C83.2395 134.362 82.6065 133.571 82.6065 132.622C82.6065 131.672 83.2395 130.881 84.0308 130.881H103.496C104.287 130.881 104.92 131.672 104.92 132.622C104.92 133.729 104.287 134.362 103.496 134.362Z" fill="#D6DCE8"/>
<path d="M92.4188 134.362H71.213C70.4217 134.362 69.7887 133.571 69.7887 132.622C69.7887 131.672 70.4217 130.881 71.213 130.881H92.4188C93.2101 130.881 93.8431 131.672 93.8431 132.622C93.8431 133.729 93.2101 134.362 92.4188 134.362Z" fill="#D5DDEA"/>
<path d="M119.48 32.7581H71.846C70.7382 32.7581 69.7887 31.8085 69.7887 30.7008C69.7887 29.593 70.7382 28.6435 71.846 28.6435H119.48C120.588 28.6435 121.537 29.593 121.537 30.7008C121.537 31.8085 120.588 32.7581 119.48 32.7581Z" fill="#D6DCE8"/>
<path d="M90.2033 44.1572H71.846C70.7382 44.1572 69.7887 43.2077 69.7887 42.0999C69.7887 40.9922 70.7382 40.0427 71.846 40.0427H90.045C91.1528 40.0427 92.1023 40.9922 92.1023 42.0999C92.1023 43.2077 91.1528 44.1572 90.2033 44.1572Z" fill="#D6DCE8"/>
<path d="M133.406 11.3921V39.561C133.406 43.5173 136.887 46.6824 140.843 46.6824H165.847" fill="#D6DCE8"/>
<path d="M151.56 106.967H96.7041H90.6582H72.373C71.6357 106.967 70.8984 107.707 70.8984 108.742C70.8984 109.63 71.4882 110.517 72.373 110.517H90.6582H96.7041H151.56C152.297 110.517 153.034 109.778 153.034 108.742C152.887 107.707 152.297 106.967 151.56 106.967Z" fill="#D6DCE8"/>
<path d="M151.412 94.1052H131.063H124.132H72.373C71.6357 94.1052 70.8984 94.8448 70.8984 95.8802C70.8984 96.7677 71.4882 97.6552 72.373 97.6552H124.132H131.063H151.412C152.15 97.6552 152.887 96.9156 152.887 95.8802C152.739 94.8448 152.15 94.1052 151.412 94.1052Z" fill="#D6DCE8"/>
<path d="M151.855 81.0867H146.546H141.237H72.373C71.6357 81.0867 70.8984 81.8263 70.8984 82.8617C70.8984 83.7492 71.4882 84.6367 72.373 84.6367H141.237H147.136H151.707C152.445 84.6367 153.182 83.8971 153.182 82.8617C153.329 81.9742 152.592 81.0867 151.855 81.0867Z" fill="#D6DCE8"/>
<path d="M94.0516 135.667H72.3748C71.6375 135.667 70.9001 134.927 70.9001 133.892C70.9001 133.004 71.49 132.117 72.3748 132.117H94.0516C94.7889 132.117 95.5262 132.856 95.5262 133.892C95.5262 135.075 94.7889 135.667 94.0516 135.667Z" fill="#E3EAF2"/>
<path d="M152.444 68.2174H135.192H130.915H72.373C71.6357 68.2174 70.8984 68.957 70.8984 69.9924C70.8984 70.8799 71.4882 71.7674 72.373 71.7674H130.915H135.192H152.297C153.329 71.7674 153.919 71.0278 153.919 69.9924C153.919 69.1049 153.329 68.2174 152.444 68.2174Z" fill="#D6DCE8"/>
<path d="M73.5514 143.506H38.7506C34.9166 143.506 31.8199 140.399 31.8199 136.554V88.1856C31.8199 74.7254 42.732 63.9276 56.0035 63.9276C69.2751 63.9276 80.1872 74.8733 80.1872 88.1856V136.702C80.3347 140.399 77.238 143.506 73.5514 143.506ZM45.6813 129.75H66.6208V88.1856C66.6208 82.4169 61.902 77.6837 56.151 77.6837C50.4 77.6837 45.6813 82.4169 45.6813 88.1856V129.75V129.75Z" fill="#D6DCE8" stroke="#AAB2C5" stroke-width="3.16505" stroke-miterlimit="10"/>
<path d="M87.8552 156.672H24.8892C20.6129 156.672 17.0738 153.122 17.0738 148.833V106.973C17.0738 102.684 20.6129 99.1336 24.8892 99.1336H87.8552C92.1316 99.1336 95.6707 102.684 95.6707 106.973V148.833C95.6707 153.122 92.1316 156.672 87.8552 156.672Z" fill="#D6DCE8" stroke="#AAB2C5" stroke-width="3.16505" stroke-miterlimit="10"/>
<path d="M60.9584 129.215C63.0865 127.735 64.5274 125.254 64.5274 122.405C64.5274 117.832 60.8698 114.156 56.2993 114.156C51.7287 114.156 48.0712 117.832 48.0712 122.405C48.0712 125.254 49.512 127.735 51.6401 129.215V135.49C51.6401 138.088 53.6978 140.158 56.2993 140.158C58.9008 140.158 60.9584 138.088 60.9584 135.49V129.215Z" fill="white" stroke="#AAB2C5" stroke-width="3.16505"/>
</svg>
