<svg width="109" height="57" viewBox="0 0 109 57" fill="none" xmlns="http://www.w3.org/2000/svg">
<path d="M57.8535 49.085C57.4392 49.2623 56.9939 49.3544 56.5438 49.3557C56.2866 49.3727 56.0291 49.3284 55.7921 49.2264C55.5551 49.1243 55.3452 48.9674 55.1794 48.7683C54.8875 48.3036 54.7504 47.7568 54.7883 47.2079C54.7343 46.5909 54.9239 45.9773 55.3159 45.5006C55.4972 45.3381 55.7088 45.2137 55.9385 45.1349C56.1681 45.0561 56.411 45.0244 56.6529 45.0417C57.0088 45.0442 57.3636 45.0811 57.7125 45.1519L57.6534 45.8311C57.352 45.7894 57.0481 45.768 56.7439 45.7668C56.594 45.7493 56.4422 45.7644 56.2986 45.8111C56.1551 45.8578 56.0231 45.9351 55.9116 46.0376C55.6871 46.3765 55.5873 46.7841 55.6297 47.1895C55.6059 47.543 55.6716 47.8968 55.8207 48.2176C55.9117 48.3513 56.0363 48.4583 56.1817 48.5276C56.3271 48.597 56.4881 48.6262 56.6484 48.6122C56.9954 48.5978 57.3385 48.5328 57.6671 48.4195L57.8535 49.085Z" fill="black"/>
<path d="M58.2354 49.3059V45.1387H60.8003V45.85H59.0403V46.823H60.4956V47.5206H59.0403V48.5945H60.8003V49.3059H58.2354Z" fill="black"/>
<path d="M63.4189 49.3058C63.1233 48.7551 62.8686 48.2365 62.6231 47.6949C62.4457 47.6949 62.2001 47.6949 62.0455 47.6949V49.3058H61.2314V45.1754C61.6633 45.1247 62.0974 45.0972 62.5321 45.0928C63.378 45.0928 64.1647 45.2993 64.1647 46.3778C64.1877 46.6402 64.1226 46.9027 63.9799 47.1233C63.8372 47.3438 63.6252 47.5096 63.378 47.594C63.6145 48.0851 63.9783 48.7184 64.3376 49.315L63.4189 49.3058ZM62.0546 47.0846C62.3472 47.1013 62.6407 47.0797 62.9278 47.0203C63.0714 46.9955 63.1996 46.9147 63.2847 46.7954C63.3698 46.676 63.4049 46.5277 63.3825 46.3824C63.3825 45.8821 63.0278 45.7949 62.6322 45.7949C62.4457 45.7949 62.2456 45.7949 62.0728 45.7949L62.0546 47.0846Z" fill="black"/>
<path d="M65.415 49.3059V45.85H64.3008V45.1387H67.3387V45.85H66.2336V49.3059H65.415Z" fill="black"/>
<path d="M67.6396 49.3059V45.1387H68.4491V49.3059H67.6396Z" fill="black"/>
<path d="M69.1133 49.3059V45.1387H71.7328V45.85H69.9137V46.8918H71.4099V47.5894H69.9137V49.3059H69.1133Z" fill="black"/>
<path d="M72.1191 49.3059V45.1387H72.9241V49.3059H72.1191Z" fill="black"/>
<path d="M73.5928 49.3059V45.1387H76.1532V45.85H74.4205V46.823H75.8757V47.5206H74.4205V48.5945H76.1759V49.3059H73.5928Z" fill="black"/>
<path d="M76.5938 45.1746C77.0209 45.1053 77.4527 45.0685 77.8853 45.0645C79.2815 45.0645 79.7681 45.7988 79.7681 47.1985C79.7681 48.5983 79.2815 49.3372 77.8853 49.3372C77.454 49.3378 77.0229 49.3163 76.5938 49.2729V45.1746ZM77.4032 48.612C77.5761 48.612 77.667 48.612 77.8125 48.612C78.7221 48.612 78.9495 48.2174 78.9495 47.1847C78.9495 46.1521 78.7221 45.762 77.8125 45.762C77.6762 45.755 77.5396 45.755 77.4032 45.762V48.612Z" fill="black"/>
<path d="M55.165 18.8315V13.5078H55.9518V18.8315H55.165Z" fill="black"/>
<path d="M56.7894 18.0977C57.1995 18.1703 57.6146 18.2102 58.031 18.217C58.4286 18.2557 58.8269 18.1499 59.1542 17.9187C59.226 17.8478 59.2824 17.7627 59.32 17.6687C59.3576 17.5747 59.3755 17.4739 59.3725 17.3726C59.3725 16.854 59.0542 16.6796 58.1446 16.4042C57.2351 16.1288 56.6575 15.7617 56.6575 14.8622C56.6531 14.6578 56.6965 14.4553 56.7842 14.2711C56.8719 14.0869 57.0015 13.9262 57.1623 13.802C57.5456 13.5385 58.0047 13.411 58.4675 13.4395C58.9567 13.4479 59.444 13.5033 59.9228 13.6047L59.8228 14.2655C59.4203 14.1939 59.0126 14.1556 58.604 14.1508C58.2893 14.1257 57.9739 14.1909 57.6944 14.339C57.6159 14.3945 57.5524 14.4689 57.5095 14.5555C57.4666 14.642 57.4458 14.7379 57.4488 14.8346C57.4488 15.3808 57.8672 15.5368 58.7358 15.803C59.6045 16.0692 60.1684 16.4317 60.1684 17.3634C60.1768 17.5875 60.133 17.8106 60.0406 18.0146C59.9482 18.2186 59.8097 18.3979 59.6363 18.5383C59.209 18.8267 58.6982 18.9624 58.1856 18.9238C57.6833 18.916 57.1826 18.8638 56.6894 18.7677L56.7894 18.0977Z" fill="black"/>
<path d="M60.5361 16.1746C60.5361 14.3709 61.2137 13.4209 62.81 13.4209C64.4063 13.4209 65.0839 14.3617 65.0839 16.1746C65.0839 17.9874 64.4017 18.9282 62.81 18.9282C61.2183 18.9282 60.5361 17.9736 60.5361 16.1746ZM64.2835 16.1746C64.2835 14.7702 63.8696 14.1414 62.81 14.1414C61.7504 14.1414 61.3365 14.7702 61.3365 16.1746C61.3365 17.5789 61.7549 18.2077 62.81 18.2077C63.8651 18.2077 64.2835 17.5789 64.2835 16.1746Z" fill="black"/>
<path d="M69.8734 16.6605C69.5159 16.88 69.1048 16.9945 68.6864 16.9909C68.4522 17.0066 68.2174 16.974 67.9961 16.8951C67.7748 16.8162 67.5718 16.6927 67.3994 16.532C67.0995 16.1646 66.9527 15.694 66.9901 15.2194C66.9564 14.7508 67.1067 14.2876 67.4085 13.9298C67.6033 13.7534 67.8314 13.6186 68.0791 13.5334C68.3269 13.4482 68.5891 13.4145 68.8501 13.4342C69.3181 13.4086 69.7806 13.5464 70.1599 13.8243C70.335 13.9981 70.4701 14.2087 70.5558 14.441C70.6414 14.6734 70.6755 14.9219 70.6556 15.1689V17.1424C70.6785 17.3953 70.6451 17.6503 70.5578 17.8885C70.4704 18.1267 70.3313 18.3422 70.1508 18.5192C69.7375 18.8256 69.2297 18.9736 68.7182 18.9368C68.2275 18.9298 67.7385 18.8744 67.2584 18.7716L67.3585 18.1107C67.7625 18.195 68.1738 18.2395 68.5863 18.2438C68.9533 18.2875 69.3228 18.1873 69.6187 17.9639C69.7149 17.8447 69.7869 17.7076 69.8306 17.5603C69.8743 17.4131 69.8888 17.2586 69.8734 17.1057V16.6605ZM69.8734 15.2057C69.8734 14.4805 69.6005 14.1226 68.8319 14.1226C68.0634 14.1226 67.795 14.4805 67.795 15.2057C67.7652 15.5044 67.8498 15.8032 68.0315 16.0409C68.1399 16.1375 68.2671 16.2102 68.4049 16.2545C68.5427 16.2987 68.6881 16.3135 68.8319 16.2979C69.1874 16.2939 69.5396 16.2287 69.8734 16.1052V15.2057Z" fill="black"/>
<path d="M71.2373 16.1746C71.2373 14.3893 71.6057 13.4209 73.1428 13.4209C74.6799 13.4209 75.0437 14.3801 75.0437 16.1746C75.0437 17.969 74.6754 18.9282 73.1428 18.9282C71.6102 18.9282 71.2373 17.9507 71.2373 16.1746ZM74.257 16.1746C74.257 14.9079 74.1842 14.1231 73.1428 14.1231C72.1014 14.1231 72.0195 14.9079 72.0195 16.1746C72.0195 17.4412 72.0877 18.2306 73.1428 18.2306C74.1979 18.2306 74.2661 17.4275 74.2661 16.1746H74.257Z" fill="black"/>
<path d="M75.6172 16.1746C75.6172 14.3893 75.9856 13.4209 77.5227 13.4209C79.0598 13.4209 79.4236 14.3801 79.4236 16.1746C79.4236 17.969 79.0553 18.9282 77.5227 18.9282C75.9901 18.9282 75.6172 17.9507 75.6172 16.1746ZM78.6369 16.1746C78.6369 14.9079 78.5641 14.1231 77.5227 14.1231C76.4813 14.1231 76.4039 14.9079 76.4039 16.1746C76.4039 17.4412 76.4676 18.2306 77.5227 18.2306C78.5778 18.2306 78.6369 17.4275 78.6369 16.1746Z" fill="black"/>
<path d="M80.7876 18.8318V14.3158L79.6916 14.7381L79.4551 14.2011L80.8649 13.5127H81.5743V18.8318H80.7876Z" fill="black"/>
<path d="M57.6659 26.5698C56.8018 26.0604 56.1014 25.8722 55.5648 25.4913C55.1328 25.1838 54.8008 24.7157 54.8008 23.5775C54.8008 22.164 55.3329 21.4297 56.588 21.4297C57.8432 21.4297 58.3708 22.164 58.3708 23.5775C58.405 24.1339 58.244 24.6847 57.916 25.1333C57.7581 25.2924 57.5699 25.4175 57.3628 25.5011C57.1556 25.5847 56.9339 25.6251 56.7108 25.6198C57.1275 25.6945 57.5327 25.8241 57.916 26.0053L57.6659 26.5698ZM57.7432 23.5775C57.7432 22.4761 57.4157 21.985 56.588 21.985C55.7604 21.985 55.4284 22.4761 55.4284 23.5775C55.4284 24.679 55.7558 25.1655 56.588 25.1655C57.4203 25.1655 57.7432 24.6744 57.7432 23.5775Z" fill="black"/>
<path d="M60.6814 25.6568L60.6359 25.4044C60.3764 25.6108 60.0568 25.7253 59.7264 25.7303C59.5885 25.7457 59.4489 25.729 59.3184 25.6816C59.1878 25.6342 59.0698 25.5573 58.9732 25.4567C58.8766 25.3562 58.8042 25.2347 58.7613 25.1015C58.7184 24.9684 58.7063 24.8271 58.7259 24.6885V22.6875H59.3125V24.6472C59.3125 25.0556 59.4854 25.2117 59.831 25.2117C60.0682 25.2081 60.3015 25.1501 60.5131 25.0419V22.6875H61.0998V25.6752L60.6814 25.6568Z" fill="black"/>
<path d="M63.4329 25.6559L63.3692 25.4035C63.1276 25.6124 62.8187 25.725 62.5006 25.7202C62.3755 25.7297 62.2499 25.713 62.1315 25.6711C62.0132 25.6292 61.9047 25.5631 61.8129 25.4769C61.721 25.3907 61.6479 25.2863 61.598 25.1702C61.548 25.0541 61.5225 24.9288 61.5228 24.8023C61.519 24.6696 61.5454 24.5378 61.5997 24.4169C61.6541 24.296 61.7351 24.1892 61.8366 24.1047C62.0693 23.9416 62.3497 23.8623 62.6325 23.8798C62.8371 23.8798 63.0872 23.8798 63.2782 23.9028V23.6504C63.2844 23.5832 63.2767 23.5155 63.2556 23.4515C63.2344 23.3875 63.2003 23.3286 63.1554 23.2786C63.0037 23.17 62.8171 23.1225 62.6325 23.1455C62.3509 23.1506 62.0705 23.1844 61.7957 23.2465L61.7093 22.7508C62.0264 22.6638 62.3538 22.6206 62.6825 22.6223C63.0036 22.5893 63.3258 22.6723 63.592 22.8564C63.6947 22.9525 63.774 23.0713 63.8237 23.2035C63.8733 23.3356 63.8921 23.4776 63.8785 23.6182V25.6743L63.4329 25.6559ZM63.2782 24.3204C63.1282 24.3204 62.9326 24.2975 62.7507 24.2975C62.3232 24.2975 62.1186 24.4535 62.1186 24.7839C62.1182 24.8487 62.1314 24.9128 62.1573 24.9721C62.1832 25.0313 62.2213 25.0843 62.2689 25.1277C62.3166 25.171 62.3729 25.2037 62.4339 25.2236C62.495 25.2434 62.5596 25.25 62.6234 25.2429C62.8595 25.2429 63.0893 25.1656 63.2782 25.0226V24.3204Z" fill="black"/>
<path d="M64.416 25.6557V21.4932H65.0027V25.6557H64.416Z" fill="black"/>
<path d="M65.8707 21.4746C65.9564 21.4746 66.0385 21.509 66.0991 21.5701C66.1596 21.6312 66.1936 21.714 66.1936 21.8005C66.1936 21.8869 66.1596 21.9698 66.0991 22.0309C66.0385 22.092 65.9564 22.1263 65.8707 22.1263C65.7851 22.1263 65.703 22.092 65.6424 22.0309C65.5819 21.9698 65.5479 21.8869 65.5479 21.8005C65.5479 21.714 65.5819 21.6312 65.6424 21.5701C65.703 21.509 65.7851 21.4746 65.8707 21.4746ZM65.5842 25.6556V22.6862H66.1663V25.6739L65.5842 25.6556Z" fill="black"/>
<path d="M68.3134 25.5277C68.0944 25.6441 67.8514 25.707 67.6039 25.7112C67.4974 25.7208 67.3901 25.7059 67.2901 25.6674C67.1902 25.629 67.1002 25.5681 67.027 25.4894C66.9538 25.4107 66.8994 25.3162 66.8677 25.2131C66.8361 25.11 66.8281 25.001 66.8444 24.8943V23.1458H66.3896V22.7144L66.8444 22.6868L66.8854 21.8057H67.4083V22.6868H68.2315V23.1458H67.4083V24.7934C67.4083 25.0136 67.4447 25.1697 67.6676 25.1697C67.8257 25.1699 67.9816 25.1322 68.1223 25.0595L68.3134 25.5277Z" fill="black"/>
<path d="M69.1214 26.8176C69.2942 26.3586 69.4352 25.9502 69.5352 25.6381H69.2215C68.9213 24.812 68.6121 23.7243 68.3438 22.6504H68.9622C69.1623 23.5316 69.3761 24.3714 69.6353 25.1746H69.6808C69.9173 24.4494 70.1674 23.5132 70.3584 22.6504H70.9541C70.6176 24.0643 70.1954 25.4559 69.6899 26.8176H69.1214Z" fill="black"/>
<path d="M58.4211 32.4801C58.3893 31.3694 58.3392 30.2267 58.2847 29.1252H58.2528L57.3433 31.7779H56.6838L55.7243 29.1114H55.6924C55.6424 30.2129 55.5878 31.3557 55.556 32.4663H54.9375C54.9784 31.0895 55.0512 29.7127 55.1285 28.3037H56.0381L56.9885 31.0574H57.0204L57.9663 28.3037H58.8759C58.9486 29.6805 59.0214 31.0849 59.0669 32.4663L58.4211 32.4801Z" fill="black"/>
<path d="M61.3362 32.4809L61.2725 32.2285C61.0332 32.4387 60.7257 32.553 60.4085 32.5497C60.2811 32.5601 60.153 32.5433 60.0325 32.5003C59.912 32.4574 59.8019 32.3894 59.7092 32.3006C59.6165 32.2118 59.5434 32.1044 59.4946 31.9852C59.4459 31.866 59.4225 31.7378 59.4261 31.6089C59.4234 31.4764 59.4501 31.3448 59.5044 31.2241C59.5588 31.1034 59.6392 30.9965 59.7399 30.9113C59.9729 30.7488 60.2531 30.6697 60.5358 30.6864C60.7404 30.6864 60.9906 30.6865 61.1816 30.7094V30.457C61.1872 30.3898 61.1792 30.3223 61.1581 30.2583C61.137 30.1944 61.1032 30.1355 61.0588 30.0852C60.907 29.9766 60.7205 29.9291 60.5358 29.9521C60.2557 29.957 59.9768 29.9908 59.7036 30.0531L59.6126 29.5575C59.9303 29.473 60.2573 29.4298 60.5858 29.429C60.9069 29.396 61.2292 29.4789 61.4954 29.663C61.598 29.7592 61.6773 29.878 61.727 30.0101C61.7767 30.1422 61.7955 30.2842 61.7819 30.4248V32.4809H61.3362ZM61.1816 31.1454C61.036 31.1454 60.8359 31.1224 60.6586 31.1224C60.2038 31.1224 60.0219 31.2785 60.0219 31.6089C60.0215 31.6737 60.0347 31.7378 60.0606 31.797C60.0865 31.8563 60.1246 31.9093 60.1723 31.9527C60.2199 31.996 60.2762 32.0287 60.3373 32.0486C60.3984 32.0684 60.4629 32.075 60.5267 32.0679C60.763 32.0689 60.9931 31.9915 61.1816 31.8476V31.1454Z" fill="black"/>
<path d="M64.1242 32.4809V30.5212C64.1242 30.1403 63.9513 29.9613 63.6239 29.9613C63.3734 29.9685 63.1277 30.0328 62.9054 30.1495V32.4809H62.3232V29.4932H62.7507L62.8008 29.7686C63.0585 29.5572 63.3783 29.4378 63.7103 29.429C63.8486 29.4128 63.9886 29.4289 64.1198 29.4759C64.2509 29.523 64.3696 29.5998 64.4667 29.7004C64.5638 29.8011 64.6367 29.9229 64.6798 30.0564C64.7229 30.1899 64.7351 30.3317 64.7154 30.4707V32.4809H64.1242Z" fill="black"/>
<path d="M66.9758 32.4799L66.9122 32.2275C66.6712 32.438 66.3622 32.5523 66.0436 32.5488C65.9166 32.5584 65.789 32.5411 65.669 32.4979C65.5491 32.4547 65.4395 32.3865 65.3473 32.2978C65.2552 32.2091 65.1825 32.1019 65.134 31.983C65.0855 31.8642 65.0622 31.7364 65.0658 31.6079C65.062 31.4752 65.0883 31.3434 65.1427 31.2225C65.1971 31.1016 65.2781 30.9949 65.3796 30.9104C65.6123 30.7472 65.8926 30.668 66.1754 30.6855C66.3801 30.6855 66.6302 30.6855 66.8212 30.7084V30.456C66.8269 30.3889 66.8189 30.3213 66.7978 30.2574C66.7767 30.1935 66.7429 30.1346 66.6984 30.0843C66.5467 29.9756 66.3601 29.9281 66.1754 29.9512C65.8938 29.9563 65.6135 29.9901 65.3387 30.0521L65.2522 29.5565C65.5699 29.472 65.897 29.4288 66.2255 29.428C66.5465 29.395 66.8688 29.4779 67.135 29.662C67.2377 29.7582 67.3169 29.877 67.3666 30.0091C67.4163 30.1413 67.4351 30.2832 67.4215 30.4239V32.4799H66.9758ZM66.8212 31.1444C66.6711 31.1444 66.4756 31.1215 66.2937 31.1215C65.8662 31.1215 65.6615 31.2775 65.6615 31.6079C65.6612 31.6727 65.6743 31.7368 65.7003 31.7961C65.7262 31.8553 65.7642 31.9083 65.8119 31.9517C65.8596 31.995 65.9158 32.0277 65.9769 32.0476C66.038 32.0674 66.1026 32.074 66.1663 32.0669C66.4025 32.0669 66.6323 31.9896 66.8212 31.8466V31.1444Z" fill="black"/>
<path d="M69.6722 32.3242C69.4656 32.4714 69.2202 32.5529 68.9673 32.5583C68.126 32.5583 67.8213 32.0076 67.8213 31.0254C67.8213 29.9056 68.1669 29.4375 68.9855 29.4375C69.4163 29.4423 69.8439 29.5119 70.2543 29.644V32.7648C70.2626 32.8959 70.243 33.0272 70.1967 33.1499C70.1504 33.2726 70.0786 33.3839 69.986 33.4762C69.7228 33.6684 69.4003 33.7595 69.0765 33.7332C68.7555 33.7286 68.4358 33.6932 68.1214 33.6276L68.1988 33.1274C68.4605 33.1707 68.7249 33.1953 68.9901 33.2008C69.1878 33.2268 69.3882 33.1796 69.554 33.0677C69.6388 32.9652 69.6811 32.8337 69.6722 32.7006V32.3242ZM69.6722 30.0295C69.465 29.992 69.2551 29.9721 69.0446 29.9699C68.5353 29.9699 68.4079 30.3233 68.4079 31.0392C68.4079 31.7552 68.5444 32.081 69.0355 32.081C69.2557 32.0831 69.4735 32.0344 69.6722 31.9387V30.0295Z" fill="black"/>
<path d="M72.9517 32.3248C72.6313 32.4773 72.2827 32.5602 71.9285 32.568C71.0553 32.568 70.5869 32.0173 70.5869 31.026C70.5869 30.2045 70.9598 29.4473 71.8648 29.4473C72.5788 29.4473 72.9972 29.9659 72.9972 30.769C72.9979 30.9232 72.9826 31.077 72.9517 31.2279H71.1781C71.1741 31.4491 71.2429 31.6654 71.3737 31.8429C71.4525 31.917 71.5458 31.9737 71.6476 32.0092C71.7494 32.0448 71.8575 32.0585 71.9649 32.0494C72.2588 32.0437 72.549 31.9814 72.8198 31.8659L72.9517 32.3248ZM72.4469 30.7552C72.4469 30.2963 72.3196 29.9521 71.8421 29.9521C71.3646 29.9521 71.21 30.3422 71.1827 30.7552H72.4469Z" fill="black"/>
<path d="M76.867 32.4805V30.4887C76.867 30.1169 76.6851 29.9471 76.3622 29.9471C76.1195 29.9551 75.883 30.0263 75.6755 30.1536C75.6952 30.2751 75.7058 30.3978 75.7073 30.5208V32.4667H75.1252V30.4887C75.1252 30.1169 74.9524 29.9471 74.625 29.9471C74.3937 29.9494 74.1668 30.011 73.9656 30.1261V32.4667H73.3789V29.479H73.8337L73.8837 29.7544C74.1399 29.5402 74.4607 29.4204 74.7933 29.4148C74.9431 29.4054 75.0928 29.4356 75.2276 29.5024C75.3624 29.5692 75.4776 29.6703 75.5618 29.7957C75.8128 29.5672 76.1339 29.4327 76.4714 29.4148C77.1308 29.4148 77.4764 29.7865 77.4764 30.5162V32.4667L76.867 32.4805Z" fill="black"/>
<path d="M80.1275 32.3248C79.8056 32.4778 79.4554 32.5607 79.0997 32.568C78.2311 32.568 77.7627 32.0173 77.7627 31.026C77.7627 30.2045 78.1356 29.4473 79.0361 29.4473C79.7546 29.4473 80.173 29.9659 80.173 30.769C80.1736 30.9232 80.1584 31.077 80.1275 31.2279H78.3539C78.3478 31.4494 78.4168 31.6664 78.5494 31.8429C78.628 31.9175 78.7212 31.9745 78.8231 32.0101C78.925 32.0457 79.0332 32.0591 79.1407 32.0494C79.4332 32.044 79.7219 31.9817 79.9911 31.8659L80.1275 32.3248ZM79.6227 30.7552C79.6227 30.2963 79.4908 29.9521 79.0179 29.9521C78.5449 29.9521 78.3857 30.3422 78.3584 30.7552H79.6227Z" fill="black"/>
<path d="M82.3556 32.4809V30.5212C82.3556 30.1403 82.1828 29.9613 81.8554 29.9613C81.6049 29.9691 81.3594 30.0334 81.1368 30.1495V32.4809H80.5547V29.4932H80.9867L81.0367 29.7686C81.294 29.5563 81.6141 29.4368 81.9463 29.429C82.0846 29.4128 82.2246 29.4289 82.3558 29.4759C82.4869 29.523 82.6056 29.5998 82.7027 29.7004C82.7998 29.8011 82.8727 29.9229 82.9158 30.0564C82.9589 30.1899 82.9711 30.3317 82.9514 30.4707V32.4809H82.3556Z" fill="black"/>
<path d="M85.035 32.352C84.8161 32.4685 84.5731 32.5314 84.3256 32.5356C83.8435 32.5356 83.5661 32.2648 83.5661 31.7187V29.9793H83.1113V29.5708L83.5661 29.5433L83.6116 28.6621H84.1346V29.5157H84.9577V30.0022H84.1528V31.6498C84.1528 31.8701 84.1892 32.0261 84.412 32.0261C84.5624 32.0228 84.7101 31.9852 84.844 31.916L85.035 32.352Z" fill="black"/>
<path d="M54.9745 38.7488C55.2964 38.8017 55.6217 38.8309 55.9478 38.836C56.2581 38.8674 56.5693 38.7861 56.8255 38.6066C56.8822 38.5515 56.9269 38.4851 56.9566 38.4116C56.9864 38.3381 57.0006 38.2591 56.9983 38.1798C56.9983 37.7713 56.7482 37.6336 56.0387 37.4225C55.3293 37.2114 54.8654 36.9131 54.8654 36.188C54.8625 36.0281 54.8973 35.8699 54.9669 35.7263C55.0365 35.5826 55.1389 35.4578 55.2656 35.3619C55.5642 35.155 55.9228 35.0548 56.2843 35.0773C56.6679 35.0851 57.0499 35.1281 57.4258 35.2058L57.3485 35.7244C57.0333 35.6665 56.7138 35.6358 56.3934 35.6326C56.1459 35.6123 55.8979 35.6649 55.6794 35.7841C55.6188 35.8277 55.5696 35.8856 55.5363 35.9528C55.503 36.02 55.4866 36.0945 55.4884 36.1696C55.4884 36.5964 55.8159 36.7203 56.4935 36.9269C57.1711 37.1334 57.6168 37.4179 57.6168 38.1476C57.6243 38.3232 57.5903 38.498 57.5175 38.6576C57.4447 38.8172 57.3353 38.9571 57.1984 39.0655C56.8659 39.2936 56.467 39.4019 56.066 39.373C55.6721 39.3662 55.2795 39.3247 54.8927 39.2491L54.9745 38.7488Z" fill="black"/>
<path d="M58.5755 40.4846C58.7483 40.0256 58.8893 39.6172 58.9894 39.3097H58.6756C58.3754 38.479 58.0662 37.3913 57.7979 36.3174H58.4072C58.6074 37.1986 58.8256 38.0384 59.0803 38.8416H59.1258C59.3623 38.1164 59.6124 37.1802 59.8034 36.3174H60.3992C60.0677 37.7316 59.6485 39.1234 59.144 40.4846H58.5755Z" fill="black"/>
<path d="M60.6052 38.7493C60.8935 38.8022 61.1855 38.8314 61.4784 38.8365C61.6679 38.853 61.8583 38.8164 62.0287 38.731C62.0738 38.7036 62.1108 38.6644 62.1356 38.6176C62.1605 38.5707 62.1722 38.5179 62.1696 38.4648C62.1696 38.2262 61.9923 38.1481 61.4511 38.0059C60.9963 37.8819 60.5415 37.6892 60.5415 37.1201C60.5363 36.9786 60.5696 36.8384 60.6377 36.7146C60.7059 36.5908 60.8063 36.4882 60.9281 36.4179C61.1746 36.2885 61.451 36.2283 61.7285 36.2435C62.0127 36.2469 62.296 36.2776 62.5744 36.3353L62.5244 36.8264C62.2819 36.7911 62.0372 36.7727 61.7922 36.7713C61.6074 36.7518 61.421 36.7869 61.2555 36.8723C61.2177 36.896 61.1864 36.9291 61.1649 36.9685C61.1434 37.0079 61.1323 37.0522 61.1328 37.0972C61.1328 37.3358 61.3692 37.3909 61.9605 37.5561C62.4789 37.7121 62.7654 37.9416 62.7654 38.4235C62.772 38.5587 62.7456 38.6934 62.6885 38.8158C62.6314 38.9382 62.5454 39.0447 62.438 39.1257C62.1661 39.2965 61.8479 39.3767 61.5284 39.3551C61.1959 39.3556 60.8645 39.3155 60.5415 39.2358L60.6052 38.7493Z" fill="black"/>
<path d="M64.6424 39.1757C64.4221 39.2927 64.1774 39.3556 63.9284 39.3593C63.4509 39.3593 63.1735 39.0885 63.1735 38.5424V36.803H62.7188V36.3716L63.1735 36.3441L63.219 35.4629H63.7374V36.3165H64.5651V36.803H63.7374V38.4506C63.7374 38.6709 63.7784 38.8269 64.0012 38.8269C64.1593 38.8272 64.3152 38.7894 64.456 38.7168L64.6424 39.1757Z" fill="black"/>
<path d="M67.0894 39.1305C66.769 39.283 66.4204 39.3659 66.0662 39.3737C65.193 39.3737 64.7246 38.823 64.7246 37.8317C64.7246 37.0102 65.0975 36.2529 66.0025 36.2529C66.7165 36.2529 67.1349 36.7715 67.1349 37.5747C67.1356 37.7288 67.1203 37.8826 67.0894 38.0336H65.3249C65.3209 38.2548 65.3897 38.4711 65.5205 38.6486C65.599 38.7232 65.6923 38.7801 65.7942 38.8157C65.8961 38.8513 66.0043 38.8647 66.1117 38.8551C66.4042 38.8497 66.693 38.7874 66.9621 38.6715L67.0894 39.1305ZM66.5846 37.5609C66.5846 37.102 66.4573 36.7578 65.9798 36.7578C65.5023 36.7578 65.3477 37.1479 65.3204 37.5609H66.5846Z" fill="black"/>
<path d="M71.0057 39.3092V37.3266C71.0057 36.9548 70.8238 36.785 70.5009 36.785C70.2582 36.793 70.0216 36.8642 69.8142 36.9915C69.8338 37.113 69.8444 37.2357 69.846 37.3587V39.3092H69.2639V37.3266C69.2639 36.9548 69.0911 36.785 68.7637 36.785C68.531 36.7879 68.3028 36.8494 68.0997 36.964V39.3092H67.5176V36.3169H67.9724L68.0224 36.5923C68.2782 36.3774 68.5992 36.2576 68.9319 36.2526C69.0818 36.2433 69.2315 36.2735 69.3662 36.3403C69.501 36.4071 69.6162 36.5082 69.7005 36.6336C69.9514 36.4051 70.2725 36.2706 70.61 36.2526C71.2695 36.2526 71.6151 36.6244 71.6151 37.3541V39.3092H71.0057Z" fill="black"/>
<path d="M72.0144 38.7493C72.3026 38.8022 72.5946 38.8314 72.8876 38.8365C73.0771 38.853 73.2675 38.8164 73.4378 38.731C73.483 38.7036 73.52 38.6644 73.5448 38.6176C73.5696 38.5707 73.5814 38.5179 73.5788 38.4648C73.5788 38.2262 73.4015 38.1481 72.8603 38.0059C72.3191 37.8636 71.9507 37.6892 71.9507 37.1201C71.9455 36.9786 71.9788 36.8384 72.0469 36.7146C72.115 36.5908 72.2155 36.4882 72.3373 36.4179C72.5838 36.2885 72.8602 36.2283 73.1377 36.2435C73.4219 36.2469 73.7051 36.2776 73.9836 36.3353L73.9335 36.8264C73.691 36.7911 73.4464 36.7727 73.2014 36.7713C73.0166 36.7518 72.8301 36.7869 72.6647 36.8723C72.6268 36.896 72.5956 36.9291 72.5741 36.9685C72.5526 37.0079 72.5415 37.0522 72.5419 37.0972C72.5419 37.3358 72.7784 37.3909 73.3696 37.5561C73.8881 37.7121 74.1746 37.9416 74.1746 38.4235C74.1812 38.5587 74.1547 38.6934 74.0976 38.8158C74.0405 38.9382 73.9545 39.0447 73.8471 39.1257C73.5753 39.2965 73.2571 39.3767 72.9376 39.3551C72.6051 39.3556 72.2737 39.3155 71.9507 39.2358L72.0144 38.7493Z" fill="black"/>
<path d="M84.1119 56.4643H25.2231C25.0653 56.4507 24.9183 56.3779 24.8111 56.2602C24.704 56.1425 24.6445 55.9885 24.6445 55.8286C24.6445 55.6688 24.704 55.5148 24.8111 55.3971C24.9183 55.2794 25.0653 55.2066 25.2231 55.193H84.1119C90.4105 55.1054 96.4216 52.519 100.845 47.9931C105.268 43.4673 107.748 37.366 107.748 31.0092C107.748 24.6523 105.268 18.551 100.845 14.0252C96.4216 9.49934 90.4105 6.91288 84.1119 6.82531H37.8386C37.7513 6.8328 37.6635 6.82192 37.5807 6.79338C37.4979 6.76483 37.4218 6.71924 37.3574 6.65948C37.2929 6.59973 37.2414 6.52712 37.2062 6.44625C37.171 6.36538 37.1528 6.27801 37.1528 6.18968C37.1528 6.10134 37.171 6.01398 37.2062 5.9331C37.2414 5.85223 37.2929 5.77962 37.3574 5.71987C37.4218 5.66011 37.4979 5.61453 37.5807 5.58599C37.6635 5.55744 37.7513 5.54657 37.8386 5.55405H84.1119C90.7431 5.64391 97.0725 8.36532 101.73 13.1293C106.388 17.8933 109 24.3166 109 31.0092C109 37.7017 106.388 44.125 101.73 48.889C97.0725 53.653 90.7431 56.3744 84.1119 56.4643Z" fill="black"/>
<path d="M25.2228 56.4644C19.7021 56.4636 14.3341 54.6353 9.94208 51.2598C5.55007 47.8842 2.3766 43.1479 0.908419 37.7773C-0.559761 32.4066 -0.241578 26.6982 1.81416 21.5276C3.8699 16.357 7.54968 12.0098 12.2891 9.15256C12.3598 9.10923 12.4383 9.08043 12.5201 9.06782C12.6018 9.0552 12.6853 9.05903 12.7656 9.07908C12.8459 9.09912 12.9215 9.13499 12.988 9.18462C13.0545 9.23425 13.1106 9.29666 13.1532 9.36827C13.2385 9.51394 13.2634 9.6877 13.2226 9.85182C13.1817 10.0159 13.0783 10.1572 12.9349 10.2448C8.43062 12.9573 4.93272 17.0863 2.97795 21.9983C1.02318 26.9103 0.71952 32.3339 2.11358 37.4369C3.50764 42.5398 6.52239 47.0402 10.6952 50.2474C14.8681 53.4546 19.9684 55.1915 25.2137 55.1915C30.459 55.1915 35.5594 53.4546 39.7322 50.2474C43.905 47.0402 46.9198 42.5398 48.3138 37.4369C49.7079 32.3339 49.4042 26.9103 47.4495 21.9983C45.4947 17.0863 41.9968 12.9573 37.4925 10.2448C37.3499 10.1564 37.2474 10.0149 37.2074 9.8508C37.1674 9.68674 37.1931 9.51339 37.2788 9.36827C37.3213 9.29666 37.3775 9.23425 37.444 9.18462C37.5105 9.13499 37.5861 9.09912 37.6664 9.07908C37.7467 9.05903 37.8301 9.0552 37.9119 9.06782C37.9937 9.08043 38.0722 9.10923 38.1429 9.15256C42.8813 12.0091 46.5605 16.3552 48.6165 21.5244C50.6725 26.6937 50.9918 32.4007 49.5254 37.7707C48.0589 43.1406 44.8878 47.8769 40.498 51.2535C36.1083 54.6301 30.7423 56.4606 25.2228 56.4644Z" fill="black"/>
<path d="M20.1023 4.91657C19.2419 4.92131 18.4008 5.17452 17.6784 5.64629V0.464844H15.6592V14.4947H16.8461L17.1736 13.742C18.0119 14.3932 19.0445 14.7378 20.1023 14.7195C22.7355 14.7195 23.7132 12.8838 23.7132 9.81347C23.7132 6.74316 22.7355 4.91657 20.1023 4.91657ZM19.6476 6.69267C21.4212 6.69267 21.6895 8.09245 21.6895 9.81347C21.6895 11.5345 21.4212 12.9434 19.6476 12.9434C18.9601 12.9438 18.2856 12.755 17.6966 12.3973V7.23421C18.2861 6.87831 18.9606 6.6911 19.6476 6.69267ZM26.2873 7.83085C26.2873 6.99098 26.9603 6.67431 28.0245 6.67431C28.9696 6.66613 29.9072 6.84384 30.785 7.19751V5.36174C29.8948 5.01289 28.9419 4.85654 27.9881 4.9028C25.3322 4.9028 24.3226 6.27963 24.3226 7.87674C24.3226 9.47386 24.9911 10.3596 27.7152 10.6304C28.9249 10.7359 29.216 11.0893 29.216 11.7869C29.216 12.6084 28.5111 12.948 27.0649 12.948C26.1452 12.9371 25.2349 12.7599 24.3772 12.4248V14.2193C25.3319 14.567 26.341 14.7381 27.356 14.7241C30.2483 14.7241 31.2079 13.3198 31.2079 11.7089C31.2079 9.9695 30.4985 9.12505 27.7926 8.8864C26.6147 8.77626 26.2873 8.49172 26.2873 7.83544M34.4004 14.6278C34.5333 14.6272 34.6659 14.6133 34.7961 14.5864V12.8884C34.2185 12.8884 34.0366 12.6956 34.0366 12.1724V5.14145H32.0129V12.1954C32.0129 13.8017 32.7587 14.6278 34.4004 14.6278ZM31.7082 2.36946C31.7171 2.63074 31.8021 2.88358 31.9525 3.09643C32.103 3.30927 32.3122 3.47268 32.5541 3.56628C32.796 3.65987 33.0598 3.67949 33.3127 3.62269C33.5656 3.5659 33.7963 3.4352 33.976 3.24692C34.1558 3.05863 34.2766 2.82111 34.3234 2.56397C34.3702 2.30683 34.3409 2.04147 34.2392 1.80102C34.1375 1.56057 33.9678 1.35569 33.7514 1.21192C33.5351 1.06816 33.2815 0.99189 33.0225 0.992636C32.6694 1.00571 32.3351 1.15651 32.0899 1.41331C31.8448 1.67011 31.7079 2.01288 31.7082 2.36946Z" fill="black"/>
<path d="M10.9561 28.529C10.4937 27.8361 10.2583 27.0142 10.283 26.1792V25.3347C10.283 21.0161 13.8757 17.5328 18.2871 17.5328C19.5744 17.5174 20.8451 17.8267 21.984 18.4326C23.1228 19.0385 24.0937 19.9218 24.8085 21.0024L25.2906 21.7229L25.7727 21.0024C26.7166 19.6095 28.0748 18.5555 29.6512 17.9926C31.2275 17.4296 32.9403 17.3869 34.5423 17.8707C36.1443 18.3544 37.5524 19.3394 38.5633 20.6836C39.5742 22.0277 40.1356 23.6614 40.1663 25.3485V26.2021C40.1663 26.9273 40.0981 27.3678 39.4295 28.5657C38.8247 29.6625 27.7327 48.3001 25.2315 52.5085C22.7166 48.2725 11.5382 29.5065 10.9561 28.529ZM23.4215 46.6203L25.2406 49.7687L27.6963 45.4822L26.4002 45.8034C26.0258 45.865 25.6472 45.8972 25.2679 45.8998C24.8582 45.8948 24.4495 45.861 24.0445 45.7988L22.8303 45.5694L23.4215 46.6203ZM20.1152 40.879L20.7246 41.907C21.5432 43.3068 23.5215 44.0641 24.9677 44.0641C27.5554 44.0641 29.3608 42.4624 29.3608 40.1768C29.3608 37.7582 28.0465 36.799 25.8954 35.4314C24.2037 34.3621 22.2845 33.1367 22.2572 30.6217V30.5483C22.2714 29.735 22.4788 28.937 22.8621 28.2215L23.3169 27.4046H12.4023L20.1152 40.879ZM27.3553 27.4046C26.5048 27.4009 25.6873 27.7364 25.0809 28.3381C24.4744 28.9398 24.1281 29.7589 24.1173 30.6171C24.1582 32.0307 25.1951 32.7604 26.8868 33.8297C28.4194 34.8027 30.1567 35.9041 30.8843 37.9602L31.2982 39.1534L38.0379 27.4046H27.3553ZM32.2941 19.2584C30.7526 19.2466 29.264 19.8249 28.1281 20.8766C26.9923 21.9284 26.2936 23.3754 26.1729 24.9263L26.1319 25.5229H38.4609L38.4199 24.9263C38.2981 23.375 37.5985 21.9279 36.4619 20.8763C35.3253 19.8247 33.8361 19.2466 32.2941 19.2584ZM18.2871 19.2584C16.7463 19.2478 15.2588 19.8266 14.124 20.8782C12.9891 21.9298 12.291 23.3762 12.1703 24.9263L12.1294 25.5229H24.4538L24.4129 24.9263C24.2921 23.3746 23.5928 21.9269 22.4559 20.875C21.3191 19.8232 19.8293 19.2455 18.2871 19.2584Z" fill="black"/>
<path d="M37.5517 13.6915C37.5517 13.8968 37.4913 14.0975 37.3781 14.2682C37.265 14.4389 37.1042 14.5718 36.9161 14.6502C36.7281 14.7286 36.5212 14.7488 36.3217 14.7084C36.1222 14.668 35.9391 14.5688 35.7955 14.4233C35.652 14.2778 35.5544 14.0925 35.5153 13.891C35.4761 13.6895 35.4972 13.4808 35.5756 13.2914C35.6541 13.102 35.7866 12.9403 35.9562 12.8269C36.1258 12.7135 36.325 12.6534 36.5284 12.6543C36.8002 12.6555 37.0605 12.7653 37.2522 12.9597C37.444 13.1541 37.5517 13.4172 37.5517 13.6915Z" fill="#E42313"/>
</svg>
