<svg width="110" height="57" viewBox="0 0 110 57" fill="none" xmlns="http://www.w3.org/2000/svg">
<path d="M84.3582 56.4624H25.2981C25.2106 56.4699 25.1226 56.459 25.0395 56.4305C24.9564 56.4019 24.8801 56.3563 24.8155 56.2966C24.7508 56.2368 24.6992 56.1642 24.6639 56.0833C24.6286 56.0025 24.6104 55.9151 24.6104 55.8268C24.6104 55.7385 24.6286 55.6511 24.6639 55.5702C24.6992 55.4894 24.7508 55.4168 24.8155 55.357C24.8801 55.2973 24.9564 55.2517 25.0395 55.2231C25.1226 55.1946 25.2106 55.1837 25.2981 55.1912H84.3582C90.6756 55.1036 96.7047 52.5172 101.141 47.9916C105.578 43.4659 108.065 37.3649 108.065 31.0082C108.065 24.6516 105.578 18.5505 101.141 14.0249C96.7047 9.4992 90.6756 6.91283 84.3582 6.82526H37.9467C37.7884 6.81172 37.6409 6.73888 37.5335 6.62118C37.426 6.50348 37.3664 6.34948 37.3664 6.18965C37.3664 6.02983 37.426 5.87583 37.5335 5.75812C37.6409 5.64042 37.7884 5.5676 37.9467 5.55405H84.3582C87.7091 5.50878 91.0356 6.13372 94.1446 7.3926C97.2535 8.65148 100.083 10.5192 102.468 12.8873C104.854 15.2555 106.748 18.0768 108.041 21.1876C109.334 24.2983 110 27.6365 110 31.0082C110 34.38 109.334 37.7181 108.041 40.8289C106.748 43.9396 104.854 46.761 102.468 49.1291C100.083 51.4972 97.2535 53.365 94.1446 54.6238C91.0356 55.8827 87.7091 56.5077 84.3582 56.4624Z" fill="black"/>
<path d="M59.1666 49.3541C58.7526 49.5315 58.3075 49.6236 57.8575 49.6249C57.5995 49.6423 57.3412 49.5981 57.1034 49.496C56.8656 49.394 56.6551 49.2368 56.4891 49.0375C56.1963 48.5728 56.0588 48.026 56.0968 47.4771C56.0434 46.861 56.2316 46.2482 56.6214 45.7699C56.8055 45.6109 57.0194 45.4904 57.2505 45.4155C57.4815 45.3407 57.7251 45.3129 57.967 45.334C58.324 45.3344 58.6801 45.3713 59.0298 45.4441L58.9705 46.1187C58.6681 46.0773 58.3633 46.0558 58.0582 46.0545C57.9076 46.0376 57.7551 46.0534 57.6111 46.1009C57.4671 46.1484 57.3349 46.2265 57.2235 46.3298C56.9914 46.6612 56.8817 47.0638 56.9133 47.468C56.8895 47.8229 56.9554 48.1781 57.1049 48.5005C57.1968 48.6334 57.3219 48.7395 57.4677 48.808C57.6135 48.8765 57.7747 48.905 57.935 48.8906C58.283 48.8757 58.6271 48.8108 58.9568 48.6979L59.1666 49.3541Z" fill="black"/>
<path d="M59.5547 49.5599V45.3975H62.1227V46.0904H60.362V47.0587H61.8217V47.7563H60.362V48.844H62.1227V49.5553L59.5547 49.5599Z" fill="black"/>
<path d="M64.7484 49.5607C64.4564 49.01 64.1964 48.496 63.9547 47.9499C63.7722 47.9499 63.5305 47.9499 63.3754 47.9499V49.5791H62.5635V45.4488C62.9966 45.3983 63.432 45.3707 63.868 45.3662C64.7164 45.3662 65.5101 45.5727 65.5101 46.6512C65.5336 46.9143 65.468 47.1776 65.3239 47.3984C65.1798 47.6192 64.9657 47.7845 64.7164 47.8673C64.9582 48.3584 65.3231 48.9963 65.6834 49.5883L64.7484 49.5607ZM63.3799 47.3442C63.6734 47.3609 63.9678 47.3393 64.2557 47.2799C64.3996 47.253 64.5275 47.171 64.6126 47.0512C64.6976 46.9314 64.7332 46.7831 64.7119 46.6374C64.7119 46.1418 64.3606 46.05 63.9638 46.05C63.7768 46.05 63.5761 46.05 63.4028 46.05L63.3799 47.3442Z" fill="black"/>
<path d="M66.7582 49.5597V46.0902H65.6406V45.3789H68.6876V46.0902H67.5655V49.5413L66.7582 49.5597Z" fill="black"/>
<path d="M68.9863 49.5599V45.3975H69.7937V49.5599H68.9863Z" fill="black"/>
<path d="M70.4658 49.5599V45.3975H73.0931V46.0904H71.2686V47.1322H72.7738V47.8297H71.2686V49.5415L70.4658 49.5599Z" fill="black"/>
<path d="M73.4746 49.5599V45.3975H74.2865V49.5599H73.4746Z" fill="black"/>
<path d="M74.958 49.5599V45.3975H77.526V46.0904H75.7654V47.0587H77.225V47.7563H75.7654V48.844H77.526V49.5553L74.958 49.5599Z" fill="black"/>
<path d="M77.9688 45.449C78.396 45.3822 78.8273 45.3454 79.2596 45.3389C80.6645 45.3389 81.1526 46.0777 81.1526 47.4729C81.1526 48.868 80.6645 49.616 79.2596 49.616C78.8285 49.6149 78.3976 49.5919 77.9688 49.5472V45.449ZM78.7807 48.8909C78.954 48.8909 79.0452 48.8909 79.1912 48.8909C80.1035 48.8909 80.327 48.5008 80.327 47.4637C80.327 46.4265 80.1035 46.041 79.1912 46.041C79.0545 46.0339 78.9174 46.0339 78.7807 46.041V48.8909Z" fill="black"/>
<path d="M56.458 19.106V13.7871H57.2471V19.106H56.458Z" fill="black"/>
<path d="M58.0955 18.3631C58.507 18.4337 58.9234 18.4721 59.3408 18.4779C59.7398 18.519 60.1402 18.413 60.4674 18.1796C60.5411 18.1098 60.5992 18.025 60.6377 17.9308C60.6763 17.8366 60.6944 17.7352 60.6909 17.6335C60.6909 17.1149 60.367 16.9405 59.4593 16.6697C58.5516 16.399 57.9632 16.0226 57.9632 15.1232C57.9585 14.919 58.0025 14.7166 58.0913 14.533C58.1802 14.3494 58.3115 14.1898 58.4741 14.0676C58.8568 13.8042 59.3158 13.6766 59.7786 13.7051C60.2693 13.7136 60.758 13.7689 61.2383 13.8703L61.1425 14.5312C60.7377 14.4558 60.3271 14.4159 59.9155 14.4118C59.5992 14.3847 59.2819 14.4518 59.0032 14.6046C58.9242 14.6598 58.8602 14.7342 58.8172 14.8208C58.7742 14.9074 58.7534 15.0035 58.7569 15.1002C58.7569 15.6463 59.172 15.8024 60.0432 16.064C60.9144 16.3255 61.4754 16.6927 61.4754 17.6381C61.4842 17.8616 61.4404 18.0841 61.3477 18.2874C61.255 18.4907 61.1159 18.6692 60.9418 18.8083C60.5159 19.0993 60.0047 19.2368 59.4913 19.1984C58.986 19.1909 58.4823 19.1387 57.986 19.0423L58.0955 18.3631Z" fill="black"/>
<path d="M61.8545 16.4449C61.8545 14.646 62.5387 13.6914 64.1352 13.6914C65.7316 13.6914 66.4159 14.6322 66.4159 16.4449C66.4159 18.2577 65.7362 19.1985 64.1352 19.1985C62.5341 19.1985 61.8545 18.2485 61.8545 16.4449ZM65.6176 16.4449C65.6176 15.0406 65.198 14.4119 64.1397 14.4119C63.0815 14.4119 62.6619 15.0406 62.6619 16.4449C62.6619 17.8493 63.0769 18.478 64.1397 18.478C65.2025 18.478 65.6176 17.8493 65.6176 16.4449Z" fill="black"/>
<path d="M66.6113 19.106L68.6639 13.7871H69.3025L67.2682 19.106H66.6113Z" fill="black"/>
<path d="M69.7734 19.106V13.7871H70.558V19.106H69.7734Z" fill="black"/>
<path d="M71.4531 19.106V13.7871H74.5959V14.4893H72.2377V16.0175H74.1671V16.7196H72.2377V18.4131H74.5959V19.1152L71.4531 19.106Z" fill="black"/>
<path d="M78.8079 18.7848C78.28 19.0425 77.7023 19.1804 77.1156 19.1887C76.7883 19.2125 76.4602 19.1555 76.1597 19.0227C75.8592 18.89 75.5955 18.6854 75.3915 18.4269C75.0258 17.8339 74.8535 17.1407 74.8988 16.4443C74.8492 15.7086 75.0557 14.9785 75.4827 14.3792C75.7084 14.1401 75.9846 13.9554 76.291 13.8386C76.5974 13.7218 76.9261 13.676 77.2525 13.7045C77.7128 13.7081 78.1715 13.7604 78.6209 13.8606L78.5479 14.5306C78.1359 14.4519 77.7175 14.412 77.2981 14.4113C77.07 14.3849 76.839 14.4127 76.6235 14.4924C76.4081 14.5721 76.2142 14.7015 76.0574 14.8702C75.7802 15.3371 75.6543 15.8792 75.6971 16.4214C75.6584 16.936 75.7643 17.4512 76.0027 17.9083C76.1284 18.0919 76.3 18.2391 76.5002 18.335C76.7003 18.4308 76.922 18.472 77.143 18.4544C77.6378 18.4397 78.1254 18.3307 78.5798 18.1331L78.8079 18.7848Z" fill="black"/>
<path d="M56.3699 27.7343V27.1056C57.8295 25.8252 58.8741 24.811 58.8741 23.9436C58.8741 23.2828 58.3814 23.0258 57.8295 23.0258C57.3704 23.041 56.9178 23.1389 56.493 23.3149L56.2695 22.6862C56.7775 22.4495 57.3291 22.3229 57.8888 22.3145C58.9471 22.3145 59.6769 22.8514 59.6769 23.9023C59.6769 25.0588 58.5183 26.0547 57.3962 27.0138H59.7498V27.7343H56.3699Z" fill="black"/>
<path d="M60.9424 27.7339C61.3527 26.1139 61.9804 24.5577 62.808 23.108H60.167V22.415H63.6199V23.0667C62.7838 24.5222 62.1688 26.0953 61.7954 27.7339H60.9424Z" fill="black"/>
<path d="M64.0381 25.068C64.0381 23.2828 64.4076 22.3145 65.9493 22.3145C67.491 22.3145 67.8559 23.2736 67.8559 25.068C67.8559 26.8624 67.4865 27.8215 65.9493 27.8215C64.4121 27.8215 64.0381 26.844 64.0381 25.068ZM67.0668 25.068C67.0668 23.8014 66.9938 23.0166 65.9493 23.0166C64.9047 23.0166 64.8272 23.8014 64.8272 25.068C64.8272 26.3346 64.8911 27.124 65.9493 27.124C67.0075 27.124 67.0668 26.3209 67.0668 25.068Z" fill="black"/>
<path d="M68.4209 25.068C68.4209 23.2828 68.7904 22.3145 70.3367 22.3145C71.883 22.3145 72.2387 23.2736 72.2387 25.068C72.2387 26.8624 71.8693 27.8215 70.3367 27.8215C68.8041 27.8215 68.4209 26.844 68.4209 25.068ZM71.4496 25.068C71.4496 23.8014 71.3766 23.0166 70.3367 23.0166C69.2967 23.0166 69.21 23.8014 69.21 25.068C69.21 26.3346 69.2784 27.124 70.3367 27.124C71.3949 27.124 71.4496 26.3209 71.4496 25.068Z" fill="black"/>
<path d="M73.6223 27.7339V23.2182L72.523 23.6358L72.2812 23.0988L73.6953 22.415H74.4114V27.7339H73.6223Z" fill="black"/>
<path d="M56.3193 34.5482V30.3857H56.9351V34.5482H56.3193Z" fill="black"/>
<path d="M59.3864 34.5491V32.5895C59.3864 32.2086 59.2131 32.0296 58.8846 32.0296C58.6338 32.0359 58.3875 32.0986 58.1639 32.2132V34.5491H57.5801V31.5616H58.0362L58.0864 31.8323C58.3459 31.6232 58.6663 31.5055 58.9987 31.4973C59.1373 31.4811 59.2778 31.4972 59.4094 31.5443C59.5409 31.5913 59.6599 31.6682 59.7573 31.7688C59.8547 31.8694 59.9278 31.9912 59.971 32.1247C60.0143 32.2583 60.0265 32.4 60.0067 32.5391V34.5491H59.3864Z" fill="black"/>
<path d="M60.6866 34.5481V32.047H60.2305V31.611L60.6866 31.5881V31.2623C60.6758 31.1337 60.6904 31.0042 60.7295 30.8814C60.7686 30.7585 60.8316 30.6446 60.9147 30.5463C61.1302 30.3752 61.4032 30.2946 61.6764 30.3215C61.8178 30.3215 61.9684 30.3215 62.1098 30.3444L62.0778 30.8355C61.9319 30.8355 61.795 30.8355 61.681 30.8355C61.567 30.8355 61.4164 30.8355 61.3617 30.941C61.2841 31.0551 61.2515 31.1942 61.2705 31.3311V31.5743H61.9319V32.0608H61.2841V34.5619L60.6866 34.5481Z" fill="black"/>
<path d="M63.3632 34.6176C63.1925 34.6289 63.0214 34.6054 62.8599 34.5487C62.6985 34.4919 62.5501 34.403 62.4235 34.2872C62.1684 33.9293 62.0312 33.5 62.0312 33.0596C62.0312 32.6192 62.1684 32.1899 62.4235 31.832C62.6907 31.6183 63.0219 31.502 63.3632 31.502C63.7045 31.502 64.0357 31.6183 64.3028 31.832C64.5579 32.1899 64.6951 32.6192 64.6951 33.0596C64.6951 33.5 64.5579 33.9293 64.3028 34.2872C64.1763 34.403 64.0279 34.4919 63.8664 34.5487C63.705 34.6054 63.5338 34.6289 63.3632 34.6176ZM64.1021 33.0619C64.1287 32.7676 64.0546 32.4729 63.8923 32.2267C63.8247 32.1552 63.7422 32.0996 63.6507 32.0639C63.5592 32.0282 63.4611 32.0132 63.3632 32.0201C63.2659 32.0126 63.1683 32.0273 63.0774 32.063C62.9866 32.0988 62.905 32.1547 62.8386 32.2267C62.6726 32.4714 62.5968 32.7668 62.6242 33.0619C62.5947 33.3556 62.6707 33.6504 62.8386 33.8925C62.9047 33.965 62.9862 34.0216 63.077 34.0582C63.1678 34.0947 63.2656 34.1103 63.3632 34.1036C63.4612 34.1084 63.5592 34.0921 63.6504 34.0556C63.7417 34.0192 63.8241 33.9636 63.8923 33.8925C64.0574 33.6475 64.1317 33.3519 64.1021 33.0573V33.0619Z" fill="black"/>
<path d="M65.0869 34.5477V31.5601H65.5202L65.5978 31.9273H65.6251C65.7196 31.7825 65.8514 31.6663 66.0065 31.5911C66.1616 31.5159 66.3341 31.4846 66.5055 31.5005C66.5906 31.4946 66.6759 31.4946 66.7609 31.5005L66.7244 32.0374C66.6066 32.0204 66.4877 32.0128 66.3686 32.0145C66.1168 32.0034 65.8694 32.0832 65.6708 32.2393V34.534L65.0869 34.5477Z" fill="black"/>
<path d="M70.478 34.5486V32.5707C70.478 32.1943 70.2956 32.0291 69.9672 32.0291C69.7252 32.0377 69.4896 32.1088 69.283 32.2356C69.3026 32.3571 69.3133 32.4798 69.3149 32.6028V34.5486H68.7265V32.5707C68.7265 32.1943 68.5531 32.0291 68.2293 32.0291C67.9958 32.0306 67.7665 32.0922 67.5633 32.2081V34.5486H66.9795V31.561H67.4037L67.4539 31.8318C67.7121 31.6205 68.0333 31.5026 68.3661 31.4968C68.5164 31.4874 68.6666 31.5176 68.8018 31.5844C68.9369 31.6512 69.0525 31.7523 69.137 31.8777C69.3887 31.6492 69.7107 31.5147 70.0493 31.4968C70.7106 31.4968 71.0573 31.8639 71.0573 32.5982V34.5486H70.478Z" fill="black"/>
<path d="M73.3328 34.5487L73.269 34.2962C73.0332 34.5016 72.7324 34.6155 72.4206 34.6175C72.2951 34.627 72.1691 34.6103 72.0504 34.5684C71.9317 34.5266 71.8229 34.4605 71.7308 34.3743C71.6387 34.2881 71.5653 34.1837 71.5153 34.0676C71.4652 33.9515 71.4395 33.8262 71.4399 33.6997C71.4357 33.5669 71.462 33.435 71.5165 33.314C71.5711 33.1931 71.6526 33.0864 71.7546 33.0021C71.9857 32.8373 72.2655 32.7564 72.5483 32.7726C72.7581 32.7726 73.0044 32.7726 73.2006 32.8002V32.5478C73.2063 32.4799 73.1984 32.4116 73.1772 32.3469C73.1561 32.2823 73.1221 32.2226 73.0774 32.1715C72.9223 32.0657 72.7343 32.0201 72.5483 32.043C72.2675 32.0467 71.9879 32.079 71.7136 32.1393L71.6223 31.6483C71.9421 31.5619 72.2719 31.5186 72.603 31.5198C72.9251 31.4868 73.2483 31.5697 73.5153 31.7538C73.6183 31.85 73.6978 31.9688 73.7476 32.1009C73.7975 32.233 73.8163 32.375 73.8027 32.5156V34.5716L73.3328 34.5487ZM73.1777 33.2086C73.0272 33.2086 72.8311 33.2086 72.6486 33.2086C72.2199 33.2086 72.0146 33.3646 72.0146 33.6951C72.0142 33.7598 72.0275 33.8239 72.0534 33.8832C72.0794 33.9424 72.1176 33.9955 72.1654 34.0388C72.2133 34.0822 72.2697 34.1148 72.3309 34.1347C72.3922 34.1545 72.4569 34.1611 72.5209 34.154C72.7575 34.1521 72.9874 34.075 73.1777 33.9337V33.2086Z" fill="black"/>
<path d="M75.8936 34.4207C75.6743 34.5378 75.4304 34.6007 75.182 34.6042C74.6985 34.6042 74.4249 34.3289 74.4249 33.7874V32.048H73.9688V31.6121L74.4249 31.5891L74.4705 30.708H74.9905V31.5616H75.8206V32.048H74.9905V33.7002C74.9905 33.9204 75.027 34.0765 75.255 34.0765C75.4041 34.071 75.5503 34.0334 75.6838 33.9663L75.8936 34.4207Z" fill="black"/>
<path d="M76.485 30.3633C76.5717 30.3645 76.6546 30.3997 76.7159 30.4614C76.7773 30.5231 76.8123 30.6064 76.8134 30.6937C76.8134 30.7369 76.8049 30.7796 76.7884 30.8195C76.7718 30.8593 76.7475 30.8954 76.717 30.9257C76.6864 30.9561 76.6502 30.98 76.6103 30.9961C76.5705 31.0122 76.5279 31.0201 76.485 31.0195C76.4423 31.0202 76.3999 31.0121 76.3604 30.996C76.3208 30.9798 76.2849 30.9559 76.2547 30.9255C76.2245 30.8951 76.2006 30.8589 76.1846 30.8191C76.1685 30.7793 76.1606 30.7367 76.1612 30.6937C76.1606 30.6505 76.1685 30.6077 76.1845 30.5676C76.2005 30.5275 76.2242 30.4911 76.2544 30.4603C76.2845 30.4296 76.3204 30.4052 76.36 30.3885C76.3996 30.3718 76.4421 30.3633 76.485 30.3633ZM76.1931 34.5486V31.5611H76.7815V34.5486H76.1931Z" fill="black"/>
<path d="M78.5018 34.6176C78.3312 34.6286 78.1601 34.6051 77.9987 34.5483C77.8373 34.4915 77.6889 34.4028 77.5622 34.2872C77.3071 33.9293 77.1699 33.5 77.1699 33.0596C77.1699 32.6192 77.3071 32.1899 77.5622 31.832C77.8294 31.6183 78.1606 31.502 78.5018 31.502C78.8431 31.502 79.1743 31.6183 79.4415 31.832C79.6966 32.1899 79.8338 32.6192 79.8338 33.0596C79.8338 33.5 79.6966 33.9293 79.4415 34.2872C79.315 34.403 79.1665 34.4919 79.0051 34.5487C78.8436 34.6054 78.6725 34.6289 78.5018 34.6176ZM79.2636 33.0573C79.2924 32.7628 79.2182 32.4674 79.0538 32.2221C78.9861 32.1506 78.9036 32.095 78.8122 32.0593C78.7207 32.0236 78.6225 32.0086 78.5246 32.0155C78.4274 32.008 78.3297 32.0227 78.2389 32.0584C78.1481 32.0942 78.0664 32.1501 78.0001 32.2221C77.834 32.4668 77.7582 32.7623 77.7857 33.0573C77.7561 33.3511 77.8322 33.6458 78.0001 33.8879C78.0662 33.9604 78.1477 34.0171 78.2385 34.0536C78.3293 34.0901 78.4271 34.1057 78.5246 34.099C78.6227 34.1038 78.7206 34.0875 78.8119 34.0511C78.9032 34.0147 78.9856 33.959 79.0538 33.8879C79.22 33.6452 79.2945 33.3505 79.2636 33.0573Z" fill="black"/>
<path d="M82.0329 34.5491V32.5895C82.0329 32.2086 81.8595 32.0296 81.5311 32.0296C81.2802 32.0354 81.0338 32.0982 80.8104 32.2132V34.5491H80.2266V31.5616H80.6553L80.7055 31.8323C80.9655 31.6241 81.2856 31.5065 81.6178 31.4973C81.7564 31.4811 81.8969 31.4972 82.0285 31.5443C82.16 31.5913 82.279 31.6682 82.3764 31.7688C82.4738 31.8694 82.5469 31.9912 82.5902 32.1247C82.6334 32.2583 82.6456 32.4 82.6258 32.5391V34.5491H82.0329Z" fill="black"/>
<path d="M84.3954 33.9662C84.7178 34.0232 85.0443 34.0539 85.3716 34.058C85.6835 34.0902 85.9965 34.007 86.2519 33.824C86.3095 33.7695 86.3548 33.7032 86.3847 33.6296C86.4146 33.5559 86.4284 33.4767 86.4252 33.3972C86.4252 32.9933 86.1744 32.8557 85.4628 32.64C84.7512 32.4243 84.2814 32.1398 84.2814 31.433C84.2785 31.2732 84.3134 31.115 84.3832 30.9714C84.453 30.8277 84.5557 30.7029 84.6828 30.607C84.9823 30.4001 85.342 30.3 85.7045 30.3224C86.0894 30.3278 86.4729 30.3708 86.8494 30.4509L86.7719 30.9649C86.4553 30.911 86.1351 30.8818 85.814 30.8777C85.5663 30.8583 85.3182 30.9092 85.0979 31.0246C85.0364 31.0686 84.9867 31.1272 84.9532 31.1953C84.9198 31.2634 84.9037 31.3388 84.9063 31.4147C84.9063 31.8415 85.2347 31.9654 85.9144 32.1719C86.594 32.3784 87.041 32.6629 87.041 33.3926C87.0485 33.5681 87.0144 33.7429 86.9415 33.9026C86.8685 34.0622 86.7588 34.202 86.6214 34.3104C86.2874 34.5369 85.8873 34.6436 85.4856 34.6133C85.0906 34.608 84.6969 34.5681 84.3088 34.494L84.3954 33.9662Z" fill="black"/>
<path d="M89.6505 34.3735C89.3291 34.5254 88.9793 34.6067 88.6242 34.6122C87.7485 34.6122 87.2832 34.0615 87.2832 33.0748C87.2832 32.2533 87.6527 31.4961 88.5604 31.4961C89.2811 31.4961 89.6961 32.0147 89.6961 32.8178C89.6968 32.9719 89.6815 33.1257 89.6505 33.2767H87.8716C87.8675 33.4986 87.9383 33.7154 88.0723 33.8917C88.1509 33.9652 88.2437 34.0215 88.345 34.057C88.4462 34.0926 88.5538 34.1066 88.6607 34.0982C88.9561 34.0932 89.2476 34.0293 89.5182 33.91L89.6505 34.3735ZM89.1442 32.804C89.1442 32.3451 89.0165 32.0009 88.5421 32.0009C88.0678 32.0009 87.9035 32.391 87.8807 32.804H89.1442Z" fill="black"/>
<path d="M92.1909 34.3735C91.8724 34.5245 91.5257 34.6059 91.1737 34.6122C90.3982 34.6122 89.8965 34.1533 89.8965 33.0702C89.8965 31.799 90.5305 31.4961 91.2649 31.4961C91.5412 31.4949 91.8167 31.5257 92.0859 31.5879L92.0358 32.079C91.8124 32.0428 91.5868 32.0228 91.3607 32.0193C90.786 32.0193 90.4895 32.2442 90.4895 33.0564C90.4895 33.7815 90.7358 34.089 91.2375 34.089C91.5137 34.0826 91.7855 34.0185 92.0358 33.9009L92.1909 34.3735Z" fill="black"/>
<path d="M94.4393 34.5491L94.3936 34.2967C94.1325 34.5016 93.8125 34.616 93.4814 34.6226C93.3431 34.638 93.2031 34.6213 93.0721 34.5739C92.9412 34.5265 92.8228 34.4496 92.7259 34.349C92.6291 34.2485 92.5564 34.127 92.5134 33.9938C92.4704 33.8607 92.4582 33.7194 92.4779 33.5808V31.5615H93.0617V33.5211C93.0617 33.9296 93.2351 34.0856 93.5817 34.0856C93.8211 34.0821 94.0566 34.0241 94.2705 33.9158V31.5615H94.8543V34.5491H94.4393Z" fill="black"/>
<path d="M95.4512 34.5486V31.561H95.9073L95.9848 31.9282H96.0122C96.1067 31.7834 96.2385 31.6672 96.3936 31.592C96.5486 31.5168 96.7212 31.4855 96.8926 31.5014C96.9776 31.4956 97.063 31.4956 97.148 31.5014L97.1115 32.0383C96.9937 32.0213 96.8747 32.0137 96.7557 32.0154C96.5037 32.0026 96.2556 32.0826 96.0578 32.2402V34.5349L95.4512 34.5486Z" fill="black"/>
<path d="M97.6367 30.3633C97.6798 30.3633 97.7225 30.3718 97.7624 30.3884C97.8022 30.405 97.8384 30.4294 97.8689 30.4601C97.8994 30.4907 97.9236 30.5272 97.9401 30.5673C97.9566 30.6073 97.9651 30.6503 97.9651 30.6937C97.9651 30.7369 97.9566 30.7796 97.94 30.8195C97.9235 30.8593 97.8992 30.8954 97.8687 30.9257C97.8381 30.9561 97.8018 30.98 97.762 30.9961C97.7222 31.0122 97.6796 31.0201 97.6367 31.0195C97.5944 31.0195 97.5525 31.0111 97.5134 30.9946C97.4744 30.9782 97.439 30.9541 97.4093 30.9238C97.3796 30.8935 97.3562 30.8575 97.3404 30.818C97.3246 30.7785 97.3168 30.7363 97.3174 30.6937C97.3168 30.6509 97.3246 30.6084 97.3403 30.5687C97.356 30.5289 97.3794 30.4926 97.409 30.4619C97.4387 30.4313 97.474 30.4068 97.5131 30.3898C97.5522 30.3729 97.5942 30.3639 97.6367 30.3633ZM97.3493 34.5486V31.5611H97.9332V34.5486H97.3493Z" fill="black"/>
<path d="M100.086 34.4207C99.8667 34.5378 99.6228 34.6007 99.3745 34.6042C98.891 34.6042 98.6173 34.3289 98.6173 33.7874V32.048H98.1611V31.6121L98.6173 31.5891L98.6629 30.708H99.1829V31.5616H100.013V32.048H99.1829V33.7002C99.1829 33.9204 99.2194 34.0765 99.4474 34.0765C99.5965 34.071 99.7427 34.0334 99.8762 33.9663L100.086 34.4207Z" fill="black"/>
<path d="M100.898 35.7285C101.071 35.2696 101.213 34.8612 101.313 34.5491H100.999C100.697 33.723 100.387 32.6354 100.118 31.5615H100.729C100.93 32.4427 101.149 33.2825 101.404 34.0856H101.45C101.687 33.3605 101.938 32.4243 102.13 31.5615H102.727C102.395 32.9757 101.974 34.3674 101.468 35.7285H100.898Z" fill="black"/>
<path d="M59.7333 41.3733C59.7013 40.2628 59.6512 39.1155 59.601 38.0186H59.5691L58.6294 40.6712H57.968L57.0284 38.0186H56.9964C56.9463 39.1155 56.8915 40.2628 56.8596 41.3733H56.2393C56.2849 39.9966 56.3533 38.6198 56.4308 37.2109H57.3431L58.2964 39.9645H58.3284L59.2771 37.2109H60.1894C60.2669 38.5877 60.3354 39.992 60.381 41.3733H59.7333Z" fill="black"/>
<path d="M62.6572 41.3727L62.5934 41.1203C62.3529 41.3292 62.0444 41.4419 61.7267 41.4369C61.6009 41.4471 61.4744 41.4309 61.3551 41.3893C61.2359 41.3478 61.1265 41.2818 61.0339 41.1955C60.9413 41.1093 60.8675 41.0046 60.8172 40.8882C60.7668 40.7718 60.7411 40.6461 60.7415 40.5191C60.7383 40.3865 60.765 40.2549 60.8195 40.1341C60.874 40.0133 60.9549 39.9065 61.0562 39.8215C61.2893 39.6574 61.5703 39.5767 61.8544 39.5921C62.0597 39.5921 62.3106 39.5921 62.5021 39.6196V39.3672C62.5125 39.2311 62.47 39.0962 62.3835 38.9909C62.2281 38.8859 62.0404 38.8403 61.8544 38.8624C61.5738 38.8684 61.2944 38.9007 61.0197 38.9588L60.9285 38.4677C61.2467 38.3813 61.575 38.3381 61.9046 38.3392C62.2268 38.3033 62.5511 38.3865 62.8169 38.5733C62.9207 38.669 63.001 38.7876 63.0517 38.9197C63.1023 39.0519 63.1219 39.1941 63.1088 39.3351V41.3911L62.6572 41.3727ZM62.5021 40.0372C62.3562 40.0372 62.1555 40.0143 61.9776 40.0143C61.5214 40.0143 61.339 40.1703 61.339 40.5008C61.3385 40.566 61.3519 40.6305 61.3781 40.6901C61.4044 40.7497 61.443 40.803 61.4913 40.8464C61.5397 40.8898 61.5966 40.9224 61.6585 40.9419C61.7203 40.9614 61.7855 40.9675 61.8499 40.9597C62.0853 40.9597 62.3144 40.8823 62.5021 40.7394V40.0372Z" fill="black"/>
<path d="M65.4528 41.3733V39.4138C65.4528 39.0329 65.2794 38.8539 64.951 38.8539C64.6994 38.8587 64.4525 38.9232 64.2303 39.042V41.3733H63.6465V38.3858H64.0753L64.13 38.6565C64.3891 38.4468 64.7098 38.3291 65.0423 38.3215C65.1809 38.3054 65.3214 38.3214 65.453 38.3685C65.5845 38.4156 65.7035 38.4924 65.8009 38.593C65.8983 38.6936 65.9714 38.8154 66.0146 38.949C66.0579 39.0825 66.0701 39.2242 66.0503 39.3633V41.3733H65.4528Z" fill="black"/>
<path d="M68.3164 41.3726L68.2525 41.1202C68.0116 41.3283 67.7035 41.4409 67.3859 41.4368C67.2601 41.447 67.1336 41.4308 67.0143 41.3892C66.8951 41.3477 66.7857 41.2817 66.6931 41.1954C66.6005 41.1091 66.5267 41.0045 66.4764 40.8881C66.426 40.7716 66.4002 40.6459 66.4006 40.519C66.3975 40.3864 66.4242 40.2548 66.4787 40.134C66.5332 40.0132 66.6141 39.9064 66.7154 39.8214C66.9485 39.6573 67.2295 39.5765 67.5136 39.592C67.7189 39.592 67.9697 39.592 68.1613 39.6195V39.3671C68.1671 39.2993 68.1591 39.231 68.138 39.1663C68.1168 39.1016 68.0829 39.0419 68.0382 38.9908C67.8844 38.8857 67.6981 38.8401 67.5136 38.8623C67.233 38.8681 66.9535 38.9003 66.6789 38.9587L66.5877 38.4676C66.9058 38.3806 67.2341 38.3374 67.5638 38.3391C67.8858 38.3061 68.209 38.3891 68.476 38.5732C68.579 38.6693 68.6585 38.7881 68.7084 38.9202C68.7582 39.0524 68.777 39.1943 68.7634 39.335V41.3909L68.3164 41.3726ZM68.1613 40.0371C68.0153 40.0371 67.8147 40.0142 67.6368 40.0142C67.1806 40.0142 66.9982 40.1702 66.9982 40.5006C66.9978 40.5654 67.011 40.6295 67.037 40.6887C67.063 40.748 67.1012 40.801 67.149 40.8444C67.1968 40.8877 67.2532 40.9204 67.3145 40.9402C67.3758 40.9601 67.4405 40.9667 67.5045 40.9595C67.7413 40.9595 67.9718 40.8823 68.1613 40.7393V40.0371Z" fill="black"/>
<path d="M71.0166 41.2079C70.809 41.3537 70.5628 41.4336 70.3096 41.4373C69.4658 41.4373 69.1602 40.8912 69.1602 39.9046C69.1602 38.7894 69.5068 38.3213 70.3279 38.3213C70.7599 38.3257 71.1889 38.3953 71.6005 38.5278V41.6439C71.6088 41.7749 71.5891 41.9062 71.5427 42.0289C71.4962 42.1516 71.4242 42.2629 71.3314 42.3552C71.0691 42.5513 70.7447 42.6443 70.4191 42.6168C70.0972 42.6119 69.7765 42.5766 69.4612 42.5112L69.5388 42.0064C69.8026 42.0517 70.0694 42.0778 70.337 42.0844C70.5353 42.1092 70.7358 42.062 70.9026 41.9513C70.9858 41.8464 71.0266 41.7136 71.0166 41.5796V41.2079ZM71.0166 38.9133C70.8088 38.8758 70.5983 38.8558 70.3872 38.8536C69.8808 38.8536 69.7486 39.2024 69.7486 39.9229C69.7486 40.6434 69.8854 40.9647 70.3826 40.9647C70.6019 40.9662 70.8187 40.9176 71.0166 40.8224V38.9133Z" fill="black"/>
<path d="M74.3058 41.1987C73.9842 41.3501 73.6345 41.4314 73.2795 41.4374C72.4038 41.4374 71.9111 40.8913 71.9111 39.9C71.9111 39.0785 72.2852 38.3213 73.1929 38.3213C73.9136 38.3213 74.3286 38.8399 74.3286 39.643C74.3293 39.7971 74.314 39.9509 74.283 40.1019H72.5041C72.4993 40.3239 72.5701 40.5409 72.7048 40.7169C72.7827 40.7913 72.8755 40.8482 72.9769 40.8839C73.0784 40.9195 73.1862 40.9329 73.2932 40.9234C73.5886 40.9184 73.8801 40.8545 74.1507 40.7352L74.3058 41.1987ZM73.7904 39.6292C73.7904 39.1703 73.6627 38.8261 73.1837 38.8261C72.7048 38.8261 72.5497 39.2162 72.5223 39.6292H73.7904Z" fill="black"/>
<path d="M78.2339 41.3731V39.3952C78.2339 39.0189 78.056 38.8537 77.7276 38.8537C77.4841 38.8617 77.2469 38.9328 77.0388 39.0602C77.0585 39.1816 77.0692 39.3043 77.0707 39.4273V41.3731H76.4869V39.3952C76.4869 39.0189 76.3136 38.8537 75.9852 38.8537C75.7532 38.856 75.5256 38.9175 75.3238 39.0326V41.3731H74.7354V38.3856H75.1596L75.2097 38.6563C75.4683 38.4457 75.7893 38.3278 76.122 38.3213C76.2724 38.311 76.4229 38.3408 76.5582 38.4077C76.6936 38.4746 76.809 38.5762 76.8929 38.7022C77.1455 38.4753 77.467 38.3411 77.8051 38.3213C78.4665 38.3213 78.8132 38.6885 78.8132 39.4227V41.3731H78.2339Z" fill="black"/>
<path d="M81.5027 41.1987C81.181 41.3495 80.8313 41.4308 80.4764 41.4374C79.6007 41.4374 79.1309 40.8913 79.1309 39.9C79.1309 39.0785 79.5049 38.3213 80.4126 38.3213C81.1287 38.3213 81.5484 38.8399 81.5484 39.643C81.549 39.7971 81.5337 39.9509 81.5027 40.1019H79.7193C79.7153 40.3231 79.7842 40.5393 79.9154 40.7169C79.9945 40.791 80.0881 40.8476 80.1902 40.8832C80.2923 40.9187 80.4007 40.9324 80.5084 40.9234C80.8038 40.9184 81.0953 40.8545 81.3659 40.7352L81.5027 41.1987ZM80.9964 39.6292C80.9964 39.1703 80.8687 38.8261 80.3898 38.8261C79.9108 38.8261 79.7558 39.2162 79.7284 39.6292H80.9964Z" fill="black"/>
<path d="M83.737 41.3729V39.4133C83.737 39.0324 83.5636 38.8535 83.2352 38.8535C82.9851 38.8583 82.7397 38.9228 82.5191 39.0416V41.3729H81.9307V38.3853H82.364L82.4142 38.6561C82.6736 38.447 82.9941 38.3293 83.3264 38.3211C83.4655 38.3042 83.6065 38.3197 83.7386 38.3664C83.8707 38.4131 83.9904 38.4898 84.0883 38.5905C84.1862 38.6913 84.2598 38.8133 84.3032 38.9473C84.3467 39.0812 84.359 39.2234 84.3391 39.3628V41.3729H83.737Z" fill="black"/>
<path d="M86.4265 41.2449C86.2072 41.362 85.9633 41.425 85.715 41.4285C85.6081 41.4381 85.5005 41.4231 85.4002 41.3847C85.3 41.3463 85.2098 41.2854 85.1364 41.2067C85.063 41.128 85.0083 41.0335 84.9766 40.9304C84.9449 40.8273 84.9369 40.7183 84.9532 40.6116V38.8723H84.4971V38.4363L84.9532 38.4133L84.9988 37.5322H85.5188V38.3858H86.3444V38.8723H85.5188V40.5198C85.5188 40.7401 85.5553 40.8961 85.7834 40.8961C85.9327 40.8923 86.0793 40.8546 86.2121 40.786L86.4265 41.2449Z" fill="black"/>
<path d="M25.2985 56.4626C19.7612 56.4618 14.3771 54.6336 9.97192 51.2582C5.56672 47.8828 2.38373 43.1466 0.911146 37.7762C-0.561439 32.4058 -0.242305 26.6976 1.8196 21.5272C3.88152 16.3568 7.57234 12.0097 12.326 9.15259C12.3973 9.10172 12.4784 9.06625 12.564 9.04841C12.6497 9.03057 12.738 9.03074 12.8236 9.04893C12.9092 9.06711 12.9901 9.10291 13.0612 9.15408C13.1324 9.20524 13.1923 9.27065 13.2371 9.34621C13.2819 9.42177 13.3107 9.50584 13.3216 9.59314C13.3326 9.68043 13.3255 9.76907 13.3007 9.85346C13.276 9.93786 13.2342 10.0162 13.1779 10.0835C13.1216 10.1509 13.0521 10.2058 12.9737 10.2448C8.45592 12.9572 4.94752 17.086 2.98688 21.9979C1.02624 26.9097 0.721677 32.3331 2.11992 37.4358C3.51816 42.5386 6.54196 47.0388 10.7273 50.2459C14.9127 53.453 20.0284 55.1898 25.2894 55.1898C30.5504 55.1898 35.6661 53.453 39.8514 50.2459C44.0368 47.0388 47.0606 42.5386 48.4588 37.4358C49.8571 32.3331 49.5525 26.9097 47.5919 21.9979C45.6312 17.086 42.1229 12.9572 37.6051 10.2448C37.5267 10.2058 37.4572 10.1509 37.4009 10.0835C37.3446 10.0162 37.3028 9.93786 37.278 9.85346C37.2533 9.76907 37.2462 9.68043 37.2571 9.59314C37.2681 9.50584 37.2969 9.42177 37.3417 9.34621C37.3865 9.27065 37.4464 9.20524 37.5175 9.15408C37.5887 9.10291 37.6696 9.06711 37.7552 9.04893C37.8407 9.03074 37.9291 9.03057 38.0147 9.04841C38.1004 9.06625 38.1814 9.10172 38.2528 9.15259C43.0051 12.0089 46.6952 16.3544 48.7575 21.5229C50.8197 26.6915 51.1403 32.3979 49.6701 37.7674C48.1998 43.1368 45.0199 47.873 40.6177 51.2498C36.2156 54.6267 30.8342 56.4578 25.2985 56.4626Z" fill="black"/>
<path d="M20.1631 4.9164C19.3001 4.92113 18.4565 5.17434 17.7319 5.64608V0.464844H15.7021V14.4941H16.8972L17.2256 13.7415C18.0661 14.3933 19.1021 14.738 20.1631 14.719C22.8041 14.719 23.7802 12.8833 23.7802 9.81311C23.7802 6.74291 22.8041 4.9164 20.1631 4.9164ZM19.707 6.69242C21.4813 6.69242 21.755 8.09215 21.755 9.81311C21.755 11.5341 21.4813 12.9429 19.707 12.9429C19.0174 12.9441 18.3407 12.7552 17.7502 12.3968V7.23395C18.3412 6.87741 19.0179 6.69016 19.707 6.69242ZM26.3665 7.83056C26.3665 6.99073 27.037 6.67406 28.1089 6.67406C29.0569 6.66588 29.9973 6.84359 30.8777 7.19724V5.36155C29.9832 5.01287 29.0261 4.85654 28.0679 4.90263C25.4086 4.90263 24.3915 6.2794 24.3915 7.87645C24.3915 9.4735 25.062 10.3592 27.7988 10.63C29.0121 10.7355 29.304 11.0889 29.304 11.7865C29.304 12.6079 28.597 12.9475 27.1465 12.9475C26.2226 12.9364 25.3081 12.7592 24.4462 12.4244V14.2187C25.4054 14.5664 26.419 14.7374 27.4384 14.7236C30.3394 14.7236 31.2973 13.3193 31.2973 11.7084C31.2973 9.96913 30.5903 9.12471 27.8717 8.88607C26.6949 8.77593 26.3665 8.49141 26.3665 7.83515M34.513 14.6318C34.6479 14.6314 34.7823 14.6175 34.9144 14.5905V12.8925C34.3306 12.8925 34.1527 12.6997 34.1527 12.1766V5.14126H32.1229V12.1949C32.1229 13.8011 32.8664 14.6272 34.513 14.6272M31.8173 2.36938C31.8263 2.63066 31.9115 2.88349 32.0624 3.09632C32.2133 3.30916 32.4231 3.47257 32.6657 3.56616C32.9083 3.65974 33.173 3.67936 33.4266 3.62257C33.6803 3.56578 33.9117 3.43509 34.0919 3.24681C34.2722 3.05853 34.3934 2.82102 34.4403 2.56389C34.4872 2.30676 34.4579 2.04141 34.3559 1.80097C34.2538 1.56053 34.0837 1.35565 33.8667 1.2119C33.6496 1.06814 33.3953 0.99187 33.1355 0.992616C32.7813 1.00569 32.446 1.15649 32.2002 1.41328C31.9543 1.67007 31.8171 2.01282 31.8173 2.36938Z" fill="black"/>
<path d="M10.9897 28.5275C10.5249 27.8349 10.2872 27.0133 10.3101 26.1779C10.3101 25.4436 10.3101 25.3426 10.3101 25.3335C10.3101 21.015 13.909 17.5318 18.338 17.5318C19.6292 17.5164 20.9038 17.8257 22.046 18.4316C23.1882 19.0375 24.162 19.9207 24.879 21.0012L25.3625 21.7217L25.846 21.0012C26.7917 19.6075 28.1536 18.5525 29.7347 17.9889C31.3158 17.4254 33.0341 17.3824 34.641 17.8663C36.2479 18.3502 37.6602 19.3359 38.6736 20.6807C39.6869 22.0256 40.2488 23.6599 40.278 25.3472V26.2008C40.278 26.9259 40.2096 27.3665 39.5436 28.5643C38.937 29.6611 27.8119 48.2978 25.2986 52.5061L10.9897 28.5275ZM23.4923 46.6182L25.3169 49.7664L27.7754 45.4801L26.48 45.8013C26.1044 45.8629 25.7247 45.8951 25.3442 45.8977C24.9334 45.8927 24.5234 45.8589 24.1172 45.7967L22.8994 45.5673L23.4923 46.6182ZM20.1762 40.8771L20.7875 41.9051C21.6085 43.3048 23.5927 44.062 25.0432 44.062C27.6386 44.062 29.4494 42.4604 29.4494 40.1749C29.4494 37.7564 28.1266 36.7973 25.9691 35.4297C24.2769 34.3604 22.352 33.1351 22.3201 30.6202V30.5468C22.3342 29.7335 22.5423 28.9356 22.9267 28.2201L23.3829 27.4032H12.4357L20.1762 40.8771ZM27.4333 27.4032C26.581 27.4019 25.7625 27.7382 25.1547 28.3393C24.5469 28.9405 24.1988 29.7582 24.1856 30.6156C24.2313 32.0291 25.2712 32.7588 26.9681 33.8281C28.5052 34.801 30.2476 35.9024 30.9729 37.9584L31.3925 39.1516L38.1433 27.3894L27.4333 27.4032ZM32.3915 19.2573C30.8449 19.2455 29.3513 19.8236 28.2113 20.8752C27.0713 21.9268 26.3696 23.3738 26.2474 24.925L26.2109 25.5216H38.5766L38.5356 24.925C38.4134 23.3738 37.7116 21.9268 36.5716 20.8752C35.4316 19.8236 33.938 19.2455 32.3915 19.2573ZM18.3426 19.2573C16.7981 19.2479 15.3073 19.8272 14.17 20.8786C13.0327 21.9301 12.3332 23.3758 12.2122 24.925L12.1757 25.5216H24.5277L24.4913 24.925C24.369 23.373 23.6666 21.9253 22.5257 20.8736C21.3847 19.8219 19.89 19.2443 18.3426 19.2573Z" fill="black"/>
<path d="M37.6643 13.6905C37.6643 13.8267 37.6376 13.9615 37.5858 14.0874C37.534 14.2132 37.4581 14.3275 37.3623 14.4238C37.2666 14.5202 37.153 14.5966 37.0279 14.6487C36.9028 14.7008 36.7688 14.7276 36.6334 14.7276C36.498 14.7276 36.364 14.7008 36.2389 14.6487C36.1138 14.5966 36.0002 14.5202 35.9045 14.4238C35.8087 14.3275 35.7328 14.2132 35.681 14.0874C35.6292 13.9615 35.6025 13.8267 35.6025 13.6905C35.6025 13.4154 35.7111 13.1516 35.9045 12.9571C36.0978 12.7626 36.36 12.6533 36.6334 12.6533C36.9068 12.6533 37.169 12.7626 37.3623 12.9571C37.5557 13.1516 37.6643 13.4154 37.6643 13.6905Z" fill="#E42313"/>
</svg>
