<svg width="80" height="77" viewBox="0 0 80 77" fill="none" xmlns="http://www.w3.org/2000/svg">
<path d="M42.7455 75.6937C62.46 75.6937 78.448 59.8259 78.448 40.2316C78.448 20.6373 62.46 4.76953 42.7455 4.76953C23.031 4.76953 7.04297 20.6373 7.04297 40.2316C7.04297 59.8259 23.031 75.6937 42.7455 75.6937Z" fill="#F1F3F9" stroke="#D6DCE8" stroke-width="1.2021" stroke-miterlimit="10"/>
<path d="M70.0931 35.6081V57.3061C70.0931 61.814 66.4267 65.4804 61.8587 65.4804H23.752C19.2441 65.4804 15.5777 61.8741 15.5176 57.3662C15.5176 57.3061 15.5176 57.3061 15.5176 57.246V35.6081C15.5176 35.548 15.5176 35.548 15.5176 35.4879C15.5176 35.3677 15.5176 35.2475 15.5777 35.1273C15.6378 34.947 15.6979 34.8268 15.758 34.6465L25.9759 15.1123C26.3365 14.3309 27.1179 13.9102 27.9594 13.9102H57.5912C58.4327 13.9102 59.154 14.3309 59.5747 15.1123L69.7926 34.6465C69.8527 34.7667 69.9128 34.947 69.9729 35.1273C70.0931 35.2475 70.0931 35.4278 70.0931 35.6081Z" fill="#F1F3F9" stroke="#D6DCE8" stroke-width="1.2021" stroke-miterlimit="10"/>
<path d="M57.6611 6.01172C58.4455 14.575 58.8377 16.5361 57.0617 24.2913C56.4842 26.0154 55.9066 27.9038 54.669 29.2174C52.9363 31.27 49.801 32.1731 47.2432 31.5163C44.603 30.8595 42.4577 28.5606 41.9627 25.7691C41.5501 24.045 42.1277 21.9924 43.6129 20.9251C45.1805 19.9399 47.4082 20.1862 48.7284 21.4177C50.2135 22.6492 50.7911 24.5376 50.7086 26.3438C50.6261 28.1501 49.966 29.9563 49.0584 31.5163C47.0067 35.352 46.1621 35.3379 41.9627 41.6375" stroke="#B3BCCE" stroke-width="1.2021" stroke-miterlimit="10" stroke-dasharray="2.4 2.4"/>
<path d="M62.2608 2.82544C61.9472 3.96973 60.6927 4.38583 59.4383 3.65765C58.0792 3.0335 57.1384 2.51337 57.3474 1.47311C57.6611 0.432854 58.9155 0.328828 60.3791 0.224803C62.1563 0.0167513 62.4699 1.68116 62.2608 2.82544Z" fill="#DAE2EB"/>
<path d="M52.1211 3.86557C52.6438 4.8018 54.1074 5.42595 55.1528 4.48972C56.3027 3.44947 57.2436 2.72129 56.7209 1.68103C56.1982 0.744798 55.3619 1.05688 53.5847 1.26493C52.1211 1.577 51.4939 2.82531 52.1211 3.86557Z" fill="#DAE2EB"/>
<path d="M56.7203 0.0159309C57.4521 -0.0880948 58.1839 0.328008 58.393 0.952162C58.4975 1.16021 58.602 1.47229 58.602 1.68034C58.8111 3.1367 58.2884 4.38501 57.4521 4.48903C56.5112 4.69709 55.5704 3.65683 55.4658 2.30449C55.4658 1.88839 55.4658 1.68034 55.4658 1.36826C55.5704 0.640085 55.9885 0.119957 56.7203 0.0159309C56.8248 0.0159309 56.7203 0.0159309 56.7203 0.0159309Z" fill="#989FB0"/>
<path d="M70.0931 35.6019V59.5238C70.0931 62.8296 67.4485 65.4742 64.0826 65.4742H21.5281C18.2223 65.4742 15.5176 62.8296 15.5176 59.5238V35.4817C15.5176 35.3615 15.5176 35.2413 15.5777 35.1211H29.2817C31.3252 35.1211 33.0082 36.7439 33.0082 38.8476C33.0082 39.8694 33.4289 40.8311 34.0901 41.4922C34.8113 42.2135 35.6528 42.5741 36.7347 42.5741H48.9361C50.9796 42.5741 52.6626 40.9513 52.6626 38.8476C52.6626 37.8258 53.0833 36.8641 53.7445 36.203C54.4657 35.4817 55.3072 35.1211 56.329 35.1211H69.9729C70.0931 35.2413 70.0931 35.4216 70.0931 35.6019Z" fill="white" stroke="#D6DCE8" stroke-width="1.2021" stroke-miterlimit="10"/>
<path d="M35.9474 50.6095C36.7089 50.6095 37.3263 49.9921 37.3263 49.2306C37.3263 48.469 36.7089 47.8516 35.9474 47.8516C35.1858 47.8516 34.5684 48.469 34.5684 49.2306C34.5684 49.9921 35.1858 50.6095 35.9474 50.6095Z" fill="#989FB0"/>
<path d="M49.6622 50.6095C50.4238 50.6095 51.0412 49.9921 51.0412 49.2306C51.0412 48.469 50.4238 47.8516 49.6622 47.8516C48.9006 47.8516 48.2832 48.469 48.2832 49.2306C48.2832 49.9921 48.9006 50.6095 49.6622 50.6095Z" fill="#989FB0"/>
<path d="M45.0415 59.6669H40.7182C40.0473 59.6669 39.4883 59.1078 39.4883 58.4369C39.4883 57.7661 40.0473 57.207 40.7182 57.207H45.0042C45.6751 57.207 46.2342 57.7661 46.2342 58.4369C46.2714 59.1078 45.7124 59.6669 45.0415 59.6669Z" fill="#989FB0"/>
<path d="M77.5356 23.2842C78.8966 23.2842 79.9999 22.1809 79.9999 20.8199C79.9999 19.4589 78.8966 18.3556 77.5356 18.3556C76.1746 18.3556 75.0713 19.4589 75.0713 20.8199C75.0713 22.1809 76.1746 23.2842 77.5356 23.2842Z" fill="#F1F3F9"/>
<path d="M75.0716 15.2917C76.0011 15.2917 76.7546 14.5382 76.7546 13.6087C76.7546 12.6793 76.0011 11.9258 75.0716 11.9258C74.1422 11.9258 73.3887 12.6793 73.3887 13.6087C73.3887 14.5382 74.1422 15.2917 75.0716 15.2917Z" fill="#F1F3F9"/>
<path d="M6.91244 20.819C7.8419 20.819 8.59538 20.0655 8.59538 19.1361C8.59538 18.2066 7.8419 17.4531 6.91244 17.4531C5.98297 17.4531 5.22949 18.2066 5.22949 19.1361C5.22949 20.0655 5.98297 20.819 6.91244 20.819Z" fill="#F1F3F9"/>
<path d="M3.12547 57.8447C4.85162 57.8447 6.25094 56.4454 6.25094 54.7192C6.25094 52.9931 4.85162 51.5938 3.12547 51.5938C1.39932 51.5938 0 52.9931 0 54.7192C0 56.4454 1.39932 57.8447 3.12547 57.8447Z" fill="#F1F3F9"/>
</svg>
