<svg width="180" height="35" viewBox="0 0 180 35" fill="none" xmlns="http://www.w3.org/2000/svg">
    <path
        d="M48.2036 14.8786L40.3886 1.56244C39.1655 -0.520812 36.1541 -0.520812 34.9328 1.56244L28.4392 12.629L26.1424 16.5422H22.5014L21.5259 14.8805L13.7109 1.56433C12.4878 -0.51892 9.47635 -0.51892 8.25514 1.56433L0.440115 14.8805C-0.798115 16.9883 0.723679 19.6444 3.168 19.6444H14.1363L21.9229 32.9133C22.9967 34.7432 25.6433 34.7432 26.7189 32.9133L34.5056 19.6444H45.4739C47.9201 19.6425 49.44 16.9883 48.2036 14.8786Z"
        fill="white" />
    <path
        d="M56.6109 14.8183L57.3311 15.2437C58.2877 14.773 59.3596 14.5234 60.6091 14.5234C61.9627 14.5234 62.8739 14.8316 63.4901 15.3477C64.4599 14.8032 65.5337 14.5234 66.8135 14.5234C69.9308 14.5234 70.7834 16.1398 70.7834 18.1984V22.1683H68.4317V18.4933C68.4317 17.5519 68.4317 16.6558 66.77 16.6558C65.9174 16.6558 65.1669 16.7882 64.4618 17.0377C64.5507 17.4045 64.579 17.8014 64.579 18.1984V22.1683H62.2273V18.4933C62.2273 17.5519 62.2273 16.6558 60.5656 16.6558C59.7565 16.6558 59.0363 16.773 58.3746 17.0094V22.1702H56.0229V14.8183H56.6109Z"
        fill="white" />
    <path
        d="M76.7561 22.4613C73.4629 22.4613 72.5518 20.8148 72.5518 18.7863V18.1984C72.5518 16.17 73.4629 14.5234 76.7561 14.5234H77.1682C80.5199 14.5234 81.2118 15.5821 81.2118 16.8751V17.0226C81.2118 18.1984 80.8583 19.2287 77.1833 19.2287C76.3005 19.2287 75.5651 19.155 74.9053 18.964C74.9488 19.8015 75.2437 20.3308 77.1984 20.3308C78.1247 20.3308 79.6087 20.1834 80.6239 19.8904V22.0965C79.6087 22.3309 78.1531 22.4632 77.0358 22.4632H76.7561V22.4613ZM74.9772 17.3893C75.55 17.5368 76.1833 17.6105 77.0358 17.6105C78.7561 17.6105 78.8582 17.3175 78.8582 17.0509C78.8582 16.7712 78.7694 16.359 77.1814 16.359C75.6237 16.3609 75.1227 16.7277 74.9772 17.3893Z"
        fill="white" />
    <path
        d="M87.1794 22.4613C83.8863 22.4613 82.9751 20.8148 82.9751 18.7863V18.1984C82.9751 16.17 83.8863 14.5234 87.1794 14.5234H87.5915C90.9432 14.5234 91.6351 15.5821 91.6351 16.8751V17.0226C91.6351 18.1984 91.2816 19.2287 87.6066 19.2287C86.7238 19.2287 85.9884 19.155 85.3287 18.964C85.3722 19.8015 85.6671 20.3308 87.6218 20.3308C88.5481 20.3308 90.034 20.1834 91.0472 19.8904V22.0965C90.0321 22.3309 88.5764 22.4632 87.4592 22.4632H87.1794V22.4613ZM85.4005 17.3893C85.9733 17.5368 86.6066 17.6105 87.4592 17.6105C89.1795 17.6105 89.2816 17.3175 89.2816 17.0509C89.2816 16.7712 89.1927 16.359 87.6048 16.359C86.047 16.3609 85.548 16.7277 85.4005 17.3893Z"
        fill="white" />
    <path
        d="M98.3401 22.9774C97.5764 24.6977 96.8693 25.8452 94.9146 25.8452C94.5328 25.8452 94.0318 25.8017 93.6802 25.6978V23.6107C94.0186 23.6845 94.5177 23.7128 94.8126 23.7128C95.7824 23.7128 95.9733 23.331 96.2833 22.6844L96.3854 22.4349L92.8711 15.4063V14.8184H95.0772L97.4157 19.8904L99.4744 14.8184H101.68V15.4063L98.3401 22.9774Z"
        fill="white" />
    <path d="M103.868 11.1426L105.631 12.171V22.1694H103.28V11.1426H103.868Z" fill="white" />
    <path
        d="M116.408 22.1702H115.82L115.026 21.7146C114.041 22.2288 112.998 22.4651 111.644 22.4651C108.468 22.4651 107.557 21.3044 107.557 19.9943V19.8469C107.557 18.6124 108.542 17.5973 111.601 17.5973C112.586 17.5973 113.365 17.6861 114.056 17.8771C114.026 17.0982 113.822 16.6558 111.881 16.6558C110.837 16.6558 109.381 16.8033 108.366 17.0963V14.8902C109.381 14.6558 110.837 14.5234 111.954 14.5234C115.232 14.5234 116.41 15.6558 116.41 17.758V22.1702H116.408ZM114.056 20.3176V19.6257C113.395 19.4499 112.659 19.361 111.748 19.361C109.998 19.361 109.911 19.7145 109.911 20.0076C109.911 20.3611 110.028 20.6257 111.896 20.6257C112.69 20.6257 113.395 20.5237 114.056 20.3176Z"
        fill="white" />
    <path
        d="M118.837 14.8165L119.63 15.2872C120.572 14.773 121.615 14.5234 122.895 14.5234C126.188 14.5234 127.1 16.17 127.1 18.1984V22.1683H124.748V18.4914C124.748 17.5349 124.748 16.6539 122.763 16.6539C121.954 16.6539 121.249 16.7712 120.602 16.9772V22.1664H118.25V14.8146H118.837V14.8165Z"
        fill="white" />
    <path
        d="M137.713 22.1715H137.125L136.331 21.7159C135.39 22.2149 134.346 22.4664 133.067 22.4664C129.773 22.4664 128.862 20.8198 128.862 18.7914V18.2034C128.862 16.175 129.773 14.5285 133.067 14.5285C133.919 14.5285 134.67 14.6457 135.36 14.8668V11.1465H135.948L137.711 12.1749V22.1715H137.713ZM135.362 20.0239V16.9803C134.7 16.7743 133.995 16.6571 133.201 16.6571C131.216 16.6571 131.216 17.5399 131.216 18.4946C131.216 19.4492 131.216 20.3321 133.201 20.3321C133.995 20.3321 134.7 20.23 135.362 20.0239Z"
        fill="white" />
    <path
        d="M139.788 20.8892C139.788 20.1255 140.126 19.4922 141.346 19.4922H141.463C142.684 19.4922 143.021 20.1236 143.021 20.8892V21.065C143.021 21.8288 142.682 22.462 141.463 22.462H141.346C140.125 22.462 139.788 21.8306 139.788 21.065V20.8892Z"
        fill="white" />
    <path
        d="M144.934 18.1984C144.934 16.17 145.845 14.5234 149.138 14.5234H149.55C150.609 14.5234 151.624 14.6558 152.578 14.8902V17.0812C151.49 16.773 150.301 16.6558 149.491 16.6558C147.285 16.6558 147.285 17.4347 147.285 18.4933C147.285 19.552 147.285 20.3308 149.491 20.3308C150.301 20.3308 151.491 20.2136 152.578 19.9036V22.0946C151.622 22.329 150.609 22.4613 149.55 22.4613H149.138C145.845 22.4613 144.934 20.8148 144.934 18.7863V18.1984Z"
        fill="white" />
    <path
        d="M154.212 18.1984C154.212 16.17 155.124 14.5234 158.417 14.5234H158.829C162.122 14.5234 163.033 16.17 163.033 18.1984V18.7863C163.033 20.8148 162.122 22.4613 158.829 22.4613H158.417C155.124 22.4613 154.212 20.8148 154.212 18.7863V18.1984ZM158.623 20.3289C160.681 20.3289 160.681 19.4461 160.681 18.4914C160.681 17.5349 160.681 16.6539 158.623 16.6539C156.564 16.6539 156.564 17.5368 156.564 18.4914C156.566 19.448 156.566 20.3289 158.623 20.3289Z"
        fill="white" />
    <path
        d="M165.46 14.8183L166.181 15.2437C167.137 14.773 168.209 14.5234 169.459 14.5234C170.812 14.5234 171.723 14.8316 172.34 15.3477C173.31 14.8032 174.383 14.5234 175.663 14.5234C178.78 14.5234 179.633 16.1398 179.633 18.1984V22.1683H177.281V18.4933C177.281 17.5519 177.281 16.6558 175.62 16.6558C174.767 16.6558 174.017 16.7882 173.311 17.0377C173.4 17.4045 173.429 17.8014 173.429 18.1984V22.1683H171.077V18.4933C171.077 17.5519 171.077 16.6558 169.415 16.6558C168.606 16.6558 167.886 16.773 167.224 17.0094V22.1702H164.873V14.8183H165.46Z"
        fill="white" />
</svg>
    