<svg width="24" height="24" viewBox="0 0 24 24" fill="none" xmlns="http://www.w3.org/2000/svg">
<rect width="24" height="24" rx="12" fill="#0052E2"/>
<path d="M19.3002 5.96365L13.193 11.0187L11.6301 12.325L7.89809 9.66205C7.80984 9.59768 7.7031 9.56325 7.59379 9.56378C7.51023 9.56343 7.42784 9.58402 7.3541 9.6237C7.30565 9.64771 7.26165 9.68018 7.22466 9.71957C7.13572 9.80938 7.08258 9.92849 7.07509 10.0546C7.0676 10.1808 7.10622 10.3054 7.18393 10.4051L7.71364 11.081L8.84982 12.5191L11.503 15.9012C11.5299 15.9361 11.5608 15.9676 11.595 15.9952C11.6273 16.0214 11.6624 16.0439 11.6999 16.0624C11.7771 16.1004 11.8618 16.1201 11.9478 16.1201C12.0337 16.1201 12.1184 16.1004 12.1956 16.0624C12.2214 16.0497 12.246 16.0351 12.2694 16.0187C12.3159 15.9861 12.3576 15.9465 12.3923 15.9012L19.6382 6.27764C19.6494 6.25593 19.6571 6.23279 19.6611 6.20906C19.6658 6.18201 19.6658 6.15419 19.6609 6.12679C19.6517 6.07538 19.6262 6.02834 19.5878 5.9928C19.5497 5.95727 19.501 5.93519 19.449 5.92993C19.3971 5.92467 19.3449 5.93651 19.3002 5.96365Z" fill="white"/>
<path d="M4.28613 16.2942H6.82932L9.05346 14.451L7.85502 12.44L4.28613 16.2942Z" fill="white"/>
<path d="M14.607 14.4654L15.9637 12.3346L19.7147 16.2942H17.1622L14.607 14.4654Z" fill="white"/>
</svg>
