<svg width="21" height="14" viewBox="0 0 21 14" fill="none" xmlns="http://www.w3.org/2000/svg">
<path d="M19.9626 0.0471924L12.046 6.87468L10.02 8.63901L5.18216 5.04236C5.06777 4.95542 4.92941 4.90892 4.78771 4.90963C4.67939 4.90915 4.57258 4.93697 4.477 4.99056C4.41419 5.023 4.35715 5.06684 4.30921 5.12005C4.1939 5.24135 4.12503 5.40222 4.11532 5.57261C4.10561 5.743 4.15567 5.91125 4.25641 6.04593L4.94306 6.95884L6.41589 8.90123L9.85522 13.4691C9.89011 13.5163 9.93017 13.5589 9.97447 13.5961C10.0163 13.6314 10.0619 13.6619 10.1104 13.6869C10.2105 13.7382 10.3204 13.7648 10.4317 13.7648C10.5431 13.7648 10.6529 13.7382 10.7531 13.6869C10.7864 13.6697 10.8183 13.65 10.8486 13.6278C10.909 13.5838 10.963 13.5303 11.0079 13.4691L20.4008 0.471279C20.4153 0.441947 20.4254 0.410698 20.4305 0.378649C20.4366 0.342115 20.4366 0.304533 20.4302 0.267535C20.4184 0.198092 20.3853 0.134557 20.3355 0.0865621C20.2861 0.0385676 20.223 0.00875129 20.1556 0.00164794C20.0883 -0.00545541 20.0206 0.0105296 19.9626 0.0471924Z" fill="#0052E2"/>
<path d="M0.5 14H3.79672L6.67987 11.5105L5.12633 8.7944L0.5 14Z" fill="#0052E2"/>
<path d="M13.8789 11.5299L15.6376 8.65196L20.5 14H17.1911L13.8789 11.5299Z" fill="#0052E2"/>
</svg>
