<svg width="240" height="46" viewBox="0 0 240 46" fill="none" xmlns="http://www.w3.org/2000/svg">
    <path
        d="M64.2715 19.8381L53.8515 2.08325C52.2207 -0.694417 48.2054 -0.694417 46.5771 2.08325L37.919 16.8387L34.8565 22.0562H30.0019L28.7012 19.8406L18.2812 2.08577C16.6504 -0.691894 12.6351 -0.691894 11.0068 2.08577L0.58682 19.8406C-1.06415 22.6511 0.964905 26.1925 4.224 26.1925H18.8483L29.2306 43.8843C30.6622 46.3243 34.191 46.3243 35.6252 43.8843L46.0075 26.1925H60.6318C63.8934 26.19 65.92 22.6511 64.2715 19.8381Z"
        fill="#0052E2" />
    <path
        d="M78.7667 39.8888V36.6019L77.4131 39.2737H76.8863L75.5328 36.6019V39.8888H74.6758V35.2686H75.7193L77.151 38.1067L78.5827 35.2686H79.6262V39.8888H78.7667Z"
        fill="#0052E2" />
    <path
        d="M84.1672 37.8093C84.1672 39.1502 84.016 39.9467 82.36 39.9467C80.704 39.9467 80.5527 39.1477 80.5527 37.8093V35.2686H81.4097V37.8093C81.4097 39.057 81.4702 39.2687 82.36 39.2687C83.2497 39.2687 83.3102 39.057 83.3102 37.8093V35.2686H84.1672V37.8093Z"
        fill="#0052E2" />
    <path
        d="M88.1214 39.8888L87.7912 38.8982H86.0016L85.6714 39.8888H84.7539L86.4301 35.2686H87.3728L89.049 39.8888H88.1214ZM87.587 38.2252L86.8939 36.186L86.2007 38.2252H87.587Z"
        fill="#0052E2" />
    <path d="M93.54 35.9491V39.8888H92.683V35.9491H91.3496V35.2686H94.8683V35.9491H93.54Z"
        fill="#0052E2" />
    <path
        d="M97.5579 35.2761C98.362 35.2761 98.8913 35.7979 98.8913 36.6876C98.8913 37.3682 98.6014 37.7891 98.1402 37.9605L99.1308 39.8888H98.2133L97.2958 38.1067H96.3531V39.8888H95.4961V35.2686L97.5579 35.2761ZM96.3506 37.4362H97.4193C97.7823 37.4362 98.0267 37.2119 98.0267 36.6902C98.0267 36.1886 97.7898 35.9516 97.4193 35.9516H96.3506V37.4362Z"
        fill="#0052E2" />
    <path
        d="M103.327 37.8089C103.327 39.1499 103.176 39.9464 101.52 39.9464C99.8641 39.9464 99.7129 39.1473 99.7129 37.8089V35.2682H100.57V37.8089C100.57 39.0566 100.63 39.2683 101.52 39.2683C102.41 39.2683 102.47 39.0566 102.47 37.8089V35.2682H103.327V37.8089ZM100.741 34.8044L101.422 33.834H102.135L101.382 34.8044H100.741Z"
        fill="#0052E2" />
    <path
        d="M107.09 39.8888L105.039 36.728V39.8888H104.182V35.2686H105.054L107.105 38.4293V35.2686H107.962V39.8888H107.09Z"
        fill="#0052E2" />
    <path
        d="M112.364 39.5096C111.822 39.7415 111.182 39.9381 110.594 39.9457C109.579 39.9457 108.727 39.3912 108.727 37.5764C108.727 35.7868 109.485 35.207 110.647 35.207C111.141 35.207 111.711 35.3129 112.316 35.4767L112.157 36.1371C111.57 35.9985 111.088 35.88 110.713 35.88C109.979 35.88 109.591 36.2682 109.591 37.5764C109.591 38.9501 110.068 39.2651 110.602 39.2651C110.924 39.2651 111.255 39.1668 111.519 39.0811V37.8662H110.556V37.1857H112.379L112.364 39.5096Z"
        fill="#0052E2" />
    <path d="M115.035 38.3036V37.623H117.359V38.3036H115.035Z" fill="#0052E2" />
    <path
        d="M122.152 35.2686C122.832 35.2686 123.339 35.6114 123.339 36.3978C123.339 36.854 123.261 37.2623 122.804 37.4085C123.298 37.5471 123.518 37.9303 123.518 38.51C123.518 39.5006 123.041 39.8888 122.217 39.8888H120.047V35.2686H122.152ZM120.919 37.1237H122C122.29 37.1237 122.482 36.9447 122.482 36.5288C122.482 36.1331 122.29 35.9415 121.993 35.9415H120.911L120.919 37.1237ZM120.919 39.2158H122.114C122.464 39.2158 122.701 39.004 122.701 38.51C122.701 38.0286 122.469 37.7967 122.114 37.7967H120.919V39.2158Z"
        fill="#0052E2" />
    <path
        d="M127.285 39.8884L126.955 38.8978H125.166L124.835 39.8884H123.918L125.594 35.2682H126.537L128.213 39.8884H127.285ZM125.299 34.8044L125.98 33.834H126.693L125.942 34.8044H125.299ZM126.751 38.2248L126.058 36.1857L125.365 38.2248H126.751Z"
        fill="#0052E2" />
    <path
        d="M131.708 39.8888L129.656 36.728V39.8888H128.799V35.2686H129.671L131.723 38.4293V35.2686H132.58V39.8888H131.708Z"
        fill="#0052E2" />
    <path
        d="M137.485 35.2837C139.189 35.2837 139.483 36.2339 139.483 37.5925C139.483 38.9511 139.186 39.8963 137.485 39.8963H135.829V37.9227H135.176V37.2422H135.829V35.2686L137.485 35.2837ZM136.681 37.2573H137.5V37.9378H136.681V39.2309H137.485C138.463 39.2309 138.626 38.8074 138.626 37.6001C138.626 36.3927 138.463 35.9642 137.485 35.9642H136.681V37.2573Z"
        fill="#0052E2" />
    <path
        d="M143.906 37.8089C143.906 39.1499 143.754 39.9464 142.098 39.9464C140.442 39.9464 140.291 39.1473 140.291 37.8089V35.2682H141.148V37.8089C141.148 39.0566 141.208 39.2683 142.098 39.2683C142.988 39.2683 143.049 39.0566 143.049 37.8089V35.2682H143.906V37.8089ZM141.319 34.8044L142 33.834H142.713L141.962 34.8044H141.319Z"
        fill="#0052E2" />
    <path
        d="M147.669 39.8888L145.617 36.728V39.8888H144.76V35.2686H145.632L147.684 38.4293V35.2686H148.541V39.8888H147.669Z"
        fill="#0052E2" />
    <path
        d="M152.942 39.5096C152.4 39.7415 151.76 39.9381 151.172 39.9457C150.157 39.9457 149.305 39.3912 149.305 37.5764C149.305 35.7868 150.063 35.207 151.225 35.207C151.719 35.207 152.289 35.3129 152.894 35.4767L152.735 36.1371C152.148 35.9985 151.666 35.88 151.291 35.88C150.557 35.88 150.169 36.2682 150.169 37.5764C150.169 38.9501 150.646 39.2651 151.18 39.2651C151.503 39.2651 151.833 39.1668 152.097 39.0811V37.8662H151.132V37.1857H152.954L152.942 39.5096Z"
        fill="#0052E2" />
    <path
        d="M75.4812 16.3131L76.4415 16.8803C77.7169 16.2526 79.1461 15.9199 80.8122 15.9199C82.6169 15.9199 83.8318 16.3308 84.6535 17.0189C85.9466 16.293 87.3782 15.9199 89.0847 15.9199C93.2411 15.9199 94.3779 18.075 94.3779 20.8199V26.1131H91.2423V21.2131C91.2423 19.9579 91.2423 18.7631 89.0267 18.7631C87.8899 18.7631 86.8893 18.9396 85.9491 19.2723C86.0676 19.7613 86.1054 20.2906 86.1054 20.8199V26.1131H82.9698V21.2131C82.9698 19.9579 82.9698 18.7631 80.7542 18.7631C79.6754 18.7631 78.7151 18.9194 77.8329 19.2345V26.1156H74.6973V16.3131H75.4812Z"
        fill="#0046E4" />
    <path
        d="M102.342 26.5038C97.9512 26.5038 96.7363 24.3084 96.7363 21.6038V20.8199C96.7363 18.1153 97.9512 15.9199 102.342 15.9199H102.892C107.361 15.9199 108.283 17.3314 108.283 19.0555V19.2521C108.283 20.8199 107.812 22.1936 102.912 22.1936C101.735 22.1936 100.754 22.0953 99.8744 21.8407C99.9324 22.9573 100.326 23.6631 102.932 23.6631C104.167 23.6631 106.146 23.4665 107.499 23.0758V26.0173C106.146 26.3299 104.205 26.5063 102.715 26.5063H102.342V26.5038ZM99.9702 19.7411C100.734 19.9377 101.578 20.036 102.715 20.036C105.009 20.036 105.145 19.6453 105.145 19.2899C105.145 18.9169 105.026 18.3674 102.909 18.3674C100.832 18.3699 100.164 18.8589 99.9702 19.7411Z"
        fill="#0046E4" />
    <path
        d="M116.239 26.5038C111.848 26.5038 110.633 24.3084 110.633 21.6038V20.8199C110.633 18.1153 111.848 15.9199 116.239 15.9199H116.788C121.257 15.9199 122.18 17.3314 122.18 19.0555V19.2521C122.18 20.8199 121.708 22.1936 116.808 22.1936C115.631 22.1936 114.651 22.0953 113.771 21.8407C113.829 22.9573 114.222 23.6631 116.828 23.6631C118.063 23.6631 120.045 23.4665 121.396 23.0758V26.0173C120.042 26.3299 118.101 26.5063 116.612 26.5063H116.239V26.5038ZM113.867 19.7411C114.63 19.9377 115.475 20.036 116.612 20.036C118.905 20.036 119.041 19.6453 119.041 19.2899C119.041 18.9169 118.923 18.3674 116.806 18.3674C114.729 18.3699 114.063 18.8589 113.867 19.7411Z"
        fill="#0046E4" />
    <path
        d="M131.12 27.1903C130.102 29.484 129.159 31.014 126.553 31.014C126.044 31.014 125.376 30.956 124.907 30.8174V28.0347C125.358 28.133 126.024 28.1708 126.417 28.1708C127.71 28.1708 127.964 27.6616 128.378 26.7996L128.514 26.4669L123.828 17.0954V16.3115H126.77L129.888 23.0742L132.632 16.3115H135.574V17.0954L131.12 27.1903Z"
        fill="#0046E4" />
    <path d="M138.491 11.4111L140.843 12.7823V26.1136H137.707V11.4111H138.491Z" fill="#0046E4" />
    <path
        d="M155.211 26.1156H154.428L153.369 25.5082C152.056 26.1938 150.664 26.5088 148.86 26.5088C144.625 26.5088 143.41 24.9612 143.41 23.2144V23.0178C143.41 21.3719 144.723 20.0184 148.802 20.0184C150.115 20.0184 151.153 20.1368 152.076 20.3914C152.036 19.3529 151.763 18.7631 149.175 18.7631C147.783 18.7631 145.843 18.9597 144.489 19.3504V16.4089C145.843 16.0964 147.783 15.9199 149.273 15.9199C153.644 15.9199 155.214 17.4297 155.214 20.2326V26.1156H155.211ZM152.076 23.6455V22.7229C151.194 22.4885 150.213 22.3701 148.998 22.3701C146.664 22.3701 146.548 22.8414 146.548 23.2321C146.548 23.7034 146.705 24.0563 149.195 24.0563C150.254 24.0563 151.194 23.9202 152.076 23.6455Z"
        fill="#0046E4" />
    <path
        d="M158.449 16.3106L159.508 16.9382C160.763 16.2526 162.155 15.9199 163.861 15.9199C168.252 15.9199 169.467 18.1153 169.467 20.8199V26.1131H166.331V21.2106C166.331 19.9352 166.331 18.7606 163.685 18.7606C162.606 18.7606 161.666 18.9169 160.804 19.1916V26.1106H157.668V16.3081H158.449V16.3106Z"
        fill="#0046E4" />
    <path
        d="M183.618 26.1169H182.834L181.775 25.5095C180.52 26.1749 179.129 26.5102 177.422 26.5102C173.031 26.5102 171.816 24.3147 171.816 21.6102V20.8263C171.816 18.1217 173.031 15.9263 177.422 15.9263C178.559 15.9263 179.56 16.0826 180.48 16.3775V11.417H181.263L183.615 12.7882V26.1169H183.618ZM180.482 23.2536V19.1955C179.6 18.9207 178.66 18.7644 177.601 18.7644C174.955 18.7644 174.955 19.9416 174.955 21.2144C174.955 22.4873 174.955 23.6644 177.601 23.6644C178.66 23.6644 179.6 23.5283 180.482 23.2536Z"
        fill="#0046E4" />
    <path
        d="M186.385 24.4066C186.385 23.3883 186.836 22.5439 188.462 22.5439H188.618C190.246 22.5439 190.695 23.3858 190.695 24.4066V24.6411C190.695 25.6594 190.244 26.5038 188.618 26.5038H188.462C186.833 26.5038 186.385 25.6619 186.385 24.6411V24.4066Z"
        fill="#0046E4" />
    <path
        d="M193.244 20.8199C193.244 18.1153 194.459 15.9199 198.85 15.9199H199.399C200.811 15.9199 202.164 16.0964 203.437 16.4089V19.3303C201.985 18.9194 200.4 18.7631 199.321 18.7631C196.38 18.7631 196.38 19.8016 196.38 21.2131C196.38 22.6246 196.38 23.6631 199.321 23.6631C200.4 23.6631 201.988 23.5068 203.437 23.0935V26.0148C202.162 26.3273 200.811 26.5038 199.399 26.5038H198.85C194.459 26.5038 193.244 24.3084 193.244 21.6038V20.8199Z"
        fill="#0046E4" />
    <path
        d="M205.617 20.8199C205.617 18.1153 206.832 15.9199 211.223 15.9199H211.772C216.163 15.9199 217.378 18.1153 217.378 20.8199V21.6038C217.378 24.3084 216.163 26.5038 211.772 26.5038H211.223C206.832 26.5038 205.617 24.3084 205.617 21.6038V20.8199ZM211.498 23.6606C214.243 23.6606 214.243 22.4835 214.243 21.2106C214.243 19.9352 214.243 18.7606 211.498 18.7606C208.753 18.7606 208.753 19.9377 208.753 21.2106C208.755 22.486 208.755 23.6606 211.498 23.6606Z"
        fill="#0046E4" />
    <path
        d="M220.614 16.3131L221.574 16.8803C222.85 16.2526 224.279 15.9199 225.945 15.9199C227.75 15.9199 228.965 16.3308 229.786 17.0189C231.079 16.293 232.511 15.9199 234.217 15.9199C238.374 15.9199 239.511 18.075 239.511 20.8199V26.1131H236.375V21.2131C236.375 19.9579 236.375 18.7631 234.16 18.7631C233.023 18.7631 232.022 18.9396 231.082 19.2723C231.2 19.7613 231.238 20.2906 231.238 20.8199V26.1131H228.103V21.2131C228.103 19.9579 228.103 18.7631 225.887 18.7631C224.808 18.7631 223.848 18.9194 222.966 19.2345V26.1156H219.83V16.3131H220.614Z"
        fill="#0046E4" />
</svg>
    