<svg width="24" height="24" viewBox="0 0 24 24" fill="none" xmlns="http://www.w3.org/2000/svg">
<rect width="24" height="24" rx="12" fill="#0052E2"/>
<path d="M10.474 10.0403L10.9804 8.24679L6.95606 6.9067C6.79991 6.85535 6.63219 6.85104 6.47355 6.89431C6.31505 6.93759 6.17282 7.02653 6.06442 7.15007C5.95602 7.27361 5.88644 7.4263 5.86418 7.58912C5.84191 7.75194 5.86798 7.91772 5.93932 8.0658L7.38511 11.051L9.62192 10.8294C9.66645 10.6266 9.77192 10.4423 9.92426 10.3012C10.0766 10.1602 10.2683 10.0691 10.474 10.0403Z" fill="white"/>
<path d="M16.6559 10.1319L11.5578 10.6382C11.4776 10.4603 11.3494 10.3083 11.1877 10.199L11.6982 8.48471L16.6559 10.1319Z" fill="white"/>
<path d="M9.15419 14.7154L9.96762 11.838C9.84574 11.7336 9.75024 11.6019 9.68901 11.4536L7.67588 11.6387L9.15419 14.7154Z" fill="white"/>
<path d="M17.6401 8.15324L16.9751 9.51366L12.8308 8.0902L16.5685 6.90873C16.7352 6.85571 16.9139 6.85287 17.0822 6.90056C17.2506 6.94825 17.4012 7.04437 17.5153 7.17697C17.6296 7.30956 17.7022 7.47279 17.7245 7.64636C17.7466 7.81994 17.7173 7.9962 17.6401 8.15324Z" fill="white"/>
<path d="M16.296 10.8416L12.4729 18.394C12.4001 18.5369 12.2889 18.6566 12.1518 18.7397C12.0147 18.8229 11.8571 18.8661 11.6969 18.8646C11.5365 18.8632 11.3797 18.817 11.2442 18.7314C11.1086 18.6457 10.9996 18.524 10.9294 18.3798L9.58134 15.604L10.6306 12.082C10.8616 12.0809 11.0853 12.0011 11.265 11.8559C11.4446 11.7106 11.5694 11.5085 11.6189 11.2828L16.296 10.8416Z" fill="white"/>
</svg>
