<svg width="72" height="55" viewBox="0 0 72 55" fill="none" xmlns="http://www.w3.org/2000/svg">
<g filter="url(#filter0_dd_3728_37961)">
<path d="M68 39C68 30.5131 64.6286 22.3737 58.6274 16.3726C52.6263 10.3714 44.4869 7 36 7C27.5131 7 19.3737 10.3714 13.3726 16.3726C7.37142 22.3737 4 30.5131 4 39L36 39H68Z" fill="#D1E9FF"/>
</g>
<g filter="url(#filter1_dd_3728_37961)">
<circle cx="36" cy="27" r="22" fill="white"/>
</g>
<circle cx="23" cy="30" r="3" fill="#0052E2"/>
<circle cx="48" cy="30" r="3" fill="#0052E2"/>
<path d="M57 21.5C57 15.7978 54.7348 10.3292 50.7028 6.2972C46.6708 2.26517 41.2022 4.30501e-07 35.5 0C29.7978 -4.30501e-07 24.3292 2.26517 20.2972 6.2972C16.2652 10.3292 14 15.7978 14 21.5L35.5 21.5H57Z" fill="#D1E9FF"/>
<path d="M61.533 16.6276L53.1737 2.64205C52.8757 2.14224 52.4497 1.7277 51.9381 1.43964C51.4265 1.15157 50.847 1 50.2572 1C49.6675 1 49.088 1.15157 48.5763 1.43964C48.0647 1.7277 47.6387 2.14224 47.3408 2.64205L40.4031 14.2661L37.966 18.3748H34.0747L33.0348 16.6276L24.6511 2.64205C24.3531 2.14224 23.9272 1.7277 23.4155 1.43964C22.9039 1.15157 22.3244 1 21.7347 1C21.1449 1 20.5654 1.15157 20.0538 1.43964C19.5421 1.7277 19.1162 2.14224 18.8182 2.64205L10.467 16.6276C10.1647 17.132 10.0036 17.7059 10.0001 18.2912C9.9965 18.8764 10.1506 19.4522 10.4467 19.9601C10.7428 20.468 11.1704 20.8899 11.6862 21.1832C12.2019 21.4764 12.7875 21.6305 13.3834 21.6298H25.106L33.4329 35.5595C33.6954 35.998 34.07 36.3615 34.5195 36.614C34.9691 36.8666 35.478 36.9995 35.9959 36.9995C36.5138 36.9995 37.0228 36.8666 37.4723 36.614C37.9219 36.3615 38.2965 35.998 38.559 35.5595L46.8859 21.6298H58.6166C59.2125 21.6305 59.7981 21.4764 60.3138 21.1832C60.8296 20.8899 61.2572 20.468 61.5533 19.9601C61.8494 19.4522 62.0035 18.8764 61.9999 18.2912C61.9964 17.7059 61.8353 17.132 61.533 16.6276Z" fill="#0052E2"/>
<defs>
<filter id="filter0_dd_3728_37961" x="0" y="5" width="72" height="40" filterUnits="userSpaceOnUse" color-interpolation-filters="sRGB">
<feFlood flood-opacity="0" result="BackgroundImageFix"/>
<feColorMatrix in="SourceAlpha" type="matrix" values="0 0 0 0 0 0 0 0 0 0 0 0 0 0 0 0 0 0 127 0" result="hardAlpha"/>
<feOffset dy="2"/>
<feGaussianBlur stdDeviation="2"/>
<feColorMatrix type="matrix" values="0 0 0 0 0.596078 0 0 0 0 0.635294 0 0 0 0 0.701961 0 0 0 0.2 0"/>
<feBlend mode="multiply" in2="BackgroundImageFix" result="effect1_dropShadow_3728_37961"/>
<feColorMatrix in="SourceAlpha" type="matrix" values="0 0 0 0 0 0 0 0 0 0 0 0 0 0 0 0 0 0 127 0" result="hardAlpha"/>
<feOffset dy="1"/>
<feGaussianBlur stdDeviation="1"/>
<feColorMatrix type="matrix" values="0 0 0 0 0.596078 0 0 0 0 0.635294 0 0 0 0 0.701961 0 0 0 0.2 0"/>
<feBlend mode="multiply" in2="effect1_dropShadow_3728_37961" result="effect2_dropShadow_3728_37961"/>
<feBlend mode="normal" in="SourceGraphic" in2="effect2_dropShadow_3728_37961" result="shape"/>
</filter>
<filter id="filter1_dd_3728_37961" x="10" y="3" width="52" height="52" filterUnits="userSpaceOnUse" color-interpolation-filters="sRGB">
<feFlood flood-opacity="0" result="BackgroundImageFix"/>
<feColorMatrix in="SourceAlpha" type="matrix" values="0 0 0 0 0 0 0 0 0 0 0 0 0 0 0 0 0 0 127 0" result="hardAlpha"/>
<feOffset dy="2"/>
<feGaussianBlur stdDeviation="2"/>
<feColorMatrix type="matrix" values="0 0 0 0 0.596078 0 0 0 0 0.635294 0 0 0 0 0.701961 0 0 0 0.2 0"/>
<feBlend mode="multiply" in2="BackgroundImageFix" result="effect1_dropShadow_3728_37961"/>
<feColorMatrix in="SourceAlpha" type="matrix" values="0 0 0 0 0 0 0 0 0 0 0 0 0 0 0 0 0 0 127 0" result="hardAlpha"/>
<feOffset dy="1"/>
<feGaussianBlur stdDeviation="1"/>
<feColorMatrix type="matrix" values="0 0 0 0 0.596078 0 0 0 0 0.635294 0 0 0 0 0.701961 0 0 0 0.2 0"/>
<feBlend mode="multiply" in2="effect1_dropShadow_3728_37961" result="effect2_dropShadow_3728_37961"/>
<feBlend mode="normal" in="SourceGraphic" in2="effect2_dropShadow_3728_37961" result="shape"/>
</filter>
</defs>
</svg>
