<svg width="21" height="22" viewBox="0 0 21 22" fill="none" xmlns="http://www.w3.org/2000/svg">
<path d="M8.37201 6.27259L9.19134 3.27039L2.67963 1.02725C2.42704 0.941296 2.15559 0.934093 1.89907 1.00653C1.64254 1.07896 1.41226 1.22783 1.23691 1.43463C1.06156 1.64142 0.948877 1.897 0.912874 2.16955C0.876872 2.44209 0.919147 2.71957 1.03444 2.96745L3.3739 7.96431L6.99334 7.59329C7.06533 7.25388 7.23604 6.9454 7.4825 6.7093C7.72896 6.47321 8.03936 6.32081 8.37201 6.27259Z" fill="#0045DC"/>
<path d="M18.3748 6.42237L10.1258 7.26993C9.99584 6.9722 9.78851 6.71765 9.52691 6.5347L10.3528 3.66525L18.3748 6.42237Z" fill="#0045DC"/>
<path d="M7.55274 9.2816L6.23658 14.098L3.82801 8.94803L7.08221 8.63827C7.18695 8.88863 7.34832 9.10926 7.55274 9.2816Z" fill="#0045DC"/>
<path d="M18.8815 5.39042L19.9541 3.11324C20.0769 2.85191 20.1232 2.55915 20.0873 2.27098C20.0514 1.98281 19.9349 1.71177 19.752 1.49118C19.5692 1.2706 19.3281 1.11009 19.0582 1.02938C18.7884 0.948666 18.5017 0.951276 18.2333 1.03689L12.1855 3.01793L18.8815 5.39042Z" fill="#4F85FF"/>
<path d="M11.5933 20.255L17.7792 7.61313L10.2179 8.33815C10.1379 8.71589 9.93592 9.0542 9.64525 9.29735C9.35459 9.5405 8.99254 9.674 8.61873 9.67587L6.9209 15.5713L9.09584 20.2312C9.20938 20.4725 9.38572 20.6763 9.60505 20.8197C9.82437 20.9631 10.078 21.0403 10.3374 21.0428C10.5969 21.0453 10.8518 20.9729 11.0737 20.8337C11.2955 20.6946 11.4754 20.4942 11.5933 20.255Z" fill="#4F85FF"/>
</svg>
