<svg width="24" height="24" viewBox="0 0 24 24" fill="none" xmlns="http://www.w3.org/2000/svg">
<path d="M22.8 12C23.4627 12 24.0062 11.4614 23.9401 10.802C23.7444 8.85188 23.0732 6.97284 21.9776 5.33316C20.6591 3.35977 18.7849 1.8217 16.5922 0.913447C14.3995 0.00519472 11.9867 -0.232446 9.65892 0.230576C7.33115 0.693598 5.19295 1.83649 3.51472 3.51471C1.83649 5.19294 0.693602 7.33114 0.230578 9.65891C-0.232446 11.9867 0.00519252 14.3995 0.913442 16.5922C1.82169 18.7849 3.35976 20.6591 5.33315 21.9776C6.97283 23.0732 8.85186 23.7444 10.8019 23.9401C11.4614 24.0062 12 23.4627 12 22.8V22.8C12 22.1373 11.4607 21.6077 10.8031 21.5251C9.3285 21.3398 7.9113 20.8138 6.66652 19.9821C5.08781 18.9272 3.85735 17.4279 3.13075 15.6738C2.40415 13.9196 2.21404 11.9893 2.58446 10.1271C2.95488 8.26491 3.86919 6.55435 5.21178 5.21177C6.55436 3.86919 8.26492 2.95488 10.1271 2.58446C11.9894 2.21404 13.9196 2.40416 15.6738 3.13076C17.4279 3.85736 18.9272 5.08781 19.9821 6.66653C20.8138 7.91131 21.3398 9.32851 21.5251 10.8031C21.6077 11.4607 22.1373 12 22.8 12V12Z" fill="url(#paint0_linear_594_65307)"/>
<defs>
<linearGradient id="paint0_linear_594_65307" x1="12" y1="24" x2="30" y2="9" gradientUnits="userSpaceOnUse">
<stop stop-color="#1570EF"/>
<stop offset="1" stop-color="#1570EF" stop-opacity="0"/>
</linearGradient>
</defs>
</svg>
