<svg width="24" height="24" viewBox="0 0 24 24" fill="none" xmlns="http://www.w3.org/2000/svg">
<path d="M11.114 11.2822H12.8859V15.3135H11.114V11.2822Z" fill="url(#paint0_linear_25818_131537)"/>
<path d="M9.99841 17.0383C9.99841 15.932 10.8937 15.0273 12 15.0273C13.1062 15.0273 14.0015 15.932 14.0015 17.0383H9.99841Z" fill="url(#paint1_linear_25818_131537)"/>
<path d="M9.1875 17.0381H14.8125C15.3281 17.0381 15.75 17.46 15.75 17.9756V19.6162H8.25V17.9756C8.25 17.46 8.67188 17.0381 9.1875 17.0381Z" fill="url(#paint2_linear_25818_131537)"/>
<path d="M7.66406 19.6162H16.3359C17.0484 19.6162 17.625 20.1928 17.625 20.9053C17.625 21.6178 17.0484 22.1943 16.3359 22.1943H7.66406C6.95156 22.1943 6.375 21.6178 6.375 20.9053C6.375 20.1928 6.95156 19.6162 7.66406 19.6162Z" fill="url(#paint3_linear_25818_131537)"/>
<path d="M13.8984 16.6346C13.7812 16.6346 13.6781 16.5455 13.664 16.4236C13.6499 16.2924 13.7437 16.1799 13.8749 16.1658C13.9031 16.1611 15.6421 15.9643 17.3015 14.6424C19.4999 12.8893 20.5734 9.94083 20.3952 6.1252C20.3906 5.99395 20.489 5.88614 20.6202 5.88145C20.7468 5.87208 20.8593 5.9752 20.864 6.10645C20.9624 8.32364 20.6671 10.2549 19.9781 11.8486C19.4202 13.133 18.614 14.2018 17.5734 15.0268C15.8015 16.4283 13.9968 16.6299 13.9218 16.6346C13.9171 16.6346 13.9077 16.6346 13.8984 16.6346Z" fill="url(#paint4_linear_25818_131537)"/>
<path d="M22.439 8.84454C21.614 9.52891 20.4468 9.47735 20.4468 9.47735C20.4468 9.47735 20.6155 8.31954 21.4405 7.63516C22.2655 6.95079 23.4327 7.00235 23.4327 7.00235C23.4327 7.00235 23.264 8.16016 22.439 8.84454Z" fill="url(#paint5_linear_25818_131537)"/>
<path d="M19.9733 7.43789C20.5874 8.31445 20.4421 9.47695 20.4421 9.47695C20.4421 9.47695 19.303 9.21445 18.6889 8.33789C18.0749 7.46133 18.2202 6.29883 18.2202 6.29883C18.2202 6.29883 19.3593 6.56133 19.9733 7.43789Z" fill="url(#paint6_linear_25818_131537)"/>
<path d="M19.3499 9.97383C19.889 10.902 19.6452 12.0457 19.6452 12.0457C19.6452 12.0457 18.5296 11.6848 17.9952 10.7613C17.4562 9.8332 17.6999 8.68945 17.6999 8.68945C17.6999 8.68945 18.8156 9.0457 19.3499 9.97383Z" fill="url(#paint7_linear_25818_131537)"/>
<path d="M18.3187 12.3551C18.5343 13.4051 17.939 14.4129 17.939 14.4129C17.939 14.4129 16.9968 13.7191 16.7859 12.6691C16.5749 11.6191 17.1656 10.6113 17.1656 10.6113C17.1656 10.6113 18.1031 11.3051 18.3187 12.3551Z" fill="url(#paint8_linear_25818_131537)"/>
<path d="M16.6733 14.2443C16.453 15.2943 15.5061 15.9834 15.5061 15.9834C15.5061 15.9834 14.9155 14.9709 15.1358 13.9256C15.3561 12.8803 16.303 12.1865 16.303 12.1865C16.303 12.1865 16.8936 13.1943 16.6733 14.2443Z" fill="url(#paint9_linear_25818_131537)"/>
<path d="M21.6843 11.5959C20.8031 12.2006 19.6406 12.0459 19.6406 12.0459C19.6406 12.0459 19.9124 10.9069 20.7984 10.3022C21.6843 9.69751 22.8421 9.85219 22.8421 9.85219C22.8421 9.85219 22.5703 10.9913 21.6843 11.5959Z" fill="url(#paint10_linear_25818_131537)"/>
<path d="M20.0343 14.4315C19.0359 14.8206 17.9437 14.4081 17.9437 14.4081C17.9437 14.4081 18.4687 13.3627 19.4671 12.9737C20.4655 12.5846 21.5577 12.9971 21.5577 12.9971C21.5577 12.9971 21.0327 14.0424 20.0343 14.4315Z" fill="url(#paint11_linear_25818_131537)"/>
<path d="M17.4234 16.8086C16.3499 16.7804 15.5062 15.9742 15.5062 15.9742C15.5062 15.9742 16.3968 15.2148 17.4655 15.2429C18.5343 15.2711 19.3827 16.0773 19.3827 16.0773C19.3827 16.0773 18.4921 16.8367 17.4234 16.8086Z" fill="url(#paint12_linear_25818_131537)"/>
<path d="M21.4359 5.54902C21.4359 6.62246 20.6531 7.48965 20.6531 7.48965C20.6531 7.48965 19.8702 6.62246 19.8702 5.54902C19.8702 4.47559 20.6484 3.6084 20.6484 3.6084C20.6484 3.6084 21.4359 4.47559 21.4359 5.54902Z" fill="url(#paint13_linear_25818_131537)"/>
<path d="M10.1015 16.6346C10.2187 16.6346 10.3218 16.5455 10.3358 16.4236C10.3499 16.2924 10.2562 16.1799 10.1249 16.1658C10.0968 16.1611 8.35772 15.9643 6.69834 14.6424C4.4999 12.8893 3.42647 9.94083 3.60459 6.1252C3.60928 5.99395 3.51084 5.88614 3.37959 5.88145C3.25303 5.87208 3.14053 5.9752 3.13584 6.10645C3.03272 8.32364 3.33272 10.2549 4.02178 11.8486C4.57959 13.133 5.38584 14.2018 6.42647 15.0268C8.19834 16.4283 10.003 16.6299 10.078 16.6346H10.1015Z" fill="url(#paint14_linear_25818_131537)"/>
<path d="M1.56077 8.84454C2.38577 9.52891 3.55764 9.47735 3.55764 9.47735C3.55764 9.47735 3.38889 8.31954 2.56389 7.63516C1.73889 6.95079 0.567017 7.00235 0.567017 7.00235C0.567017 7.00235 0.735767 8.16016 1.56077 8.84454Z" fill="url(#paint15_linear_25818_131537)"/>
<path d="M4.02647 7.43789C3.41241 8.31445 3.55772 9.47695 3.55772 9.47695C3.55772 9.47695 4.69678 9.21445 5.31085 8.33789C5.92491 7.46133 5.7796 6.29883 5.7796 6.29883C5.7796 6.29883 4.64053 6.56133 4.02647 7.43789Z" fill="url(#paint16_linear_25818_131537)"/>
<path d="M4.64989 9.97383C4.11552 10.902 4.35458 12.0457 4.35458 12.0457C4.35458 12.0457 5.4702 11.6848 6.00458 10.7613C6.53895 9.83789 6.29989 8.68945 6.29989 8.68945C6.29989 8.68945 5.18427 9.0457 4.64989 9.97383Z" fill="url(#paint17_linear_25818_131537)"/>
<path d="M5.68121 12.3551C5.46559 13.4051 6.0609 14.4129 6.0609 14.4129C6.0609 14.4129 7.00309 13.7191 7.21871 12.6691C7.43434 11.6191 6.83903 10.6113 6.83903 10.6113C6.83903 10.6113 5.89684 11.3051 5.68121 12.3551Z" fill="url(#paint18_linear_25818_131537)"/>
<path d="M7.32645 14.2443C7.54676 15.2943 8.49363 15.9834 8.49363 15.9834C8.49363 15.9834 9.08426 14.9709 8.86395 13.9256C8.64363 12.8803 7.69676 12.1865 7.69676 12.1865C7.69676 12.1865 7.10613 13.1943 7.32645 14.2443Z" fill="url(#paint19_linear_25818_131537)"/>
<path d="M2.31553 11.5959C3.19678 12.2006 4.35928 12.0459 4.35928 12.0459C4.35928 12.0459 4.0874 10.9069 3.20146 10.3022C2.31553 9.69751 1.15771 9.85219 1.15771 9.85219C1.15771 9.85219 1.42959 10.9913 2.31553 11.5959Z" fill="url(#paint20_linear_25818_131537)"/>
<path d="M3.96553 14.4315C4.96396 14.8206 6.05615 14.4081 6.05615 14.4081C6.05615 14.4081 5.53115 13.3627 4.5374 12.9737C3.53896 12.5846 2.44678 12.9971 2.44678 12.9971C2.44678 12.9971 2.96709 14.0424 3.96553 14.4315Z" fill="url(#paint21_linear_25818_131537)"/>
<path d="M6.57644 16.8086C7.64988 16.7804 8.49363 15.9742 8.49363 15.9742C8.49363 15.9742 7.603 15.2148 6.53425 15.2429C5.4655 15.2711 4.61707 16.0773 4.61707 16.0773C4.61707 16.0773 5.50769 16.8367 6.57644 16.8086Z" fill="url(#paint22_linear_25818_131537)"/>
<path d="M2.56396 5.54902C2.56396 6.62246 3.34678 7.48965 3.34678 7.48965C3.34678 7.48965 4.12959 6.62246 4.12959 5.54902C4.12959 4.47559 3.34678 3.6084 3.34678 3.6084C3.34678 3.6084 2.56396 4.47559 2.56396 5.54902Z" fill="url(#paint23_linear_25818_131537)"/>
<path d="M13.1625 2.50723L14.2313 4.54629L16.5047 4.93067C17.55 5.10879 17.9672 6.38848 17.2266 7.14316L15.6141 8.79317L15.9469 11.0713C16.1016 12.1213 15.0141 12.9088 14.0625 12.44L12 11.4229L9.93751 12.4447C8.98595 12.9135 7.89845 12.126 8.05314 11.076L8.38595 8.79785L6.77345 7.14785C6.03282 6.38848 6.45001 5.11348 7.49532 4.93535L9.76876 4.55098L10.8375 2.51192C11.3297 1.56973 12.6703 1.56973 13.1625 2.50723Z" fill="url(#paint24_linear_25818_131537)"/>
<defs>
<linearGradient id="paint0_linear_25818_131537" x1="12.0002" y1="15.3123" x2="12.0002" y2="11.282" gradientUnits="userSpaceOnUse">
<stop stop-color="#FCD34F"/>
<stop offset="1" stop-color="#FF6A00"/>
</linearGradient>
<linearGradient id="paint1_linear_25818_131537" x1="12" y1="15.0257" x2="12" y2="17.0385" gradientUnits="userSpaceOnUse">
<stop stop-color="#FCD34F"/>
<stop offset="1" stop-color="#FF6A00"/>
</linearGradient>
<linearGradient id="paint2_linear_25818_131537" x1="12" y1="19.6164" x2="12" y2="17.0383" gradientUnits="userSpaceOnUse">
<stop stop-color="#3D5969"/>
<stop offset="1" stop-color="#698999"/>
</linearGradient>
<linearGradient id="paint3_linear_25818_131537" x1="12" y1="22.1946" x2="12" y2="19.6164" gradientUnits="userSpaceOnUse">
<stop stop-color="#FF9900"/>
<stop offset="1" stop-color="#FCD34F"/>
</linearGradient>
<linearGradient id="paint4_linear_25818_131537" x1="17.2753" y1="5.87808" x2="17.2753" y2="16.6348" gradientUnits="userSpaceOnUse">
<stop stop-color="#FF9900"/>
<stop offset="1" stop-color="#FCD34F"/>
</linearGradient>
<linearGradient id="paint5_linear_25818_131537" x1="21.9294" y1="9.48946" x2="21.9302" y2="7.01482" gradientUnits="userSpaceOnUse">
<stop stop-color="#FF9900"/>
<stop offset="1" stop-color="#FCD34F"/>
</linearGradient>
<linearGradient id="paint6_linear_25818_131537" x1="19.3296" y1="9.49823" x2="19.3302" y2="6.32053" gradientUnits="userSpaceOnUse">
<stop stop-color="#FF9900"/>
<stop offset="1" stop-color="#FCD34F"/>
</linearGradient>
<linearGradient id="paint7_linear_25818_131537" x1="18.5991" y1="12.0147" x2="18.7226" y2="8.73604" gradientUnits="userSpaceOnUse">
<stop stop-color="#FF9900"/>
<stop offset="1" stop-color="#FCD34F"/>
</linearGradient>
<linearGradient id="paint8_linear_25818_131537" x1="17.5523" y1="14.4018" x2="17.5514" y2="10.599" gradientUnits="userSpaceOnUse">
<stop stop-color="#FF9900"/>
<stop offset="1" stop-color="#FCD34F"/>
</linearGradient>
<linearGradient id="paint9_linear_25818_131537" x1="15.9167" y1="15.9702" x2="15.9155" y2="12.1719" gradientUnits="userSpaceOnUse">
<stop stop-color="#FF9900"/>
<stop offset="1" stop-color="#FCD34F"/>
</linearGradient>
<linearGradient id="paint10_linear_25818_131537" x1="21.2079" y1="12.1034" x2="21.2955" y2="9.77841" gradientUnits="userSpaceOnUse">
<stop stop-color="#FF9900"/>
<stop offset="1" stop-color="#FCD34F"/>
</linearGradient>
<linearGradient id="paint11_linear_25818_131537" x1="19.7294" y1="14.5827" x2="19.73" y2="12.788" gradientUnits="userSpaceOnUse">
<stop stop-color="#FF9900"/>
<stop offset="1" stop-color="#FCD34F"/>
</linearGradient>
<linearGradient id="paint12_linear_25818_131537" x1="17.4513" y1="16.8343" x2="17.4508" y2="15.2652" gradientUnits="userSpaceOnUse">
<stop stop-color="#FF9900"/>
<stop offset="1" stop-color="#FCD34F"/>
</linearGradient>
<linearGradient id="paint13_linear_25818_131537" x1="20.6507" y1="7.48801" x2="20.6507" y2="3.6077" gradientUnits="userSpaceOnUse">
<stop stop-color="#FF9900"/>
<stop offset="1" stop-color="#FCD34F"/>
</linearGradient>
<linearGradient id="paint14_linear_25818_131537" x1="6.72501" y1="5.87808" x2="6.72501" y2="16.6348" gradientUnits="userSpaceOnUse">
<stop stop-color="#FF9900"/>
<stop offset="1" stop-color="#FCD34F"/>
</linearGradient>
<linearGradient id="paint15_linear_25818_131537" x1="2.07038" y1="9.48915" x2="2.06969" y2="7.01451" gradientUnits="userSpaceOnUse">
<stop stop-color="#FF9900"/>
<stop offset="1" stop-color="#FCD34F"/>
</linearGradient>
<linearGradient id="paint16_linear_25818_131537" x1="4.66978" y1="9.49801" x2="4.66916" y2="6.32035" gradientUnits="userSpaceOnUse">
<stop stop-color="#FF9900"/>
<stop offset="1" stop-color="#FCD34F"/>
</linearGradient>
<linearGradient id="paint17_linear_25818_131537" x1="5.40075" y1="12.0149" x2="5.27732" y2="8.73624" gradientUnits="userSpaceOnUse">
<stop stop-color="#FF9900"/>
<stop offset="1" stop-color="#FCD34F"/>
</linearGradient>
<linearGradient id="paint18_linear_25818_131537" x1="6.44829" y1="14.402" x2="6.44923" y2="10.5993" gradientUnits="userSpaceOnUse">
<stop stop-color="#FF9900"/>
<stop offset="1" stop-color="#FCD34F"/>
</linearGradient>
<linearGradient id="paint19_linear_25818_131537" x1="8.08372" y1="15.9706" x2="8.08498" y2="12.1723" gradientUnits="userSpaceOnUse">
<stop stop-color="#FF9900"/>
<stop offset="1" stop-color="#FCD34F"/>
</linearGradient>
<linearGradient id="paint20_linear_25818_131537" x1="2.79186" y1="12.1036" x2="2.70426" y2="9.77865" gradientUnits="userSpaceOnUse">
<stop stop-color="#FF9900"/>
<stop offset="1" stop-color="#FCD34F"/>
</linearGradient>
<linearGradient id="paint21_linear_25818_131537" x1="4.27051" y1="14.5824" x2="4.26988" y2="12.7878" gradientUnits="userSpaceOnUse">
<stop stop-color="#FF9900"/>
<stop offset="1" stop-color="#FCD34F"/>
</linearGradient>
<linearGradient id="paint22_linear_25818_131537" x1="6.54885" y1="16.8345" x2="6.54933" y2="15.2654" gradientUnits="userSpaceOnUse">
<stop stop-color="#FF9900"/>
<stop offset="1" stop-color="#FCD34F"/>
</linearGradient>
<linearGradient id="paint23_linear_25818_131537" x1="3.34912" y1="7.48801" x2="3.34912" y2="3.6077" gradientUnits="userSpaceOnUse">
<stop stop-color="#FF9900"/>
<stop offset="1" stop-color="#FCD34F"/>
</linearGradient>
<linearGradient id="paint24_linear_25818_131537" x1="11.9999" y1="12.5846" x2="11.9999" y2="1.80373" gradientUnits="userSpaceOnUse">
<stop stop-color="#FF9900"/>
<stop offset="0.11" stop-color="#FFA200"/>
<stop offset="0.37" stop-color="#FFB300"/>
<stop offset="0.65" stop-color="#FFBD00"/>
<stop offset="1" stop-color="#FFC100"/>
</linearGradient>
</defs>
</svg>
