<svg width="108" height="81" viewBox="0 0 108 81" fill="none" xmlns="http://www.w3.org/2000/svg">
<path d="M91.574 41.175C91.574 51.825 87.2241 61.4249 80.2491 68.3249C73.4241 75.1498 63.9742 79.2748 53.5492 79.2748C43.1993 79.2748 33.7493 75.0748 26.8494 68.3249C19.8744 61.4249 15.5244 51.825 15.5244 41.175C15.5244 20.1001 32.5493 3.0752 53.5492 3.0752C74.5491 3.0752 91.574 20.1751 91.574 41.175Z" fill="#F1F3F9" stroke="#D6DCE8" stroke-width="1.49999" stroke-miterlimit="10"/>
<path d="M88.2742 16.1998C89.9725 16.1998 91.3492 14.8231 91.3492 13.1248C91.3492 11.4265 89.9725 10.0498 88.2742 10.0498C86.5759 10.0498 85.1992 11.4265 85.1992 13.1248C85.1992 14.8231 86.5759 16.1998 88.2742 16.1998Z" fill="#F1F3F9"/>
<path d="M92.7758 4.19998C93.9356 4.19998 94.8758 3.25978 94.8758 2.09999C94.8758 0.940197 93.9356 0 92.7758 0C91.616 0 90.6758 0.940197 90.6758 2.09999C90.6758 3.25978 91.616 4.19998 92.7758 4.19998Z" fill="#F1F3F9"/>
<path d="M16.724 16.1248C17.8838 16.1248 18.824 15.1846 18.824 14.0248C18.824 12.865 17.8838 11.9248 16.724 11.9248C15.5642 11.9248 14.624 12.865 14.624 14.0248C14.624 15.1846 15.5642 16.1248 16.724 16.1248Z" fill="#F1F3F9"/>
<path d="M3.89998 56.6252C6.05388 56.6252 7.79996 54.8791 7.79996 52.7252C7.79996 50.5713 6.05388 48.8252 3.89998 48.8252C1.74608 48.8252 0 50.5713 0 52.7252C0 54.8791 1.74608 56.6252 3.89998 56.6252Z" fill="#F1F3F9"/>
<path d="M80.2503 21.2246V68.3244C73.4254 75.1493 63.9754 79.2743 53.5505 79.2743C43.2005 79.2743 33.7506 75.0743 26.8506 68.3244V21.2246H80.2503Z" fill="white" stroke="#D6DCE8" stroke-width="1.49999" stroke-miterlimit="10"/>
<path d="M50.9568 41.7291L63.0618 29.624L66.615 33.1772L51.0235 48.7687L51.0063 48.7514L50.9395 48.8182L40.4922 38.3708L44.0453 34.8177L50.9568 41.7291Z" fill="#D6DCE8" stroke="#AAB2C5" stroke-width="1.49999" stroke-miterlimit="10"/>
<path d="M67.1983 55.2002H39.8984V58.6502H67.1983V55.2002Z" fill="#D6DCE8"/>
<path d="M67.1983 62.7744H39.8984V66.2244H67.1983V62.7744Z" fill="#D6DCE8"/>
<path d="M60.5251 70.4248H46.5752V73.8748H60.5251V70.4248Z" fill="#D6DCE8"/>
</svg>
