<svg width="16" height="16" viewBox="0 0 16 16" fill="none" xmlns="http://www.w3.org/2000/svg">
<path d="M10.793 1.55322H5.20634C2.77967 1.55322 1.33301 3.00656 1.33301 5.43322V11.0132C1.33301 13.4399 2.77967 14.8866 5.20634 14.8866H10.7863C13.213 14.8866 14.6597 13.4399 14.6597 11.0132V5.43322C14.6663 3.00656 13.2197 1.55322 10.793 1.55322ZM7.71301 11.4132C7.71301 11.6132 7.61301 11.7932 7.43967 11.8999C7.34634 11.9599 7.24634 11.9866 7.13967 11.9866C7.05301 11.9866 6.96634 11.9666 6.87967 11.9266L4.54634 10.7599C4.21301 10.5866 3.99967 10.2466 3.99967 9.86656V7.65989C3.99967 7.45989 4.09967 7.27989 4.27301 7.17322C4.44634 7.06656 4.65301 7.05989 4.83301 7.14656L7.16634 8.31322C7.50634 8.48656 7.71967 8.82656 7.71967 9.20656V11.4132H7.71301ZM7.57301 7.84656L5.06634 6.49322C4.88634 6.39322 4.77301 6.19989 4.77301 5.97989C4.77301 5.76656 4.88634 5.56656 5.06634 5.46656L7.57301 4.11322C7.83967 3.97322 8.15301 3.97322 8.41967 4.11322L10.9263 5.46656C11.1063 5.56656 11.2197 5.75989 11.2197 5.97989C11.2197 6.19989 11.1063 6.39322 10.9263 6.49322L8.41967 7.84656C8.28634 7.91989 8.13967 7.95322 7.99301 7.95322C7.84634 7.95322 7.70634 7.91989 7.57301 7.84656ZM11.9997 9.86656C11.9997 10.2466 11.7863 10.5932 11.4463 10.7599L9.11301 11.9266C9.03301 11.9666 8.94634 11.9866 8.85301 11.9866C8.74634 11.9866 8.64634 11.9599 8.55301 11.8999C8.37967 11.7932 8.27967 11.6132 8.27967 11.4132V9.20656C8.27967 8.82656 8.49301 8.47989 8.83301 8.31322L11.1663 7.14656C11.3463 7.05989 11.553 7.06656 11.7263 7.17322C11.8997 7.27989 11.9997 7.45989 11.9997 7.65989V9.86656Z" fill="#1570EF"/>
</svg>
