<svg width="20" height="20" viewBox="0 0 20 20" fill="none" xmlns="http://www.w3.org/2000/svg">
<path d="M10.6438 2.3556L10.6438 2.3556L10.646 2.35677L15.8695 5.17263C15.8697 5.17275 15.8699 5.17287 15.8702 5.173C16.0845 5.28981 16.2249 5.51639 16.2249 5.79998C16.2249 6.08362 16.0845 6.31022 15.8701 6.42702C15.8699 6.42712 15.8697 6.42723 15.8695 6.42734L10.646 9.24319L10.646 9.24319L10.6438 9.24437C10.4441 9.35331 10.2184 9.40832 9.9999 9.40832C9.78145 9.40832 9.55572 9.35331 9.356 9.24436L9.35383 9.24319L4.13033 6.42734C4.13011 6.42722 4.1299 6.42711 4.12969 6.42699C3.91694 6.31105 3.7749 6.07721 3.7749 5.79998C3.7749 5.51639 3.91529 5.2898 4.12966 5.17299C4.12988 5.17287 4.1301 5.17275 4.13033 5.17263L9.35383 2.35677L9.35383 2.35678L9.35599 2.3556C9.75676 2.137 10.243 2.137 10.6438 2.3556Z" fill="#175CD3" stroke="#175CD3"/>
<path d="M8.25817 10.6584L3.3915 8.22504C3.0165 8.04171 2.58317 8.05837 2.23317 8.27504C1.87484 8.50004 1.6665 8.87504 1.6665 9.29171V13.8834C1.6665 14.675 2.10817 15.3917 2.8165 15.75L7.67484 18.1834C7.8415 18.2667 8.02484 18.3084 8.20817 18.3084C8.42484 18.3084 8.6415 18.25 8.83317 18.1334C9.1915 17.9167 9.39984 17.5334 9.39984 17.1167V12.525C9.40817 11.725 8.9665 11.0084 8.25817 10.6584Z" fill="#175CD3"/>
<path d="M17.7668 8.275C17.4084 8.05833 16.9751 8.03333 16.6084 8.22499L11.7501 10.6583C11.0418 11.0167 10.6001 11.725 10.6001 12.525V17.1167C10.6001 17.5333 10.8084 17.9167 11.1668 18.1333C11.3584 18.25 11.5751 18.3083 11.7918 18.3083C11.9751 18.3083 12.1584 18.2667 12.3251 18.1833L17.1834 15.75C17.8918 15.3917 18.3334 14.6833 18.3334 13.8833V9.29166C18.3334 8.87499 18.1251 8.5 17.7668 8.275Z" fill="#175CD3"/>
</svg>
