<svg width="16" height="16" viewBox="0 0 16 16" fill="none" xmlns="http://www.w3.org/2000/svg">
<path d="M12.8868 3.7866L8.70678 1.53327C8.26678 1.29327 7.73345 1.29327 7.29345 1.53327L3.11345 3.7866C2.80678 3.95327 2.62012 4.27327 2.62012 4.63994C2.62012 4.99994 2.80678 5.3266 3.11345 5.49327L7.29345 7.7466C7.51345 7.86661 7.76012 7.92661 8.00012 7.92661C8.24012 7.92661 8.48678 7.86661 8.70678 7.7466L12.8868 5.49327C13.1934 5.3266 13.3801 5.00661 13.3801 4.63994C13.3801 4.27327 13.1934 3.95327 12.8868 3.7866Z" fill="white"/>
<path d="M6.60683 8.52675L2.7135 6.58008C2.4135 6.43341 2.06683 6.44675 1.78683 6.62008C1.50016 6.80008 1.3335 7.10008 1.3335 7.43341V11.1067C1.3335 11.7401 1.68683 12.3134 2.2535 12.6001L6.14016 14.5467C6.2735 14.6134 6.42016 14.6467 6.56683 14.6467C6.74016 14.6467 6.9135 14.6001 7.06683 14.5067C7.3535 14.3334 7.52016 14.0267 7.52016 13.6934V10.0201C7.52683 9.38008 7.1735 8.80675 6.60683 8.52675Z" fill="#B2DDFF"/>
<path d="M14.2133 6.62009C13.9266 6.44676 13.58 6.42676 13.2866 6.58009L9.39998 8.52676C8.83331 8.81343 8.47998 9.38009 8.47998 10.0201V13.6934C8.47998 14.0268 8.64665 14.3334 8.93331 14.5068C9.08665 14.6001 9.25998 14.6468 9.43331 14.6468C9.57998 14.6468 9.72665 14.6134 9.85998 14.5468L13.7466 12.6001C14.3133 12.3134 14.6666 11.7468 14.6666 11.1068V7.43343C14.6666 7.10009 14.5 6.80009 14.2133 6.62009Z" fill="#53B1FD"/>
</svg>
