<svg width="20" height="20" viewBox="0 0 20 20" fill="none" xmlns="http://www.w3.org/2000/svg">
<path d="M14.1666 17.8334H5.83325C5.8031 17.8334 5.77182 17.8211 5.74618 17.7954C5.72054 17.7698 5.70825 17.7385 5.70825 17.7084C5.70825 17.6782 5.72054 17.6469 5.74618 17.6213C5.77182 17.5957 5.8031 17.5834 5.83325 17.5834H14.1666C14.1967 17.5834 14.228 17.5957 14.2537 17.6213C14.2793 17.6469 14.2916 17.6782 14.2916 17.7084C14.2916 17.7385 14.2793 17.7698 14.2537 17.7954C14.228 17.8211 14.1967 17.8334 14.1666 17.8334Z" fill="#1570EF" stroke="url(#paint0_linear_15420_14065)"/>
<path d="M17.2493 5.00595L17.2511 5.00469C17.5126 4.81602 17.8602 5.077 17.7472 5.38587L17.746 5.38941L14.2796 15.097C14.2795 15.0971 14.2795 15.0972 14.2795 15.0973C14.2338 15.2241 14.1051 15.3159 13.9668 15.3159H6.02518C5.88077 15.3159 5.75801 15.2271 5.71378 15.1007L5.71379 15.1007L5.71273 15.0977L2.2464 5.39035C2.24635 5.39022 2.24631 5.3901 2.24627 5.38998C2.13844 5.08508 2.48498 4.80762 2.76182 4.99936L6.09024 7.37918C6.80408 7.90146 7.80481 7.58632 8.11008 6.76627L9.69292 2.5759L9.69294 2.57591L9.69445 2.57182C9.80055 2.28335 10.2081 2.28335 10.3143 2.57182L10.3142 2.57182L10.3154 2.57478L11.8903 6.77478L11.8907 6.77562C12.1983 7.59164 13.2077 7.89686 13.9162 7.3891C13.9163 7.38903 13.9164 7.38897 13.9165 7.3889L17.2493 5.00595ZM7.91685 12.7909H12.0835C12.7013 12.7909 13.2085 12.2837 13.2085 11.6659C13.2085 11.0481 12.7013 10.5409 12.0835 10.5409H7.91685C7.29904 10.5409 6.79185 11.0481 6.79185 11.6659C6.79185 12.2837 7.29904 12.7909 7.91685 12.7909Z" fill="url(#paint1_linear_15420_14065)" stroke="url(#paint2_linear_15420_14065)"/>
<defs>
<linearGradient id="paint0_linear_15420_14065" x1="6.27307" y1="17.9072" x2="13.1752" y2="15.0297" gradientUnits="userSpaceOnUse">
<stop stop-color="#F3FAFF"/>
<stop offset="1" stop-color="#E3E3E3"/>
</linearGradient>
<linearGradient id="paint1_linear_15420_14065" x1="3.56226" y1="11.0566" x2="17.4937" y2="10.1587" gradientUnits="userSpaceOnUse">
<stop stop-color="#F3FAFF"/>
<stop offset="1" stop-color="#E3E3E3"/>
</linearGradient>
<linearGradient id="paint2_linear_15420_14065" x1="3.56226" y1="11.0566" x2="17.4937" y2="10.1587" gradientUnits="userSpaceOnUse">
<stop stop-color="#F3FAFF"/>
<stop offset="1" stop-color="#E3E3E3"/>
</linearGradient>
</defs>
</svg>
