<svg width="64" height="64" viewBox="0 0 64 64" fill="none" xmlns="http://www.w3.org/2000/svg">
<g id="Image" clip-path="url(#clip0_10978_138571)">
<path id="Vector" d="M58.1555 61.438L6.62329 61.8077C3.64879 61.821 1.22329 59.4231 1.18347 56.468L0.784095 7.16444C0.767466 4.18941 3.16224 1.7662 6.11677 1.72969L57.649 1.35997C60.6235 1.34668 63.049 3.74459 63.0888 6.69967L63.4882 56.0032C63.5048 58.9783 61.1101 61.4015 58.1555 61.438Z" fill="white" stroke="#D6DCE8" stroke-width="1.52381" stroke-miterlimit="10"/>
<path id="Vector_2" d="M55.254 54.0767L9.95295 54.4195C8.67153 54.4309 7.64013 53.4193 7.62729 52.1377L7.28363 11.3906C7.27079 10.109 8.28102 9.07853 9.56243 9.06714L54.8635 8.7243C56.1449 8.7129 57.1763 9.72447 57.1891 11.0061L57.5328 51.7532C57.5456 53.0348 56.5354 54.0653 55.254 54.0767Z" fill="#F1F3F9"/>
<path id="Vector_3" d="M33.3457 38.7842L16.82 38.8989L25.012 29.4699L33.3457 38.7842Z" fill="#AAB2C5"/>
<path id="Vector_4" d="M47.0498 38.6724L23.2274 38.8419L35.0254 25.3015L47.0498 38.6724Z" fill="#D6DCE8"/>
<path id="Vector_5" d="M24.9962 25.3229C26.3028 24.1992 26.45 22.2278 25.325 20.9198C24.1999 19.6117 22.2287 19.4623 20.9222 20.586C19.6156 21.7098 19.4684 23.6811 20.5934 24.9892C21.7184 26.2973 23.6896 26.4467 24.9962 25.3229Z" fill="#AAB2C5"/>
</g>
<defs>
<clipPath id="clip0_10978_138571">
<rect width="64" height="64" fill="white"/>
</clipPath>
</defs>
</svg>
