<svg width="24" height="24" viewBox="0 0 24 24" fill="none" xmlns="http://www.w3.org/2000/svg">
<g id="Layer_2_00000065075017556049499070000000165513497331853238_">
<g id="celebration_firework">
<path id="Vector" d="M2.33452 22.0407L12.0095 18.061C12.2767 17.9532 12.3658 17.6298 12.2064 17.3579C11.7564 16.5985 10.8095 15.122 9.60952 13.922C8.44702 12.7595 7.03608 11.8688 6.30014 11.4423C6.03296 11.2876 5.71421 11.3813 5.60639 11.6438L1.62202 21.3282C1.44858 21.7501 1.91733 22.2141 2.33452 22.0407Z" fill="#FCB424"/>
<path id="Vector_2" d="M12.2533 17.775C11.9674 18.0609 10.2611 16.9687 8.4799 15.1875C6.69865 13.4062 5.60646 11.6953 5.88771 11.4094C6.17365 11.1234 7.88927 12.2062 9.67521 13.9922C11.4611 15.7781 12.5346 17.4937 12.2533 17.775Z" fill="#D67909"/>
<path id="Vector_3" d="M6.35645 20.3858L4.09707 21.3187L2.34863 19.5655L3.27676 17.3062L6.35645 20.3858Z" fill="#ED3F03"/>
<path id="Vector_4" d="M10.4531 18.7032L8.19375 19.6313L4.03125 15.4688L4.95938 13.2095L10.4531 18.7032Z" fill="#ED3F03"/>
<g id="Group">
<path id="Vector_5" d="M5.1 6.16411C5.48315 6.16411 5.79375 5.85351 5.79375 5.47036C5.79375 5.08721 5.48315 4.77661 5.1 4.77661C4.71685 4.77661 4.40625 5.08721 4.40625 5.47036C4.40625 5.85351 4.71685 6.16411 5.1 6.16411Z" fill="#FCB424"/>
<path id="Vector_6" d="M5.1 1.82812C5.48438 1.82812 5.79375 2.1375 5.79375 2.52187V3.79688C5.79375 4.18125 5.48438 4.49063 5.1 4.49063C4.72031 4.49063 4.40625 4.18125 4.40625 3.79688V2.52187C4.40625 2.1375 4.72031 1.82812 5.1 1.82812Z" fill="#FCB424"/>
<path id="Vector_7" d="M2.15176 4.77661H3.42676C3.81113 4.77661 4.12051 5.08599 4.12051 5.47036C4.12051 5.85474 3.81113 6.16411 3.42676 6.16411H2.15176C1.76738 6.16411 1.45801 5.85474 1.45801 5.47036C1.45801 5.08599 1.76738 4.77661 2.15176 4.77661Z" fill="#FCB424"/>
<path id="Vector_8" d="M5.1 6.44995C5.48438 6.44995 5.79375 6.75933 5.79375 7.1437V8.4187C5.79375 8.80308 5.48438 9.11245 5.1 9.11245C4.71563 9.11245 4.40625 8.80308 4.40625 8.4187V7.1437C4.40625 6.75933 4.72031 6.44995 5.1 6.44995Z" fill="#FCB424"/>
<path id="Vector_9" d="M6.77383 4.77661H8.04883C8.4332 4.77661 8.74258 5.08599 8.74258 5.47036C8.74258 5.85474 8.4332 6.16411 8.04883 6.16411H6.77383C6.38945 6.16411 6.08008 5.85474 6.08008 5.47036C6.08008 5.08599 6.38945 4.77661 6.77383 4.77661Z" fill="#FCB424"/>
</g>
<path id="Vector_10" d="M19.9218 18.8531C20.3049 18.8531 20.6155 18.5425 20.6155 18.1593C20.6155 17.7762 20.3049 17.4656 19.9218 17.4656C19.5386 17.4656 19.228 17.7762 19.228 18.1593C19.228 18.5425 19.5386 18.8531 19.9218 18.8531Z" fill="#00C853"/>
<path id="Vector_11" d="M19.9218 14.5171C20.3062 14.5171 20.6155 14.8265 20.6155 15.2108V16.4858C20.6155 16.8702 20.3062 17.1796 19.9218 17.1796C19.5374 17.1796 19.228 16.8702 19.228 16.4858V15.2108C19.228 14.8265 19.5374 14.5171 19.9218 14.5171Z" fill="#00C853"/>
<path id="Vector_12" d="M16.9735 17.4656H18.2485C18.6329 17.4656 18.9423 17.775 18.9423 18.1593C18.9423 18.5437 18.6329 18.8531 18.2485 18.8531H16.9735C16.5892 18.8531 16.2798 18.5437 16.2798 18.1593C16.2798 17.775 16.5892 17.4656 16.9735 17.4656Z" fill="#00C853"/>
<path id="Vector_13" d="M19.9218 19.1392C20.3062 19.1392 20.6155 19.4485 20.6155 19.8329V21.1079C20.6155 21.4923 20.3062 21.8017 19.9218 21.8017C19.5374 21.8017 19.228 21.4923 19.228 21.1079V19.8329C19.228 19.4485 19.5374 19.1392 19.9218 19.1392Z" fill="#00C853"/>
<path id="Vector_14" d="M21.5956 17.4656H22.8706C23.255 17.4656 23.5644 17.775 23.5644 18.1593C23.5644 18.5437 23.255 18.8531 22.8706 18.8531H21.5956C21.2112 18.8531 20.9019 18.5437 20.9019 18.1593C20.9019 17.775 21.2112 17.4656 21.5956 17.4656Z" fill="#00C853"/>
<path id="Vector_15" d="M18.9423 5.18437C19.3254 5.18437 19.636 4.87377 19.636 4.49063C19.636 4.10748 19.3254 3.79688 18.9423 3.79688C18.5591 3.79688 18.2485 4.10748 18.2485 4.49063C18.2485 4.87377 18.5591 5.18437 18.9423 5.18437Z" fill="#07B7EE"/>
<path id="Vector_16" d="M18.9423 0.848389C19.3267 0.848389 19.636 1.15776 19.636 1.54214V2.81714C19.636 3.20151 19.3267 3.51089 18.9423 3.51089C18.5579 3.51089 18.2485 3.20151 18.2485 2.81714V1.54214C18.2485 1.15776 18.5626 0.848389 18.9423 0.848389Z" fill="#07B7EE"/>
<path id="Vector_17" d="M15.3003 4.49063C15.3003 4.10625 15.6097 3.79688 15.994 3.79688H17.269C17.6534 3.79688 17.9628 4.10625 17.9628 4.49063C17.9628 4.875 17.6534 5.18437 17.269 5.18437H15.994C15.6144 5.18437 15.3003 4.875 15.3003 4.49063Z" fill="#07B7EE"/>
<path id="Vector_18" d="M18.9423 8.13271C18.5579 8.13271 18.2485 7.82334 18.2485 7.43896V6.16396C18.2485 5.77959 18.5579 5.47021 18.9423 5.47021C19.3267 5.47021 19.636 5.77959 19.636 6.16396V7.43896C19.6407 7.82334 19.3267 8.13271 18.9423 8.13271Z" fill="#07B7EE"/>
<path id="Vector_19" d="M22.5893 4.49063C22.5893 4.875 22.2799 5.18437 21.8955 5.18437H20.6205C20.2361 5.18437 19.9268 4.875 19.9268 4.49063C19.9268 4.10625 20.2361 3.79688 20.6205 3.79688H21.8955C22.2752 3.79688 22.5893 4.10625 22.5893 4.49063Z" fill="#07B7EE"/>
<path id="Vector_20" d="M7.86121 14.2359C7.50496 14.1 7.32215 13.7015 7.45809 13.3406C7.52371 13.1718 7.64559 13.0359 7.80965 12.9609C8.41434 12.675 9.15496 12.2062 9.24871 11.5921C9.33778 11.025 8.85496 10.425 8.64871 10.2328C8.4284 10.05 7.20028 8.93901 7.48621 7.70151C7.6784 6.87651 8.45653 6.29058 9.80184 5.96714C10.6925 5.75151 11.0581 5.47026 11.1003 5.27339C11.1659 4.98276 10.73 4.43901 10.3972 4.16714C10.1018 3.92339 10.0597 3.48745 10.3034 3.19214C10.5425 2.90151 10.9737 2.85464 11.269 3.08901C11.419 3.21089 12.7315 4.31714 12.4503 5.57339C12.2628 6.39839 11.4847 6.97964 10.1253 7.30776C9.24403 7.5187 8.8784 7.80933 8.83153 8.0062C8.76121 8.31089 9.21121 8.89214 9.54871 9.17808L9.57215 9.19683C9.62371 9.2437 10.8284 10.364 10.6128 11.789C10.4675 12.7687 9.71746 13.5796 8.39559 14.2078C8.23153 14.2968 8.03465 14.3015 7.86121 14.2359Z" fill="#00C853"/>
<path id="Vector_21" d="M16.5846 23.9532C16.4205 24.0141 16.2424 24.0188 16.0737 23.9626C15.7362 23.8454 15.6049 23.4938 15.7783 23.1845C16.0783 22.6454 16.3737 21.9048 16.083 21.4641C15.8112 21.0563 15.0752 20.9673 14.7987 20.9673C14.5174 20.9813 12.8908 21.0188 12.3705 20.072C12.0237 19.4391 12.2815 18.6048 13.1346 17.597C13.6971 16.9313 13.8143 16.5329 13.7346 16.3876C13.6127 16.1673 12.9424 16.0829 12.5252 16.111C12.1502 16.1391 11.8502 15.8907 11.8596 15.5626C11.869 15.2345 12.183 14.9438 12.558 14.9157C12.7502 14.9016 14.433 14.8126 14.9721 15.7688C15.3237 16.397 15.0612 17.2313 14.1987 18.2485C13.6408 18.9095 13.5283 19.3079 13.6127 19.4579C13.7393 19.6923 14.4377 19.786 14.8737 19.7626H14.9065C14.9768 19.7626 16.5846 19.7438 17.2737 20.7657C17.7471 21.4688 17.6533 22.4251 16.9971 23.611C16.8987 23.7751 16.7533 23.8923 16.5846 23.9532Z" fill="#FCB424"/>
<path id="Vector_22" d="M12.8155 13.9642C12.4452 13.9501 12.1593 13.636 12.1733 13.2657C12.178 13.1063 12.2437 12.9517 12.3515 12.8345C12.389 12.7923 13.303 11.822 14.9999 10.9688C15.9937 10.472 17.0483 10.1157 18.1405 9.90947C19.5421 9.65166 20.9765 9.62822 22.3827 9.83916C22.7483 9.89072 23.0015 10.2329 22.9499 10.5985C22.8983 10.9642 22.5562 11.2173 22.1905 11.1657C19.8468 10.8235 17.6483 11.1517 15.6562 12.1407C14.1562 12.8813 13.3452 13.7392 13.3358 13.7438C13.2046 13.8985 13.0124 13.9735 12.8155 13.9642Z" fill="#9266CC"/>
<path id="Vector_23" d="M3.30013 15.1875C3.2345 15.1875 3.16888 15.1781 3.10794 15.1594C2.75169 15.0516 2.55013 14.6812 2.65794 14.325C2.897 13.4906 3.07513 12.6375 3.20169 11.775C3.44544 10.0125 3.21575 9.13124 2.92513 8.89218C2.69075 8.69999 2.14231 8.81249 1.42981 9.19687C1.10169 9.37499 0.693877 9.25312 0.520439 8.92499C0.342314 8.59687 0.464189 8.18905 0.792314 8.01562C2.06263 7.32655 3.06575 7.2703 3.77356 7.84687C4.57513 8.49843 4.82356 9.84843 4.52825 11.9719C4.397 12.8953 4.20013 13.8094 3.94231 14.7047C3.85794 14.9906 3.59544 15.1875 3.30013 15.1875Z" fill="#9266CC"/>
<path id="Vector_24" d="M14.4515 9.45469C14.92 9.45469 15.2999 9.07483 15.2999 8.60625C15.2999 8.13767 14.92 7.75781 14.4515 7.75781C13.9829 7.75781 13.603 8.13767 13.603 8.60625C13.603 9.07483 13.9829 9.45469 14.4515 9.45469Z" fill="#FCB424"/>
<path id="Vector_25" d="M13.6033 1.69688C14.0719 1.69688 14.4518 1.31702 14.4518 0.848438C14.4518 0.379858 14.0719 0 13.6033 0C13.1347 0 12.7549 0.379858 12.7549 0.848438C12.7549 1.31702 13.1347 1.69688 13.6033 1.69688Z" fill="#ED3F03"/>
<path id="Vector_26" d="M9.95186 22.275C10.48 22.275 10.9081 21.8469 10.9081 21.3188C10.9081 20.7907 10.48 20.3625 9.95186 20.3625C9.42373 20.3625 8.99561 20.7907 8.99561 21.3188C8.99561 21.8469 9.42373 22.275 9.95186 22.275Z" fill="#9266CC"/>
<path id="Vector_27" d="M17.9674 14.2829C18.335 14.2829 18.633 13.9849 18.633 13.6173C18.633 13.2497 18.335 12.9517 17.9674 12.9517C17.5998 12.9517 17.3018 13.2497 17.3018 13.6173C17.3018 13.9849 17.5998 14.2829 17.9674 14.2829Z" fill="#07B7EE"/>
<path id="Vector_28" d="M22.2329 2.42334C22.6342 2.42334 22.9595 2.09805 22.9595 1.69678C22.9595 1.29551 22.6342 0.970215 22.2329 0.970215C21.8316 0.970215 21.5063 1.29551 21.5063 1.69678C21.5063 2.09805 21.8316 2.42334 22.2329 2.42334Z" fill="#9266CC"/>
</g>
</g>
</svg>
