<svg width="48" height="48" viewBox="0 0 48 48" fill="none" xmlns="http://www.w3.org/2000/svg">
<path d="M24 4C35.046 4 44 12.956 44 24C44 35.044 35.046 44 24 44C12.954 44 4 35.044 4 24C4 12.956 12.954 4 24 4ZM24 7.334C14.81 7.334 7.334 14.81 7.334 24C7.334 33.19 14.81 40.666 24 40.666C33.19 40.666 40.666 33.19 40.666 24C40.666 14.81 33.19 7.334 24 7.334ZM23.9973 29.0045C25.1004 29.0045 25.9946 29.8987 25.9946 31.0018C25.9946 32.1049 25.1004 32.9991 23.9973 32.9991C22.8942 32.9991 22 32.1049 22 31.0018C22 29.8987 22.8942 29.0045 23.9973 29.0045ZM23.9889 14C24.7483 13.9994 25.3764 14.5632 25.4763 15.2953L25.4901 15.4988L25.4973 24.502C25.498 25.3304 24.827 26.0025 23.9985 26.0032C23.2391 26.0038 22.6111 25.44 22.5112 24.7079L22.4973 24.5044L22.4901 15.5012C22.4895 14.6728 23.1605 14.0007 23.9889 14Z" fill="#E92C2C"/>
</svg>
