<svg width="136" height="108" viewBox="0 0 136 108" fill="none" xmlns="http://www.w3.org/2000/svg">
<path d="M68.3532 101.252C93.5865 101.252 114.043 80.795 114.043 55.4717C114.043 30.1484 93.4963 9.69142 68.3532 9.69142C43.12 9.69142 22.6631 30.1484 22.6631 55.4717C22.6631 80.795 43.12 101.252 68.3532 101.252Z" fill="#F1F3F9" stroke="#D6DCE8" stroke-width="1.80237" stroke-miterlimit="10"/>
<path d="M111.07 25.4657C113.11 25.4657 114.765 23.8114 114.765 21.7708C114.765 19.7302 113.11 18.0759 111.07 18.0759C109.029 18.0759 107.375 19.7302 107.375 21.7708C107.375 23.8114 109.029 25.4657 111.07 25.4657Z" fill="#F1F3F9"/>
<path d="M116.477 11.0466C117.871 11.0466 119 9.91691 119 8.52332C119 7.12973 117.871 6 116.477 6C115.083 6 113.954 7.12973 113.954 8.52332C113.954 9.91691 115.083 11.0466 116.477 11.0466Z" fill="#F1F3F9"/>
<path d="M25.0966 25.3787C26.4902 25.3787 27.6199 24.249 27.6199 22.8554C27.6199 21.4618 26.4902 20.332 25.0966 20.332C23.703 20.332 22.5732 21.4618 22.5732 22.8554C22.5732 24.249 23.703 25.3787 25.0966 25.3787Z" fill="#F1F3F9"/>
<path d="M9.68617 74.0365C12.2743 74.0365 14.3723 71.9384 14.3723 69.3503C14.3723 66.7622 12.2743 64.6641 9.68617 64.6641C7.09807 64.6641 5 66.7622 5 69.3503C5 71.9384 7.09807 74.0365 9.68617 74.0365Z" fill="#F1F3F9"/>
<path d="M81.6014 31.1431L95.3896 80.7084C95.8402 82.4207 94.8489 84.1329 93.1366 84.5835L44.5627 97.4705C42.8504 97.9211 41.1381 96.9298 40.6876 95.2175L23.7453 31.2333C23.2947 29.521 24.286 27.8088 25.9982 27.3582L61.1445 18.0759L81.6014 31.1431Z" fill="white" stroke="#D6DCE8" stroke-width="1.80237" stroke-miterlimit="10"/>
<path d="M80.8807 62.5014L54.6562 69.4406L51.7724 70.1615L43.0309 72.5046C42.6704 72.5947 42.4001 73.0453 42.5803 73.4959C42.6704 73.9465 43.121 74.2169 43.4815 74.1267L52.223 71.7837L55.1068 71.0627L81.3313 64.1236C81.6918 64.0335 81.9622 63.5829 81.7819 63.1323C81.6918 62.6817 81.2412 62.4113 80.8807 62.5014Z" fill="white"/>
<path d="M79.1673 56.3751L69.4345 58.8985L66.1001 59.7996L41.4977 66.3783C41.1372 66.4684 40.8669 66.919 41.0471 67.3696C41.1372 67.8202 41.5878 68.0906 41.9483 68.0004L66.6408 61.4218L69.9752 60.5206L79.708 57.9973C80.0685 57.9072 80.3388 57.4566 80.1586 57.006C79.9784 56.6455 79.5278 56.285 79.1673 56.3751Z" fill="#D6DCE8"/>
<path d="M77.7262 50.1618L75.2029 50.7926L72.6796 51.4234L39.7863 60.165C39.4258 60.2551 39.1555 60.7057 39.3357 61.1563C39.4258 61.6069 39.8764 61.8772 40.2369 61.7871L73.1302 53.0456L75.9239 52.3246L78.1768 51.6938C78.5373 51.6037 78.8077 51.1531 78.6274 50.7025C78.5373 50.342 78.1768 50.0717 77.7262 50.1618Z" fill="#D6DCE8"/>
<path d="M62.4951 82.0591L60.6927 82.5097C60.3322 82.5999 59.8816 82.3295 59.7915 81.8789C59.7014 81.4283 59.8816 80.9777 60.2421 80.8876L62.0445 80.437C62.405 80.3469 62.8556 80.6172 62.9457 81.0678C63.0358 81.6086 62.8556 81.969 62.4951 82.0591Z" fill="#D6DCE8"/>
<path d="M56.9987 83.5005L46.6351 86.2041C46.2746 86.2942 45.824 86.0239 45.7339 85.5733C45.6438 85.1227 45.824 84.6721 46.1845 84.582L56.5481 81.8784C56.9086 81.7883 57.3592 82.0587 57.4493 82.5092C57.6296 82.9598 57.4493 83.4104 56.9987 83.5005Z" fill="#D6DCE8"/>
<path d="M76.4644 43.9415L68.2636 46.1044L66.281 46.6451L38.2541 54.0348C37.8936 54.1249 37.6232 54.5755 37.8035 55.0261C37.8936 55.4767 38.3442 55.7471 38.7046 55.657L66.6414 48.3573L68.624 47.8166L76.7347 45.6538C77.1853 45.5637 77.3655 45.1131 77.2754 44.5724C77.2754 44.2119 76.8248 43.8514 76.4644 43.9415Z" fill="#D6DCE8"/>
<path d="M57.088 30.33L33.8374 36.4581C33.2966 36.6384 32.7559 36.2779 32.5757 35.7372C32.3955 35.1965 32.7559 34.6557 33.2966 34.4755L56.5473 28.3474C57.088 28.1672 57.6287 28.5277 57.8089 29.0684C57.9891 29.6091 57.6287 30.1498 57.088 30.33Z" fill="#D6DCE8"/>
<path d="M44.2923 39.7051L35.3706 42.0481C34.8298 42.2284 34.2891 41.8679 34.1089 41.3272C33.9287 40.7865 34.2891 40.2458 34.8298 40.0655L43.6615 37.7224C44.2022 37.5422 44.7429 37.9027 44.9231 38.4434C45.1034 38.9841 44.7429 39.5248 44.2923 39.7051Z" fill="#D6DCE8"/>
<path d="M61.1445 18.0757L64.7493 31.7737C65.29 33.6662 67.3627 34.8377 69.2552 34.297L81.6015 31.1429" fill="#D6DCE8"/>
<path d="M118.009 45.1155L109.718 95.9424C109.448 97.6546 107.735 98.8262 106.023 98.4657L56.6381 89.8143C54.9258 89.544 53.7543 87.8317 54.0246 86.1194L65.4697 20.9637C65.7401 19.2514 67.4523 18.0799 69.1646 18.4403L105.032 24.7486L118.009 45.1155Z" fill="white" stroke="#D6DCE8" stroke-width="1.80237" stroke-miterlimit="10"/>
<path d="M104.221 73.3236L77.5457 68.6375L74.6619 68.0968L65.7402 66.5647C65.3797 66.4746 64.9291 66.8351 64.9291 67.2857C64.839 67.7363 65.1093 68.1869 65.4698 68.277L74.3915 69.809L77.2753 70.3497L103.95 75.0359C104.311 75.126 104.762 74.7655 104.762 74.315C104.852 73.8644 104.671 73.4138 104.221 73.3236Z" fill="#D6DCE8"/>
<path d="M105.303 67.101L95.3895 65.3887L92.0551 64.7579L66.912 60.3421C66.5516 60.252 66.101 60.6124 66.101 61.063C66.0108 61.5136 66.2812 61.9642 66.6417 62.0543L91.7848 66.4701L95.1192 67.101L105.032 68.8132C105.393 68.9033 105.843 68.5429 105.843 68.0923C105.933 67.6417 105.663 67.1911 105.303 67.101Z" fill="#D6DCE8"/>
<path d="M106.564 60.7962L103.95 60.3456L101.337 59.8951L67.8129 54.0373C67.4524 53.9472 67.0018 54.3077 67.0018 54.7583C66.9117 55.2089 67.1821 55.6595 67.5426 55.7496L101.067 61.6073L103.95 62.148L106.203 62.5085C106.564 62.5986 107.015 62.2381 107.015 61.7875C107.195 61.337 107.015 60.8864 106.564 60.7962Z" fill="#D6DCE8"/>
<path d="M79.3474 83.4185L77.545 83.1481C77.1845 83.058 76.9142 82.6074 77.0043 82.1568C77.0944 81.7062 77.4549 81.3457 77.8154 81.4359L79.6177 81.7062C79.9782 81.7963 80.2486 82.2469 80.1584 82.6975C80.0683 83.2382 79.7078 83.4185 79.3474 83.4185Z" fill="#D6DCE8"/>
<path d="M73.8506 82.4251L63.3067 80.6227C62.9462 80.5326 62.6759 80.082 62.766 79.6314C62.8561 79.1808 63.2166 78.8203 63.5771 78.9105L74.1209 80.7128C74.4814 80.8029 74.7518 81.2535 74.6617 81.7041C74.5715 82.2448 74.2111 82.5152 73.8506 82.4251Z" fill="#D6DCE8"/>
<path d="M108.006 54.6696L99.6251 53.2277L97.5524 52.8672L68.9848 47.8206C68.6243 47.7305 68.1737 48.0909 68.1737 48.5415C68.0836 48.9921 68.354 49.4427 68.7144 49.5328L97.282 54.5795L99.3548 54.94L107.646 56.3819C108.096 56.472 108.457 56.1115 108.547 55.6609C108.637 55.2103 108.367 54.7597 108.006 54.6696Z" fill="#D6DCE8"/>
<path d="M96.2009 34.2142L72.4997 30.0687C71.959 29.9786 71.5985 29.4379 71.6886 28.8972C71.7787 28.3564 72.3194 27.996 72.8602 28.0861L96.5613 32.2315C97.1021 32.3217 97.4625 32.8624 97.3724 33.4031C97.2823 33.8537 96.7416 34.3043 96.2009 34.2142Z" fill="#D6DCE8"/>
<path d="M80.61 37.2748L71.508 35.6527C70.9673 35.5626 70.6068 35.0219 70.6969 34.4811C70.787 33.9404 71.3277 33.58 71.8684 33.6701L80.8803 35.2922C81.421 35.3823 81.7815 35.923 81.6914 36.4638C81.6013 37.0045 81.0606 37.3649 80.61 37.2748Z" fill="#D6DCE8"/>
<path d="M104.941 24.75L102.508 38.7184C102.148 40.701 103.589 42.5935 105.572 42.954L118.008 45.1168" fill="#D6DCE8"/>
<path d="M84.034 91.1637C95.1329 91.1637 104.13 82.1662 104.13 71.0672C104.13 59.9682 95.1329 50.9707 84.034 50.9707C72.935 50.9707 63.9375 59.9682 63.9375 71.0672C63.9375 82.1662 72.935 91.1637 84.034 91.1637Z" fill="white"/>
<path d="M113.18 102.103C112.4 102.103 111.62 101.791 110.996 101.089L97.9688 88.0622L97.5008 88.3742C93.2885 91.4945 88.3741 93.1326 83.3817 93.1326C77.3753 93.1326 71.3688 90.7144 66.9225 86.5021C62.2422 82.0558 59.668 76.0493 59.668 69.4968C59.668 56.4699 70.2768 45.8611 83.3037 45.8611C92.1964 45.8611 99.997 50.5414 104.209 58.498C108.344 66.3766 107.798 75.5813 102.727 82.9918L102.415 83.4599L115.52 96.5649C116.846 97.8909 116.534 99.2171 116.3 99.9191C115.676 101.167 114.428 102.103 113.18 102.103ZM83.3037 52.3356C73.787 52.3356 66.1425 60.0581 66.1425 69.4968C66.1425 80.2616 74.9571 86.7361 83.5377 86.7361C88.7641 86.7361 93.5225 84.3959 96.8767 80.1836C101.011 75.0352 101.713 68.0927 98.8269 62.0863C95.8627 56.0798 89.9342 52.3356 83.3037 52.3356Z" fill="#D6DCE8" stroke="#AAB2C5" stroke-width="1.80237" stroke-miterlimit="10"/>
<path d="M82.1417 74.3091C82.0516 73.9486 82.0516 73.5882 82.0516 73.1376C82.0516 71.6056 82.6824 70.2538 84.3046 69.0822L85.6564 68.0909C86.4674 67.4601 86.8279 66.7391 86.8279 65.838C86.8279 64.5763 85.9267 63.3146 84.0342 63.3146C82.0516 63.3146 81.1504 64.9368 81.1504 66.4688C81.1504 66.8293 81.1504 67.0996 81.2405 67.37L77.6358 67.2799C77.5457 66.9194 77.4556 66.4688 77.4556 66.0182C77.4556 62.9542 79.7085 60.0704 83.9441 60.0704C88.2698 60.0704 90.6129 62.864 90.6129 65.6577C90.6129 67.9107 89.4413 69.4427 87.8192 70.6142L86.6477 71.4253C85.6564 72.1463 85.1157 73.0474 85.1157 74.1289V74.3091H82.1417ZM83.6738 76.1115C84.9354 76.1115 85.9267 77.1028 85.9267 78.3645C85.9267 79.6261 84.9354 80.6174 83.6738 80.6174C82.4121 80.6174 81.4208 79.6261 81.4208 78.3645C81.5109 77.1929 82.4121 76.1115 83.6738 76.1115Z" fill="#B2C0D1"/>
</svg>
