<svg width="24" height="24" viewBox="0 0 24 24" fill="none" xmlns="http://www.w3.org/2000/svg">
<path d="M2.8959 12.9618L7.11785 20.3351C7.4907 20.9853 8.1844 21.3875 8.93564 21.3875H17.3795C18.1263 21.3875 18.8167 20.9908 19.1918 20.3461L20.712 17.7278C21.087 17.081 21.087 16.2843 20.7109 15.6374L18.5921 11.9987L20.7197 8.32808C21.0948 7.68012 21.0937 6.8823 20.7153 6.23544L19.2018 3.64803C18.8267 3.00668 18.1385 2.61328 17.3928 2.61328H8.90023C8.15232 2.61328 7.46083 3.01109 7.08687 3.65684L2.90143 10.889C2.52969 11.5293 2.52747 12.3194 2.8959 12.9618Z" fill="#0262FC"/>
<path d="M7.74609 12.0002H13.1718L15.92 7.30469H10.4556L7.74609 12.0002Z" fill="#AAE0FF"/>
<path d="M15.9221 7.30469L18.5918 12.0002L15.8889 16.6934L13.1738 12.0002L15.9221 7.30469Z" fill="white"/>
<path d="M7.74609 12H13.1718L15.8869 16.6933H10.4556L7.74609 12Z" fill="#5FB6FF"/>
</svg>
