<svg width="20" height="20" viewBox="0 0 20 20" fill="none" xmlns="http://www.w3.org/2000/svg">
<path d="M14.575 2.5H5.03892C4.35366 2.5 3.69649 2.77221 3.21195 3.25675C2.72741 3.74129 2.4552 4.39847 2.4552 5.08371V6.88949C2.91235 6.7308 3.40965 6.7308 3.86679 6.88949V4.99893C3.86758 4.71081 3.98269 4.43478 4.18685 4.23146C4.391 4.02815 4.66749 3.91418 4.95561 3.91457H14.6568C14.9457 3.91457 15.2228 4.02924 15.4273 4.23339C15.6317 4.43755 15.7467 4.71448 15.7471 5.00339V6.2945H17.1587V5.08371C17.1587 4.39847 16.8865 3.74129 16.402 3.25675C15.9174 2.77221 15.2603 2.5 14.575 2.5ZM15.7471 11.3935V13.5429C15.7466 13.7649 15.6831 13.9822 15.5641 14.1696C15.4451 14.3571 15.2755 14.507 15.0748 14.602L11.4617 16.2977V14.0099H4.95858C4.81542 14.0101 4.67359 13.9821 4.54123 13.9275C4.40888 13.8729 4.28857 13.7928 4.18719 13.6917C4.0858 13.5905 4.00533 13.4705 3.95036 13.3383C3.89538 13.206 3.867 13.0643 3.86679 12.9211V10.9309C3.6404 11.0109 3.40187 11.0512 3.16174 11.0499C2.92113 11.0497 2.68228 11.009 2.4552 10.9294V12.8393C2.4552 13.5246 2.72741 14.1817 3.21195 14.6663C3.69649 15.1508 4.35366 15.423 5.03892 15.423H10.0502V18.4917L15.7203 15.8023C16.1509 15.5984 16.5146 15.2763 16.7693 14.8737C17.0239 14.4711 17.159 14.0044 17.1587 13.528V11.3935H15.7471Z" fill="#1570EF"/>
<path d="M10.9383 5.23144C10.9383 4.98335 10.7372 4.78223 10.4891 4.78223C10.241 4.78223 10.0399 4.98335 10.0399 5.23144V12.4649C10.0399 12.713 10.241 12.9142 10.4891 12.9142C10.7372 12.9142 10.9383 12.713 10.9383 12.4649V5.23144Z" fill="#1570EF"/>
<path d="M12.549 6.74999C12.549 6.5019 12.3478 6.30078 12.0998 6.30078C11.8517 6.30078 11.6505 6.5019 11.6505 6.74999V10.9446C11.6505 11.1927 11.8517 11.3938 12.0998 11.3938C12.3478 11.3938 12.549 11.1927 12.549 10.9446V6.74999Z" fill="#1570EF"/>
<path d="M9.32695 6.74999C9.32695 6.5019 9.12583 6.30078 8.87774 6.30078C8.62965 6.30078 8.42853 6.5019 8.42853 6.74999V10.9446C8.42853 11.1927 8.62965 11.3938 8.87774 11.3938C9.12583 11.3938 9.32695 11.1927 9.32695 10.9446V6.74999Z" fill="url(#paint0_linear_34472_30159)"/>
<path d="M7.71645 8.16699C7.71645 7.91889 7.51533 7.71777 7.26724 7.71777C7.01914 7.71777 6.81802 7.91889 6.81802 8.16699V9.52652C6.81802 9.77461 7.01914 9.97573 7.26724 9.97573C7.51533 9.97573 7.71645 9.77461 7.71645 9.52652V8.16699Z" fill="#BCBEC0"/>
<path d="M14.1618 8.16699C14.1618 7.91889 13.9606 7.71777 13.7125 7.71777C13.4645 7.71777 13.2633 7.91889 13.2633 8.16699V9.52652C13.2633 9.77461 13.4645 9.97573 13.7125 9.97573C13.9606 9.97573 14.1618 9.77461 14.1618 9.52652V8.16699Z" fill="#BCBEC0"/>
<path d="M3.16304 10.4029C3.98947 10.4029 4.65942 9.73297 4.65942 8.90654C4.65942 8.08011 3.98947 7.41016 3.16304 7.41016C2.33661 7.41016 1.66666 8.08011 1.66666 8.90654C1.66666 9.73297 2.33661 10.4029 3.16304 10.4029Z" fill="#EC685C"/>
<defs>
<linearGradient id="paint0_linear_34472_30159" x1="8.87774" y1="5.01264" x2="8.87774" y2="13.6414" gradientUnits="userSpaceOnUse">
<stop stop-color="#02DEFE"/>
<stop offset="1" stop-color="#110BFF"/>
</linearGradient>
</defs>
</svg>
