<svg width="48" height="48" viewBox="0 0 48 48" fill="none" xmlns="http://www.w3.org/2000/svg">
<g id="vuesax/bold/location">
<path id="Vector" d="M24.0002 3.5C31.0802 3.5 39.1402 7.66 41.2402 16.9C43.5802 27.22 37.2602 35.94 31.5402 41.44C29.4402 43.48 26.7202 44.5 24.0002 44.5C21.2802 44.5 18.5602 43.48 16.4402 41.44C10.7202 35.94 4.40019 27.2 6.74019 16.88C8.84019 7.64 16.9202 3.5 23.9802 3.5H24.0002Z" fill="#1570EF"/>
<path id="Vector_2" d="M34.5372 22.6297L31.0455 16.6961C30.499 15.768 29.1536 15.768 28.6077 16.6961L25.7061 21.627L24.6803 23.3704H23.0535L22.6178 22.6297L19.1261 16.6961C18.5796 15.768 17.2342 15.768 16.6883 16.6961L13.1966 22.6297C12.6436 23.5692 13.3229 24.7528 14.4158 24.7528H19.3164L22.7956 30.6655C23.2756 31.4815 24.4582 31.4815 24.9383 30.6655L28.4174 24.7528H33.3181C34.4103 24.7528 35.0897 23.5698 34.5372 22.6297Z" fill="white"/>
</g>
</svg>
