<svg width="81" height="77" viewBox="0 0 81 77" fill="none" xmlns="http://www.w3.org/2000/svg">
<path d="M43.2455 75.6937C62.96 75.6937 78.948 59.8259 78.948 40.2316C78.948 20.6373 62.96 4.76953 43.2455 4.76953C23.531 4.76953 7.54297 20.6373 7.54297 40.2316C7.54297 59.8259 23.531 75.6937 43.2455 75.6937Z" fill="#F1F3F9" stroke="#D6DCE8" stroke-width="1.2021" stroke-miterlimit="10"/>
<path d="M70.5933 35.6081V57.3061C70.5933 61.814 66.9269 65.4804 62.3589 65.4804H24.2522C19.7443 65.4804 16.0779 61.8741 16.0178 57.3662C16.0178 57.3061 16.0178 57.3061 16.0178 57.246V35.6081C16.0178 35.548 16.0178 35.548 16.0178 35.4879C16.0178 35.3677 16.0178 35.2475 16.0779 35.1273C16.138 34.947 16.1981 34.8268 16.2582 34.6465L26.4761 15.1123C26.8368 14.3309 27.6181 13.9102 28.4596 13.9102H58.0915C58.9329 13.9102 59.6542 14.3309 60.0749 15.1123L70.2928 34.6465C70.3529 34.7667 70.413 34.947 70.4731 35.1273C70.5933 35.2475 70.5933 35.4278 70.5933 35.6081Z" fill="#F1F3F9" stroke="#D6DCE8" stroke-width="1.2021" stroke-miterlimit="10"/>
<path d="M58.1613 6.01172C58.9458 14.575 59.338 16.5361 57.562 24.2913C56.9844 26.0154 56.4069 27.9038 55.1692 29.2174C53.4366 31.27 50.3012 32.1731 47.7435 31.5163C45.1032 30.8595 42.958 28.5606 42.4629 25.7691C42.0504 24.045 42.6279 21.9924 44.1131 20.9251C45.6808 19.9399 47.9085 20.1862 49.2286 21.4177C50.7138 22.6492 51.2913 24.5376 51.2088 26.3438C51.1263 28.1501 50.4663 29.9563 49.5587 31.5163C47.507 35.352 46.6623 35.3379 42.4629 41.6375" stroke="#B3BCCE" stroke-width="1.2021" stroke-miterlimit="10" stroke-dasharray="2.4 2.4"/>
<path d="M62.7616 2.82544C62.448 3.96973 61.1935 4.38583 59.939 3.65765C58.58 3.0335 57.6391 2.51337 57.8482 1.47311C58.1618 0.432854 59.4163 0.328828 60.8798 0.224803C62.657 0.0167513 62.9707 1.68116 62.7616 2.82544Z" fill="#DAE2EB"/>
<path d="M52.6213 3.86557C53.144 4.8018 54.6076 5.42595 55.653 4.48972C56.803 3.44947 57.7438 2.72129 57.2211 1.68103C56.6984 0.744798 55.8621 1.05688 54.0849 1.26493C52.6213 1.577 51.9941 2.82531 52.6213 3.86557Z" fill="#DAE2EB"/>
<path d="M57.2207 0.0159309C57.9525 -0.0880948 58.6842 0.328008 58.8933 0.952162C58.9979 1.16021 59.1024 1.47229 59.1024 1.68034C59.3115 3.1367 58.7888 4.38501 57.9525 4.48903C57.0116 4.69709 56.0707 3.65683 55.9662 2.30449C55.9662 1.88839 55.9662 1.68034 55.9662 1.36826C56.0707 0.640085 56.4889 0.119957 57.2207 0.0159309C57.3252 0.0159309 57.2207 0.0159309 57.2207 0.0159309Z" fill="#989FB0"/>
<path d="M70.5931 35.6019V59.5238C70.5931 62.8296 67.9485 65.4742 64.5826 65.4742H22.0281C18.7223 65.4742 16.0176 62.8296 16.0176 59.5238V35.4817C16.0176 35.3615 16.0176 35.2413 16.0777 35.1211H29.7817C31.8252 35.1211 33.5082 36.7439 33.5082 38.8476C33.5082 39.8694 33.9289 40.8311 34.5901 41.4922C35.3113 42.2135 36.1528 42.5741 37.2347 42.5741H49.4361C51.4796 42.5741 53.1626 40.9513 53.1626 38.8476C53.1626 37.8258 53.5833 36.8641 54.2445 36.203C54.9657 35.4817 55.8072 35.1211 56.829 35.1211H70.4729C70.5931 35.2413 70.5931 35.4216 70.5931 35.6019Z" fill="white" stroke="#D6DCE8" stroke-width="1.2021" stroke-miterlimit="10"/>
<path d="M36.4474 50.6095C37.2089 50.6095 37.8263 49.9921 37.8263 49.2306C37.8263 48.469 37.2089 47.8516 36.4474 47.8516C35.6858 47.8516 35.0684 48.469 35.0684 49.2306C35.0684 49.9921 35.6858 50.6095 36.4474 50.6095Z" fill="#989FB0"/>
<path d="M50.1627 50.6095C50.9243 50.6095 51.5417 49.9921 51.5417 49.2306C51.5417 48.469 50.9243 47.8516 50.1627 47.8516C49.4011 47.8516 48.7837 48.469 48.7837 49.2306C48.7837 49.9921 49.4011 50.6095 50.1627 50.6095Z" fill="#989FB0"/>
<path d="M45.541 59.6669H41.2177C40.5468 59.6669 39.9878 59.1078 39.9878 58.4369C39.9878 57.7661 40.5468 57.207 41.2177 57.207H45.5038C46.1746 57.207 46.7337 57.7661 46.7337 58.4369C46.7709 59.1078 46.2119 59.6669 45.541 59.6669Z" fill="#989FB0"/>
<path d="M78.0356 23.2842C79.3966 23.2842 80.4999 22.1809 80.4999 20.8199C80.4999 19.4589 79.3966 18.3556 78.0356 18.3556C76.6746 18.3556 75.5713 19.4589 75.5713 20.8199C75.5713 22.1809 76.6746 23.2842 78.0356 23.2842Z" fill="#F1F3F9"/>
<path d="M75.5716 15.2917C76.5011 15.2917 77.2546 14.5382 77.2546 13.6087C77.2546 12.6793 76.5011 11.9258 75.5716 11.9258C74.6422 11.9258 73.8887 12.6793 73.8887 13.6087C73.8887 14.5382 74.6422 15.2917 75.5716 15.2917Z" fill="#F1F3F9"/>
<path d="M7.41244 20.819C8.3419 20.819 9.09538 20.0655 9.09538 19.1361C9.09538 18.2066 8.3419 17.4531 7.41244 17.4531C6.48297 17.4531 5.72949 18.2066 5.72949 19.1361C5.72949 20.0655 6.48297 20.819 7.41244 20.819Z" fill="#F1F3F9"/>
<path d="M3.62547 57.8447C5.35162 57.8447 6.75094 56.4454 6.75094 54.7192C6.75094 52.9931 5.35162 51.5938 3.62547 51.5938C1.89932 51.5938 0.5 52.9931 0.5 54.7192C0.5 56.4454 1.89932 57.8447 3.62547 57.8447Z" fill="#F1F3F9"/>
</svg>
