<svg width="20" height="20" viewBox="0 0 20 20" fill="none" xmlns="http://www.w3.org/2000/svg">
<path d="M13.1667 1.8417C12.8251 1.50003 12.2334 1.73337 12.2334 2.20837V5.1167C12.2334 6.33337 13.2667 7.3417 14.5251 7.3417C15.3167 7.35003 16.4167 7.35003 17.3584 7.35003C17.8334 7.35003 18.0834 6.7917 17.7501 6.45837C16.5501 5.25003 14.4001 3.07503 13.1667 1.8417Z" fill="#667085"/>
<path d="M17.0832 8.49163H14.6749C12.6999 8.49163 11.0916 6.88329 11.0916 4.90829V2.49996C11.0916 2.04163 10.7166 1.66663 10.2583 1.66663H6.72492C4.15825 1.66663 2.08325 3.33329 2.08325 6.30829V13.6916C2.08325 16.6666 4.15825 18.3333 6.72492 18.3333H13.2749C15.8416 18.3333 17.9166 16.6666 17.9166 13.6916V9.32496C17.9166 8.86663 17.5416 8.49163 17.0832 8.49163ZM9.58325 14.7916H6.24992C5.90825 14.7916 5.62492 14.5083 5.62492 14.1666C5.62492 13.825 5.90825 13.5416 6.24992 13.5416H9.58325C9.92492 13.5416 10.2083 13.825 10.2083 14.1666C10.2083 14.5083 9.92492 14.7916 9.58325 14.7916ZM11.2499 11.4583H6.24992C5.90825 11.4583 5.62492 11.175 5.62492 10.8333C5.62492 10.4916 5.90825 10.2083 6.24992 10.2083H11.2499C11.5916 10.2083 11.8749 10.4916 11.8749 10.8333C11.8749 11.175 11.5916 11.4583 11.2499 11.4583Z" fill="#667085"/>
</svg>
