<svg width="81" height="66" viewBox="0 0 81 66" fill="none" xmlns="http://www.w3.org/2000/svg">
<path d="M40 65C56.5681 65 70 51.5945 70 35C70 18.4055 56.5089 5 40 5C23.432 5 10 18.4055 10 35C10 51.5945 23.432 65 40 65Z" fill="#F1F3F9" stroke="#D6DCE8" stroke-width="1.14451" stroke-miterlimit="10"/>
<path d="M67.3546 16.4816C68.6503 16.4816 69.7008 15.4311 69.7008 14.1353C69.7008 12.8395 68.6503 11.7891 67.3546 11.7891C66.0588 11.7891 65.0083 12.8395 65.0083 14.1353C65.0083 15.4311 66.0588 16.4816 67.3546 16.4816Z" fill="#F1F3F9"/>
<path d="M70.7883 7.32573C71.6733 7.32573 72.3907 6.60835 72.3907 5.72341C72.3907 4.83848 71.6733 4.12109 70.7883 4.12109C69.9034 4.12109 69.186 4.83848 69.186 5.72341C69.186 6.60835 69.9034 7.32573 70.7883 7.32573Z" fill="#F1F3F9"/>
<path d="M12.7615 16.4234C13.6464 16.4234 14.3638 15.706 14.3638 14.8211C14.3638 13.9361 13.6464 13.2188 12.7615 13.2188C11.8766 13.2188 11.1592 13.9361 11.1592 14.8211C11.1592 15.706 11.8766 16.4234 12.7615 16.4234Z" fill="#F1F3F9"/>
<path d="M2.97573 47.3265C4.61918 47.3265 5.95147 45.9942 5.95147 44.3507C5.95147 42.7073 4.61918 41.375 2.97573 41.375C1.33228 41.375 0 42.7073 0 44.3507C0 45.9942 1.33228 47.3265 2.97573 47.3265Z" fill="#F1F3F9"/>
<path d="M37.7981 41.8936L18.3761 55.3906C17.2526 56.1639 15.7219 55.8967 14.9355 54.772L2.04368 36.1715C1.2713 35.0467 1.53812 33.5143 2.66159 32.7269L22.0835 19.23C23.207 18.4567 24.7377 18.7238 25.5242 19.8486L38.43 38.4491C39.2024 39.5738 38.9215 41.1204 37.7981 41.8936Z" fill="white" stroke="#D6DCE8" stroke-width="1.14451" stroke-miterlimit="10"/>
<path d="M34.7931 39.8571L17.7164 51.7232C17.2389 52.0606 16.5789 51.9341 16.2418 51.456L5.58295 36.0751C5.2459 35.5971 5.3723 34.9363 5.84977 34.5989L22.9265 22.7328C23.404 22.3954 24.064 22.5219 24.401 22.9999L35.0599 38.3809C35.397 38.8589 35.2706 39.5197 34.7931 39.8571Z" fill="#F1F3F9"/>
<path d="M22.5612 39.7309L16.3259 44.0612L16.986 38.3672L22.5612 39.7309Z" fill="#AAB2C5"/>
<path d="M27.7152 36.1457L18.7415 42.388L19.6964 34.1914L27.7152 36.1457Z" fill="#D6DCE8"/>
<path d="M14.5142 37.8603C15.3053 37.8603 15.9466 37.2182 15.9466 36.4262C15.9466 35.6342 15.3053 34.9922 14.5142 34.9922C13.7231 34.9922 13.0818 35.6342 13.0818 36.4262C13.0818 37.2182 13.7231 37.8603 14.5142 37.8603Z" fill="#AAB2C5"/>
<path d="M61.3207 53.3809L43.275 38.0843C42.2357 37.1986 42.1094 35.638 42.98 34.5976L57.5992 17.3187C58.4839 16.2783 60.0427 16.1517 61.0819 17.0234L79.1276 32.32C80.1668 33.2057 80.2932 34.7663 79.4225 35.8067L64.8034 53.0856C63.9187 54.126 62.3599 54.2525 61.3207 53.3809Z" fill="white" stroke="#D6DCE8" stroke-width="1.14451" stroke-miterlimit="10"/>
<path d="M62.5145 49.9528L46.6455 36.512C46.1961 36.1324 46.1399 35.4717 46.5191 35.0218L58.5964 20.7375C58.9755 20.2876 59.6356 20.2313 60.085 20.6109L75.954 34.0517C76.4033 34.4313 76.4595 35.0921 76.0803 35.542L64.0031 49.8262C63.6239 50.2761 62.9639 50.3324 62.5145 49.9528Z" fill="#F1F3F9"/>
<path d="M59.4673 38.0721L53.6814 33.1654L59.3549 32.3359L59.4673 38.0721Z" fill="#AAB2C5"/>
<path d="M64.2697 42.1356L55.928 35.0638L64.0872 33.8828L64.2697 42.1356Z" fill="#D6DCE8"/>
<path d="M60.5904 30.8876C61.3815 30.8876 62.0228 30.2456 62.0228 29.4536C62.0228 28.6616 61.3815 28.0195 60.5904 28.0195C59.7993 28.0195 59.158 28.6616 59.158 29.4536C59.158 30.2456 59.7993 30.8876 60.5904 30.8876Z" fill="#AAB2C5"/>
<path d="M53.1502 37.7052L29.9207 42.1795C28.5791 42.4341 27.2839 41.5545 27.0189 40.224L22.7175 18.0028C22.4614 16.6614 23.3398 15.3674 24.6703 15.104L47.8999 10.6297C49.2414 10.3751 50.5366 11.2547 50.8016 12.5852L55.103 34.8064C55.3592 36.1478 54.4808 37.4418 53.1502 37.7052Z" fill="white" stroke="#D6DCE8" stroke-width="1.14451" stroke-miterlimit="10"/>
<path d="M51.225 34.6226L30.8058 38.5639C30.2283 38.6761 29.6782 38.3057 29.5653 37.7283L26.0043 19.3648C25.8914 18.7873 26.2612 18.2378 26.8387 18.1255L47.2579 14.1842C47.8353 14.072 48.3854 14.4423 48.4983 15.0198L52.0594 33.3833C52.1723 33.9608 51.8024 34.5103 51.225 34.6226Z" fill="#F1F3F9"/>
<path d="M40.0577 29.5516L32.608 30.9847L35.5176 26.044L40.0577 29.5516Z" fill="#AAB2C5"/>
<path d="M46.2344 28.3561L35.4957 30.4238L39.6893 23.3258L46.2344 28.3561Z" fill="#D6DCE8"/>
<path d="M35.1637 24.1736C35.6595 23.5572 35.5611 22.655 34.944 22.1587C34.3269 21.6623 33.4246 21.7596 32.9288 22.376C32.433 22.9925 32.5313 23.8946 33.1484 24.391C33.7656 24.8874 34.6678 24.7901 35.1637 24.1736Z" fill="#AAB2C5"/>
<path d="M53.4654 51.6588C53.1924 52.819 52.7829 54.0475 52.3052 55.0712C51.0085 57.5963 48.9611 59.5755 46.4359 60.8722C43.8426 62.1689 40.7714 62.7148 37.7003 62.0324C30.4661 60.5309 25.8254 53.4333 27.3268 46.1991C28.8282 38.9649 35.8577 34.2558 43.0918 35.8255C45.6852 36.3715 47.9374 37.6682 49.8483 39.4426C53.0559 42.6502 54.4208 47.291 53.4654 51.6588Z" fill="#D6DCE8" stroke="#AAB2C5" stroke-width="1.14451" stroke-miterlimit="10"/>
<path d="M44.6616 47.1942H42.1628V44.6954C42.1628 43.7873 41.4506 42.9629 40.4303 42.9629C39.5223 42.9629 38.6979 43.6751 38.6979 44.6954V47.1942H36.199C35.291 47.1942 34.4666 47.9064 34.4666 48.9267C34.4666 49.405 34.6363 49.8453 34.9583 50.1673C35.2804 50.4894 35.7207 50.6591 36.199 50.6591H38.6979V53.158C38.6979 54.066 39.41 54.8904 40.4303 54.8904C41.3384 54.8904 42.1628 54.1783 42.1628 53.158V50.6591H44.6616C45.5697 50.6591 46.3941 49.947 46.3941 48.9267C46.3941 47.9064 45.5697 47.1942 44.6616 47.1942Z" fill="white" stroke="#AAB2C5" stroke-width="1.14451"/>
</svg>
