<svg width="24" height="24" viewBox="0 0 24 24" fill="none" xmlns="http://www.w3.org/2000/svg">
<circle cx="12" cy="12" r="12" fill="#FF4F4F"/>
<path d="M18.3907 8.79443C18.237 8.22335 17.7866 7.77318 17.2155 7.6194C16.1721 7.33398 11.9985 7.33398 11.9985 7.33398C11.9985 7.33398 7.82512 7.33398 6.78174 7.60858C6.2216 7.76219 5.76025 8.22343 5.60661 8.79443C5.33203 9.83749 5.33203 12.0007 5.33203 12.0007C5.33203 12.0007 5.33203 14.1747 5.60661 15.2069C5.76042 15.7779 6.21061 16.228 6.78182 16.3818C7.83611 16.6673 11.9987 16.6673 11.9987 16.6673C11.9987 16.6673 16.1721 16.6673 17.2155 16.3927C17.7867 16.239 18.237 15.7889 18.3908 15.2179C18.6653 14.1747 18.6653 12.0116 18.6653 12.0116C18.6653 12.0116 18.6763 9.83749 18.3907 8.79443ZM10.6698 13.9991V10.0022L14.1403 12.0007L10.6698 13.9991Z" fill="white"/>
</svg>
