<svg width="180" height="36" viewBox="0 0 180 36" fill="none" xmlns="http://www.w3.org/2000/svg">
<g id="Group">
<g id="Group_2">
<g id="Group_3">
<path id="Vector" d="M48.2036 15.736L40.3886 2.41986C39.1655 0.336609 36.1541 0.336609 34.9328 2.41986L28.4392 13.4864L26.1424 17.3996H22.5014L21.5259 15.7379L13.7109 2.42175C12.4878 0.338502 9.47635 0.338502 8.25514 2.42175L0.440115 15.7379C-0.798115 17.8457 0.723679 20.5018 3.168 20.5018H14.1363L21.9229 33.7707C22.9967 35.6006 25.6433 35.6006 26.7189 33.7707L34.5056 20.5018H45.4739C47.9201 20.4999 49.44 17.8457 48.2036 15.736Z" fill="white"/>
</g>
</g>
<g id="Group_4">
<g id="Group_5">
<g id="Group_6">
<g id="Group_7">
<g id="Group_8">
<g id="Group_9">
<g id="Group_10">
<g id="Group_11">
<path id="Vector_2" d="M56.6109 13.0928L57.3311 13.5181C58.2877 13.0474 59.3596 12.7979 60.6091 12.7979C61.9627 12.7979 62.8739 13.106 63.4901 13.6221C64.4599 13.0776 65.5337 12.7979 66.8135 12.7979C69.9308 12.7979 70.7834 14.4142 70.7834 16.4728V20.4427H68.4317V16.7677C68.4317 15.8263 68.4317 14.9303 66.77 14.9303C65.9174 14.9303 65.1669 15.0626 64.4618 15.3121C64.5507 15.6789 64.579 16.0759 64.579 16.4728V20.4427H62.2273V16.7677C62.2273 15.8263 62.2273 14.9303 60.5656 14.9303C59.7565 14.9303 59.0363 15.0475 58.3746 15.2838V20.4446H56.0229V13.0928H56.6109Z" fill="white"/>
<path id="Vector_3" d="M76.7559 20.7357C73.4628 20.7357 72.5516 19.0892 72.5516 17.0608V16.4728C72.5516 14.4444 73.4628 12.7979 76.7559 12.7979H77.1681C80.5198 12.7979 81.2117 13.8565 81.2117 15.1495V15.297C81.2117 16.4728 80.8582 17.5031 77.1832 17.5031C76.3004 17.5031 75.565 17.4294 74.9052 17.2385C74.9487 18.0759 75.2436 18.6052 77.1983 18.6052C78.1246 18.6052 79.6086 18.4578 80.6238 18.1648V20.3709C79.6086 20.6053 78.153 20.7376 77.0357 20.7376H76.7559V20.7357ZM74.9771 15.6637C75.5499 15.8112 76.1831 15.8849 77.0357 15.8849C78.756 15.8849 78.8581 15.5919 78.8581 15.3254C78.8581 15.0456 78.7693 14.6335 77.1813 14.6335C75.6236 14.6353 75.1226 15.0021 74.9771 15.6637Z" fill="white"/>
<path id="Vector_4" d="M87.1793 20.7357C83.8862 20.7357 82.975 19.0892 82.975 17.0608V16.4728C82.975 14.4444 83.8862 12.7979 87.1793 12.7979H87.5914C90.9431 12.7979 91.635 13.8565 91.635 15.1495V15.297C91.635 16.4728 91.2815 17.5031 87.6065 17.5031C86.7237 17.5031 85.9883 17.4294 85.3286 17.2385C85.372 18.0759 85.6669 18.6052 87.6216 18.6052C88.548 18.6052 90.0338 18.4578 91.0471 18.1648V20.3709C90.0319 20.6053 88.5763 20.7376 87.4591 20.7376H87.1793V20.7357ZM85.4004 15.6637C85.9732 15.8112 86.6065 15.8849 87.4591 15.8849C89.1793 15.8849 89.2814 15.5919 89.2814 15.3254C89.2814 15.0456 89.1926 14.6335 87.6046 14.6335C86.0469 14.6353 85.5478 15.0021 85.4004 15.6637Z" fill="white"/>
<path id="Vector_5" d="M98.3402 21.2499C97.5765 22.9702 96.8695 24.1177 94.9148 24.1177C94.5329 24.1177 94.0319 24.0742 93.6803 23.9702V21.8832C94.0187 21.9569 94.5178 21.9853 94.8127 21.9853C95.7825 21.9853 95.9734 21.6034 96.2834 20.9569L96.3855 20.7073L92.8712 13.6787V13.0908H95.0774L97.4158 18.1628L99.4745 13.0908H101.681V13.6787L98.3402 21.2499Z" fill="white"/>
<path id="Vector_6" d="M103.868 9.41602L105.632 10.4444V20.4429H103.28V9.41602H103.868Z" fill="white"/>
<path id="Vector_7" d="M116.408 20.4446H115.82L115.026 19.989C114.041 20.5032 112.998 20.7395 111.644 20.7395C108.468 20.7395 107.557 19.5788 107.557 18.2687V18.1213C107.557 16.8868 108.542 15.8717 111.601 15.8717C112.586 15.8717 113.365 15.9605 114.057 16.1515C114.026 15.3726 113.822 14.9303 111.881 14.9303C110.837 14.9303 109.382 15.0777 108.366 15.3707V13.1646C109.382 12.9302 110.837 12.7979 111.954 12.7979C115.232 12.7979 116.41 13.9302 116.41 16.0324V20.4446H116.408ZM114.057 18.592V17.9001C113.395 17.7243 112.66 17.6355 111.748 17.6355C109.998 17.6355 109.911 17.989 109.911 18.282C109.911 18.6355 110.028 18.9001 111.896 18.9001C112.69 18.9001 113.395 18.7981 114.057 18.592Z" fill="white"/>
<path id="Vector_8" d="M118.837 13.0909L119.631 13.5616C120.572 13.0474 121.616 12.7979 122.895 12.7979C126.189 12.7979 127.1 14.4444 127.1 16.4728V20.4427H124.748V16.7659C124.748 15.8093 124.748 14.9284 122.763 14.9284C121.954 14.9284 121.249 15.0456 120.602 15.2516V20.4408H118.251V13.089H118.837V13.0909Z" fill="white"/>
<path id="Vector_9" d="M137.713 20.4449H137.125L136.331 19.9893C135.39 20.4884 134.346 20.7398 133.067 20.7398C129.773 20.7398 128.862 19.0932 128.862 17.0648V16.4769C128.862 14.4485 129.773 12.8019 133.067 12.8019C133.919 12.8019 134.67 12.9191 135.36 13.1403V9.41992H135.948L137.711 10.4483V20.4449H137.713ZM135.362 18.2974V15.2538C134.7 15.0477 133.995 14.9305 133.201 14.9305C131.216 14.9305 131.216 15.8133 131.216 16.768C131.216 17.7227 131.216 18.6055 133.201 18.6055C133.995 18.6055 134.7 18.5034 135.362 18.2974Z" fill="white"/>
<path id="Vector_10" d="M139.788 19.1627C139.788 18.3989 140.126 17.7656 141.346 17.7656H141.463C142.684 17.7656 143.021 18.397 143.021 19.1627V19.3385C143.021 20.1022 142.682 20.7355 141.463 20.7355H141.346C140.124 20.7355 139.788 20.1041 139.788 19.3385V19.1627Z" fill="white"/>
<path id="Vector_11" d="M144.934 16.4728C144.934 14.4444 145.845 12.7979 149.138 12.7979H149.55C150.609 12.7979 151.624 12.9302 152.579 13.1646V15.3556C151.49 15.0475 150.301 14.9303 149.492 14.9303C147.285 14.9303 147.285 15.7091 147.285 16.7677C147.285 17.8264 147.285 18.6052 149.492 18.6052C150.301 18.6052 151.492 18.488 152.579 18.178V20.369C151.622 20.6034 150.609 20.7357 149.55 20.7357H149.138C145.845 20.7357 144.934 19.0892 144.934 17.0608V16.4728Z" fill="white"/>
<path id="Vector_12" d="M154.213 16.4728C154.213 14.4444 155.124 12.7979 158.417 12.7979H158.829C162.122 12.7979 163.033 14.4444 163.033 16.4728V17.0608C163.033 19.0892 162.122 20.7357 158.829 20.7357H158.417C155.124 20.7357 154.213 19.0892 154.213 17.0608V16.4728ZM158.623 18.6033C160.682 18.6033 160.682 17.7205 160.682 16.7659C160.682 15.8093 160.682 14.9284 158.623 14.9284C156.564 14.9284 156.564 15.8112 156.564 16.7659C156.566 17.7224 156.566 18.6033 158.623 18.6033Z" fill="white"/>
<path id="Vector_13" d="M165.46 13.0928L166.18 13.5181C167.137 13.0474 168.209 12.7979 169.458 12.7979C170.812 12.7979 171.723 13.106 172.339 13.6221C173.309 13.0776 174.383 12.7979 175.663 12.7979C178.78 12.7979 179.633 14.4142 179.633 16.4728V20.4427H177.281V16.7677C177.281 15.8263 177.281 14.9303 175.619 14.9303C174.767 14.9303 174.016 15.0626 173.311 15.3121C173.4 15.6789 173.428 16.0759 173.428 16.4728V20.4427H171.077V16.7677C171.077 15.8263 171.077 14.9303 169.415 14.9303C168.606 14.9303 167.886 15.0475 167.224 15.2838V20.4446H164.872V13.0928H165.46Z" fill="white"/>
</g>
</g>
</g>
</g>
</g>
</g>
</g>
</g>
</g>
</svg>
